<svg xmlns="http://www.w3.org/2000/svg" width="123" height="160" viewBox="0 0 123 160" fill="none">
<path d="M67.4111 0H71.3817V3.99999H67.4111V0Z" fill="#3B64CE"/>
<path d="M87.2651 4.00005H91.2357V8.00004H87.2651V4.00005Z" fill="#3B64CE"/>
<path d="M71.3817 3.99999L75.3531 4.00005V8.00004H71.3825L71.3817 3.99999Z" fill="#3B64CE"/>
<path d="M67.4111 3.99999H71.3817L71.3825 8.00004H67.4111V3.99999Z" fill="#3B64CE"/>
<path d="M87.2651 8.00004H91.2357V11.9998H87.2651V8.00004Z" fill="#3B64CE"/>
<path d="M83.2928 7.99986H87.2634V11.9998H83.2928V7.99986Z" fill="#3B64CE"/>
<path d="M75.351 7.99986H79.3216V11.9998H75.351V7.99986Z" fill="#3B64CE"/>
<path d="M71.3825 8.00004H75.3531V11.9998H71.3825V8.00004Z" fill="#7291E3"/>
<path d="M67.4111 8.00004H71.3825V11.9998H67.4111V8.00004Z" fill="#3B64CE"/>
<path d="M63.4398 7.99986L67.4111 8.00004V11.9998H63.4398V7.99986Z" fill="#3B64CE"/>
<path d="M59.4703 7.99986H63.4409V11.9998H59.4703V7.99986Z" fill="#3B64CE"/>
<path d="M55.498 7.99986H59.4686V11.9998H55.498V7.99986Z" fill="#3B64CE"/>
<path d="M51.5314 7.99986H55.502V11.9998H51.5314V7.99986Z" fill="#3B64CE"/>
<path d="M47.56 7.99986H51.5314V11.9998H47.56V7.99986Z" fill="#3B64CE"/>
<path d="M43.5877 7.99986H47.5583V11.9998H43.5877V7.99986Z" fill="#3B64CE"/>
<path d="M39.6173 7.99986H43.5877V11.9998H39.6173V7.99986Z" fill="#3B64CE"/>
<path d="M87.2651 11.9998H91.2357V16.0001H87.2651V11.9998Z" fill="#3B64CE"/>
<path d="M83.2928 11.9998H87.2634V16.0001H83.2928V11.9998Z" fill="#7291E3"/>
<path d="M79.3216 11.9998H83.2928V16.0001H79.3224L79.3216 11.9998Z" fill="#3B64CE"/>
<path d="M75.351 11.9998H79.3216L79.3224 16.0001H75.351V11.9998Z" fill="#7291E3"/>
<path d="M71.3825 11.9998H75.3531V16.0001H71.3825V11.9998Z" fill="#7291E3"/>
<path d="M67.4111 11.9998H71.3825V16.0001H67.4111V11.9998Z" fill="#3B64CE"/>
<path d="M63.4398 11.9998H67.4111V16.0001H63.4398V11.9998Z" fill="#7291E3"/>
<path d="M59.4703 11.9998H63.4409V16.0001H59.4703V11.9998Z" fill="#7291E3"/>
<path d="M55.498 11.9998H59.4686V16.0001H55.498V11.9998Z" fill="#7291E3"/>
<path d="M51.5314 11.9998H55.502V16.0001H51.5314V11.9998Z" fill="#7291E3"/>
<path d="M47.56 11.9998H51.5314V16.0001H47.56V11.9998Z" fill="#7291E3"/>
<path d="M43.5877 11.9998H47.5583V16.0001H43.5877V11.9998Z" fill="#7291E3"/>
<path d="M39.6173 11.9998H43.5877V16.0001H39.6173V11.9998Z" fill="#7291E3"/>
<path d="M35.6478 12.0001H39.6184V16.0001H35.6478V12.0001Z" fill="#3B64CE"/>
<path d="M31.6746 12.0001H35.6451V16.0001H31.6746V12.0001Z" fill="#3B64CE"/>
<path d="M99.1764 15.9992H103.147V19.9992H99.1764V15.9992Z" fill="#3B64CE"/>
<path d="M95.2069 15.9992H99.1775V19.9992H95.2069V15.9992Z" fill="#3B64CE"/>
<path d="M91.2375 15.9992H95.2081V19.9992H91.2375V15.9992Z" fill="#3B64CE"/>
<path d="M87.2651 16.0001H91.2357V19.9992H87.2651V16.0001Z" fill="#3B64CE"/>
<path d="M83.2928 16.0001H87.2634V19.9992H83.2928V16.0001Z" fill="#7291E3"/>
<path d="M79.3224 16.0001H83.2928V19.9992H79.3224V16.0001Z" fill="#7291E3"/>
<path d="M75.351 16.0001L79.3216 15.9992L79.3224 19.9992H75.351V16.0001Z" fill="#7291E3"/>
<path d="M71.3825 16.0001H75.3531V19.9992H71.3825V16.0001Z" fill="#7291E3"/>
<path d="M67.4111 16.0001L71.3817 15.9992L71.3825 19.9992H67.4111V16.0001Z" fill="#7291E3"/>
<path d="M63.4398 16.0001L67.4104 15.9992L67.4111 19.9992H63.4398V16.0001Z" fill="#7291E3"/>
<path d="M59.4703 16.0001H63.4409V19.9992H59.4703V16.0001Z" fill="#7291E3"/>
<path d="M55.498 16.0001H59.4686V19.9992H55.498V16.0001Z" fill="#7291E3"/>
<path d="M51.5314 16.0001H55.502V19.9992H51.5314V16.0001Z" fill="#7291E3"/>
<path d="M47.56 16.0001L51.5306 15.9992L51.5314 19.9992H47.56V16.0001Z" fill="#7291E3"/>
<path d="M43.5877 16.0001H47.5583V19.9992H43.5877V16.0001Z" fill="#7291E3"/>
<path d="M39.6173 16.0001H43.5877V19.9992H39.6173V16.0001Z" fill="#7291E3"/>
<path d="M35.6478 16.0001H39.6184V19.9992H35.6478V16.0001Z" fill="#7291E3"/>
<path d="M31.6746 16.0001H35.6451V19.9992H31.6746V16.0001Z" fill="#7291E3"/>
<path d="M27.7061 15.9992H31.6767V19.9992H27.7061V15.9992Z" fill="#3B64CE"/>
<path d="M95.2069 19.9992H99.1775V24H95.2069V19.9992Z" fill="#3B64CE"/>
<path d="M91.2375 19.9992H95.2081V24H91.2375V19.9992Z" fill="#7291E3"/>
<path d="M87.2651 19.9992H91.2357V24H87.2651V19.9992Z" fill="#7291E3"/>
<path d="M83.2928 19.9992H87.2634V24H83.2928V19.9992Z" fill="#7291E3"/>
<path d="M79.3224 19.9992H83.2928V24H79.3224V19.9992Z" fill="#7291E3"/>
<path d="M75.351 19.9992L79.3216 20L79.3224 24H75.351V19.9992Z" fill="#7291E3"/>
<path d="M71.3825 19.9992H75.3531V24H71.3825V19.9992Z" fill="#7291E3"/>
<path d="M67.4111 19.9992L71.3817 20L71.3825 24H67.4111V19.9992Z" fill="#7291E3"/>
<path d="M63.4398 19.9992L67.4104 20L67.4111 24H63.4398V19.9992Z" fill="#7291E3"/>
<path d="M59.4703 19.9992H63.4409V24H59.4703V19.9992Z" fill="#7291E3"/>
<path d="M55.498 19.9992H59.4686V24H55.498V19.9992Z" fill="#7291E3"/>
<path d="M51.5314 19.9992H55.502V24H51.5314V19.9992Z" fill="#7291E3"/>
<path d="M47.56 19.9992L51.5306 20L51.5314 24H47.56V19.9992Z" fill="#7291E3"/>
<path d="M43.5877 19.9992H47.5583V24H43.5877V19.9992Z" fill="#7291E3"/>
<path d="M39.6173 19.9992H43.5877V24H39.6173V19.9992Z" fill="#7291E3"/>
<path d="M35.6478 19.9992H39.6184V24H35.6478V19.9992Z" fill="#7291E3"/>
<path d="M31.6746 19.9992H35.6451V24H31.6746V19.9992Z" fill="#7291E3"/>
<path d="M27.7061 19.9992H31.6767V24H27.7061V19.9992Z" fill="#7291E3"/>
<path d="M23.7347 20H27.7053L27.7061 24H23.7347V20Z" fill="#3B64CE"/>
<path d="M95.2069 23.9984H99.1775V27.9984H95.2069V23.9984Z" fill="#3B64CE"/>
<path d="M91.2375 23.9984H95.2081V27.9984H91.2375V23.9984Z" fill="#3B64CE"/>
<path d="M87.2651 23.9984H91.2357V27.9984H87.2651V23.9984Z" fill="#3B64CE"/>
<path d="M83.2928 23.9984H87.2634V27.9984H83.2928V23.9984Z" fill="#3B64CE"/>
<path d="M79.3224 23.9984H83.2928V27.9984H79.3224V23.9984Z" fill="#3B64CE"/>
<path d="M75.351 23.9984H79.3224V27.9984H75.351V23.9984Z" fill="#3B64CE"/>
<path d="M71.3825 23.9984H75.3531V27.9984H71.3825V23.9984Z" fill="#7291E3"/>
<path d="M67.4111 23.9984H71.3825V27.9984H67.4111V23.9984Z" fill="#7291E3"/>
<path d="M63.4398 23.9984H67.4111V27.9984H63.4398V23.9984Z" fill="#7291E3"/>
<path d="M59.4703 23.9984H63.4409V27.9984H59.4703V23.9984Z" fill="#7291E3"/>
<path d="M55.498 23.9984H59.4686V27.9984H55.498V23.9984Z" fill="#3B64CE"/>
<path d="M51.5314 23.9984H55.502V27.9984H51.5314V23.9984Z" fill="#3B64CE"/>
<path d="M47.56 23.9984H51.5314V27.9984H47.56V23.9984Z" fill="#3B64CE"/>
<path d="M43.5877 23.9984H47.5583V27.9984H43.5877V23.9984Z" fill="#3B64CE"/>
<path d="M39.6173 23.9984H43.5877V27.9984H39.6173V23.9984Z" fill="#3B64CE"/>
<path d="M35.6478 23.9984H39.6184V27.9984H35.6478V23.9984Z" fill="#7291E3"/>
<path d="M31.6746 23.9984H35.6451V27.9984H31.6746V23.9984Z" fill="#7291E3"/>
<path d="M27.7061 23.9984H31.6767V27.9984H27.7061V23.9984Z" fill="#7291E3"/>
<path d="M23.7347 23.9984H27.7061V27.9984H23.7347V23.9984Z" fill="#7291E3"/>
<path d="M19.7652 23.9984H23.7358V27.9984H19.7652V23.9984Z" fill="#3B64CE"/>
<path d="M111.087 27.9987H115.057V31.9986H111.087V27.9987Z" fill="#3B64CE"/>
<path d="M107.118 27.9987H111.089V31.9986H107.118V27.9987Z" fill="#3B64CE"/>
<path d="M103.147 27.9987H107.118V31.9986H103.147V27.9987Z" fill="#3B64CE"/>
<path d="M95.2069 27.9984H99.1775V31.9986H95.2069V27.9984Z" fill="#3B64CE"/>
<path d="M91.2375 27.9984H95.2081V31.9986H91.2375V27.9984Z" fill="#7291E3"/>
<path d="M87.2651 27.9984H91.2357V31.9986H87.2651V27.9984Z" fill="#7291E3"/>
<path d="M83.2928 27.9984H87.2634V31.9986H83.2928V27.9984Z" fill="#7291E3"/>
<path d="M79.3224 27.9984H83.2928V31.9986H79.3224V27.9984Z" fill="#7291E3"/>
<path d="M75.351 27.9984H79.3224V31.9986H75.351V27.9984Z" fill="#7291E3"/>
<path d="M71.3825 27.9984H75.3531V31.9986H71.3825V27.9984Z" fill="#3B64CE"/>
<path d="M67.4111 27.9984H71.3825V31.9986H67.4111V27.9984Z" fill="#7291E3"/>
<path d="M63.4398 27.9984H67.4111V31.9986H63.4398V27.9984Z" fill="#7291E3"/>
<path d="M59.4703 27.9984H63.4409V31.9986H59.4703V27.9984Z" fill="#3B64CE"/>
<path d="M55.498 27.9984H59.4686V31.9986H55.498V27.9984Z" fill="#7291E3"/>
<path d="M51.5314 27.9984H55.502V31.9986H51.5314V27.9984Z" fill="#7291E3"/>
<path d="M47.56 27.9984H51.5314V31.9986H47.56V27.9984Z" fill="#7291E3"/>
<path d="M43.5877 27.9984H47.5583V31.9986H43.5877V27.9984Z" fill="#7291E3"/>
<path d="M39.6173 27.9984H43.5877V31.9986H39.6173V27.9984Z" fill="#7291E3"/>
<path d="M35.6478 27.9984H39.6184V31.9986H35.6478V27.9984Z" fill="#3B64CE"/>
<path d="M31.6746 27.9984H35.6451V31.9986H31.6746V27.9984Z" fill="#7291E3"/>
<path d="M27.7061 27.9984H31.6767V31.9986H27.7061V27.9984Z" fill="#7291E3"/>
<path d="M23.7347 27.9984H27.7061V31.9986H23.7347V27.9984Z" fill="#7291E3"/>
<path d="M19.7652 27.9984H23.7358V31.9986H19.7652V27.9984Z" fill="#3B64CE"/>
<path d="M11.8225 27.9987H15.7931V31.9986H11.8225V27.9987Z" fill="#3B64CE"/>
<path d="M7.85207 27.9987H11.8225V31.9986H7.85207V27.9987Z" fill="#3B64CE"/>
<path d="M3.8807 27.9987H7.85207V31.9986H3.8807V27.9987Z" fill="#3B64CE"/>
<path d="M-0.0887518 27.9987H3.88184V31.9986H-0.0887518V27.9987Z" fill="#3B64CE"/>
<path d="M-4.06108 27.9987H-0.0904865V31.9986H-4.06108V27.9987Z" fill="#3B64CE"/>
<path d="M115.06 32.0002H119.031V36.0001H115.06V32.0002Z" fill="#3B64CE"/>
<path d="M111.087 32.0002H115.057V36.0001H111.087V32.0002Z" fill="#7291E3"/>
<path d="M107.118 32.0002H111.089V36.0001H107.118V32.0002Z" fill="#7291E3"/>
<path d="M103.147 32.0002H107.118V36.0001H103.147V32.0002Z" fill="#7291E3"/>
<path d="M99.1764 32.0002H103.147V36.0001H99.1764V32.0002Z" fill="#3B64CE"/>
<path d="M95.2069 32.0002H99.1775V36.0001H95.2069V32.0002Z" fill="#7291E3"/>
<path d="M91.2375 32.0002H95.2081V36.0001H91.2375V32.0002Z" fill="#7291E3"/>
<path d="M87.2651 32.0002H91.2357V36.0001H87.2651V32.0002Z" fill="#7291E3"/>
<path d="M83.2928 32.0002H87.2634V36.0001H83.2928V32.0002Z" fill="#7291E3"/>
<path d="M79.3224 32.0002H83.2928V36.0001H79.3224V32.0002Z" fill="#7291E3"/>
<path d="M75.351 32.0002H79.3224V36.0001H75.351V32.0002Z" fill="#7291E3"/>
<path d="M71.3825 32.0002H75.3531V36.0001H71.3825V32.0002Z" fill="#7291E3"/>
<path d="M67.4111 32.0002H71.3825V36.0001H67.4111V32.0002Z" fill="#3B64CE"/>
<path d="M63.4398 32.0002H67.4111V36.0001H63.4398V32.0002Z" fill="#3B64CE"/>
<path d="M59.4703 32.0002H63.4409V36.0001H59.4703V32.0002Z" fill="#7291E3"/>
<path d="M55.498 32.0002H59.4686V36.0001H55.498V32.0002Z" fill="#7291E3"/>
<path d="M51.5314 32.0002H55.502V36.0001H51.5314V32.0002Z" fill="#7291E3"/>
<path d="M47.56 32.0002H51.5314V36.0001H47.56V32.0002Z" fill="#7291E3"/>
<path d="M43.5877 32.0002H47.5583V36.0001H43.5877V32.0002Z" fill="#7291E3"/>
<path d="M39.6173 32.0002H43.5877V36.0001H39.6173V32.0002Z" fill="#7291E3"/>
<path d="M35.6478 32.0002H39.6184V36.0001H35.6478V32.0002Z" fill="#7291E3"/>
<path d="M31.6746 32.0002H35.6451V36.0001H31.6746V32.0002Z" fill="#3B64CE"/>
<path d="M27.7061 32.0002H31.6767V36.0001H27.7061V32.0002Z" fill="#7291E3"/>
<path d="M23.7347 32.0002H27.7061V36.0001H23.7347V32.0002Z" fill="#7291E3"/>
<path d="M19.7652 32.0002H23.7358V36.0001H19.7652V32.0002Z" fill="#3B64CE"/>
<path d="M15.7919 32.0002H19.7625V36.0001H15.7919V32.0002Z" fill="#3B64CE"/>
<path d="M11.8225 32.0002H15.7931V36.0001H11.8225V32.0002Z" fill="#7291E3"/>
<path d="M7.85207 32.0002H11.8225V36.0001H7.85207V32.0002Z" fill="#7291E3"/>
<path d="M3.8807 32.0002H7.85207V36.0001H3.8807V32.0002Z" fill="#7291E3"/>
<path d="M-0.0887518 32.0002H3.88184V36.0001H-0.0887518V32.0002Z" fill="#7291E3"/>
<path d="M-4.06108 32.0002H-0.0904865V36.0001H-4.06108V32.0002Z" fill="#7291E3"/>
<path d="M-8.02959 32.0002H-4.05899V36.0001H-8.02959V32.0002Z" fill="#3B64CE"/>
<path d="M119.029 35.9992H123V39.9992H119.029V35.9992Z" fill="#3B64CE"/>
<path d="M115.06 36.0001H119.031V39.9992H115.06V36.0001Z" fill="#3B64CE"/>
<path d="M111.087 36.0001H115.057V39.9992H111.087V36.0001Z" fill="#3B64CE"/>
<path d="M107.118 36.0001H111.089V39.9992H107.118V36.0001Z" fill="#3B64CE"/>
<path d="M103.147 36.0001L107.117 35.9992L107.118 39.9992H103.147V36.0001Z" fill="#7291E3"/>
<path d="M99.1764 36.0001H103.147V39.9992H99.1764V36.0001Z" fill="#3B64CE"/>
<path d="M95.2069 36.0001H99.1775V39.9992H95.2069V36.0001Z" fill="#7291E3"/>
<path d="M91.2375 36.0001H95.2081V39.9992H91.2375V36.0001Z" fill="#7291E3"/>
<path d="M87.2651 36.0001H91.2357V39.9992H87.2651V36.0001Z" fill="#7291E3"/>
<path d="M83.2928 36.0001H87.2634V39.9992H83.2928V36.0001Z" fill="#7291E3"/>
<path d="M79.3224 36.0001H83.2928V39.9992H79.3224V36.0001Z" fill="#7291E3"/>
<path d="M75.351 36.0001L79.3216 35.9992L79.3224 39.9992H75.351V36.0001Z" fill="#7291E3"/>
<path d="M71.3825 36.0001H75.3531V39.9992H71.3825V36.0001Z" fill="#7291E3"/>
<path d="M67.4111 36.0001L71.3817 35.9992L71.3825 39.9992H67.4111V36.0001Z" fill="#7291E3"/>
<path d="M63.4398 36.0001L67.4104 35.9992L67.4111 39.9992H63.4398V36.0001Z" fill="#7291E3"/>
<path d="M59.4703 36.0001H63.4409V39.9992H59.4703V36.0001Z" fill="#7291E3"/>
<path d="M55.498 36.0001H59.4686V39.9992H55.498V36.0001Z" fill="#7291E3"/>
<path d="M51.5314 36.0001H55.502V39.9992H51.5314V36.0001Z" fill="#7291E3"/>
<path d="M47.56 36.0001L51.5306 35.9992L51.5314 39.9992H47.56V36.0001Z" fill="#7291E3"/>
<path d="M43.5877 36.0001H47.5583V39.9992H43.5877V36.0001Z" fill="#7291E3"/>
<path d="M39.6173 36.0001H43.5877V39.9992H39.6173V36.0001Z" fill="#7291E3"/>
<path d="M35.6478 36.0001H39.6184V39.9992H35.6478V36.0001Z" fill="#7291E3"/>
<path d="M31.6746 36.0001H35.6451V39.9992H31.6746V36.0001Z" fill="#7291E3"/>
<path d="M27.7061 36.0001H31.6767V39.9992H27.7061V36.0001Z" fill="#3B64CE"/>
<path d="M23.7347 36.0001L27.7053 35.9992L27.7061 39.9992H23.7347V36.0001Z" fill="#7291E3"/>
<path d="M19.7652 36.0001H23.7358V39.9992H19.7652V36.0001Z" fill="#7291E3"/>
<path d="M15.7919 36.0001H19.7625V39.9992H15.7919V36.0001Z" fill="#7291E3"/>
<path d="M11.8225 36.0001H15.7931V39.9992H11.8225V36.0001Z" fill="#7291E3"/>
<path d="M7.85207 36.0001H11.8225V39.9992H7.85207V36.0001Z" fill="#3B64CE"/>
<path d="M3.8807 36.0001L7.8513 35.9992L7.85207 39.9992H3.8807V36.0001Z" fill="#3B64CE"/>
<path d="M-0.0887518 36.0001H3.88184V39.9992H-0.0887518V36.0001Z" fill="#3B64CE"/>
<path d="M-4.06108 36.0001H-0.0904865V39.9992H-4.06108V36.0001Z" fill="#3B64CE"/>
<path d="M-8.02959 36.0001H-4.05899V39.9992H-8.02959V36.0001Z" fill="#3B64CE"/>
<path d="M-12 35.9992L-8.02959 36.0001V39.9992H-12V35.9992Z" fill="#3B64CE"/>
<path d="M119.029 40.0019H123V44.0019H119.029V40.0019Z" fill="#3B64CE"/>
<path d="M115.06 40.0019H119.031V44.0019H115.06V40.0019Z" fill="#7291E3"/>
<path d="M111.087 40.0019H115.057V44.0019H111.087V40.0019Z" fill="#7291E3"/>
<path d="M107.118 40.0019H111.089V44.0019H107.118V40.0019Z" fill="#7291E3"/>
<path d="M103.147 40.0019H107.118V44.0019H103.147V40.0019Z" fill="#3B64CE"/>
<path d="M99.1764 40.0019H103.147V44.0019H99.1764V40.0019Z" fill="#3B64CE"/>
<path d="M95.2069 40.0019H99.1775V44.0019H95.2069V40.0019Z" fill="#7291E3"/>
<path d="M91.2375 40.0019H95.2081V44.0019H91.2375V40.0019Z" fill="#7291E3"/>
<path d="M87.2651 40.0019H91.2357V44.0019H87.2651V40.0019Z" fill="#7291E3"/>
<path d="M83.2928 40.0019H87.2634V44.0019H83.2928V40.0019Z" fill="#7291E3"/>
<path d="M79.3224 40.0019H83.2928V44.0019H79.3224V40.0019Z" fill="#7291E3"/>
<path d="M75.351 40.0019H79.3224V44.0019H75.351V40.0019Z" fill="#7291E3"/>
<path d="M71.3825 40.0019H75.3531V44.0019H71.3825V40.0019Z" fill="#7291E3"/>
<path d="M67.4111 40.0019H71.3825V44.0019H67.4111V40.0019Z" fill="#7291E3"/>
<path d="M63.4398 40.0019H67.4111V44.0019H63.4398V40.0019Z" fill="#7291E3"/>
<path d="M59.4703 40.0019H63.4409V44.0019H59.4703V40.0019Z" fill="#7291E3"/>
<path d="M55.498 40.0019H59.4686V44.0019H55.498V40.0019Z" fill="#7291E3"/>
<path d="M51.5314 40.0019H55.502V44.0019H51.5314V40.0019Z" fill="#7291E3"/>
<path d="M47.56 40.0019H51.5314V44.0019H47.56V40.0019Z" fill="#7291E3"/>
<path d="M43.5877 40.0019H47.5583V44.0019H43.5877V40.0019Z" fill="#7291E3"/>
<path d="M39.6173 40.0019H43.5877V44.0019H39.6173V40.0019Z" fill="#7291E3"/>
<path d="M35.6478 40.0019H39.6184V44.0019H35.6478V40.0019Z" fill="#7291E3"/>
<path d="M31.6746 40.0019H35.6451V44.0019H31.6746V40.0019Z" fill="#7291E3"/>
<path d="M27.7061 40.0019H31.6767V44.0019H27.7061V40.0019Z" fill="#3B64CE"/>
<path d="M23.7347 40.0019H27.7061V44.0019H23.7347V40.0019Z" fill="#7291E3"/>
<path d="M19.7652 40.0019H23.7358V44.0019H19.7652V40.0019Z" fill="#7291E3"/>
<path d="M15.7919 40.0019H19.7625V44.0019H15.7919V40.0019Z" fill="#7291E3"/>
<path d="M11.8225 40.0019H15.7931V44.0019H11.8225V40.0019Z" fill="#3B64CE"/>
<path d="M7.85207 40.0019H11.8225V44.0019H7.85207V40.0019Z" fill="#7291E3"/>
<path d="M3.8807 40.0019H7.85207V44.0019H3.8807V40.0019Z" fill="#7291E3"/>
<path d="M-0.0887518 40.0019H3.88184V44.0019H-0.0887518V40.0019Z" fill="#7291E3"/>
<path d="M-4.06108 40.0019H-0.0904865V44.0019H-4.06108V40.0019Z" fill="#7291E3"/>
<path d="M-8.02959 40.0019H-4.05899V44.0019H-8.02959V40.0019Z" fill="#7291E3"/>
<path d="M-12 40.0019H-8.02959V44.0019H-12V40.0019Z" fill="#3B64CE"/>
<path d="M119.029 44.0019H123V48.0017H119.029V44.0019Z" fill="#3B64CE"/>
<path d="M115.06 44.0019H119.031V48.0017H115.06V44.0019Z" fill="#7291E3"/>
<path d="M111.087 44.0019H115.057V48.0017H111.087V44.0019Z" fill="#7291E3"/>
<path d="M107.118 44.0019H111.089V48.0017H107.118V44.0019Z" fill="#7291E3"/>
<path d="M103.147 44.0019H107.118V48.0017H103.147V44.0019Z" fill="#7291E3"/>
<path d="M99.1764 44.0019H103.147V48.0017H99.1764V44.0019Z" fill="#7291E3"/>
<path d="M95.2069 44.0019H99.1775V48.0017H95.2069V44.0019Z" fill="#3B64CE"/>
<path d="M91.2375 44.0019H95.2081V48.0017H91.2375V44.0019Z" fill="#7291E3"/>
<path d="M87.2651 44.0019H91.2357V48.0017H87.2651V44.0019Z" fill="#7291E3"/>
<path d="M83.2928 44.0019H87.2634V48.0017H83.2928V44.0019Z" fill="#7291E3"/>
<path d="M79.3224 44.0019H83.2928V48.0017H79.3224V44.0019Z" fill="#7291E3"/>
<path d="M75.351 44.0019H79.3224V48.0017H75.351V44.0019Z" fill="#7291E3"/>
<path d="M71.3825 44.0019H75.3531V48.0017H71.3825V44.0019Z" fill="#7291E3"/>
<path d="M67.4111 44.0019H71.3825V48.0017H67.4111V44.0019Z" fill="#7291E3"/>
<path d="M63.4398 44.0019H67.4111V48.0017H63.4398V44.0019Z" fill="#7291E3"/>
<path d="M59.4703 44.0019H63.4409V48.0017H59.4703V44.0019Z" fill="#7291E3"/>
<path d="M55.498 44.0019H59.4686V48.0017H55.498V44.0019Z" fill="#7291E3"/>
<path d="M51.5314 44.0019H55.502V48.0017H51.5314V44.0019Z" fill="#7291E3"/>
<path d="M47.56 44.0019H51.5314V48.0017H47.56V44.0019Z" fill="#7291E3"/>
<path d="M43.5877 44.0019H47.5583V48.0017H43.5877V44.0019Z" fill="#7291E3"/>
<path d="M39.6173 44.0019H43.5877V48.0017H39.6173V44.0019Z" fill="#7291E3"/>
<path d="M35.6478 44.0019H39.6184V48.0017H35.6478V44.0019Z" fill="#7291E3"/>
<path d="M31.6746 44.0019H35.6451V48.0017H31.6746V44.0019Z" fill="#7291E3"/>
<path d="M27.7061 44.0019H31.6767V48.0017H27.7061V44.0019Z" fill="#3B64CE"/>
<path d="M23.7347 44.0019H27.7061V48.0017H23.7347V44.0019Z" fill="#7291E3"/>
<path d="M19.7652 44.0019H23.7358V48.0017H19.7652V44.0019Z" fill="#7291E3"/>
<path d="M15.7919 44.0019H19.7625V48.0017H15.7919V44.0019Z" fill="#3B64CE"/>
<path d="M11.8225 44.0019H15.7931V48.0017H11.8225V44.0019Z" fill="#7291E3"/>
<path d="M7.85207 44.0019H11.8225V48.0017H7.85207V44.0019Z" fill="#7291E3"/>
<path d="M3.8807 44.0019H7.85207V48.0017H3.8807V44.0019Z" fill="#7291E3"/>
<path d="M-0.0887518 44.0019H3.88184V48.0017H-0.0887518V44.0019Z" fill="#3B64CE"/>
<path d="M-4.06108 44.0019H-0.0904865V48.0017H-4.06108V44.0019Z" fill="#3B64CE"/>
<path d="M-8.02959 44.0019H-4.05899V48.0017H-8.02959V44.0019Z" fill="#7291E3"/>
<path d="M-12 44.0019H-8.02959V48.0017H-12V44.0019Z" fill="#3B64CE"/>
<path d="M119.029 48.0006H123V52.0006H119.029V48.0006Z" fill="#3B64CE"/>
<path d="M115.06 48.0006H119.031V52.0006H115.06V48.0006Z" fill="#7291E3"/>
<path d="M111.087 48.0006H115.057V52.0006H111.087V48.0006Z" fill="#7291E3"/>
<path d="M107.118 48.0006H111.089V52.0006H107.118V48.0006Z" fill="#3B64CE"/>
<path d="M103.147 48.0006H107.118V52.0006H103.147V48.0006Z" fill="#3B64CE"/>
<path d="M99.1764 48.0006H103.147V52.0006H99.1764V48.0006Z" fill="#7291E3"/>
<path d="M95.2069 48.0006H99.1775V52.0006H95.2069V48.0006Z" fill="#3B64CE"/>
<path d="M91.2375 48.0006H95.2081V52.0006H91.2375V48.0006Z" fill="#7291E3"/>
<path d="M87.2651 48.0006H91.2357V52.0006H87.2651V48.0006Z" fill="#3B64CE"/>
<path d="M83.2928 48.0006H87.2634V52.0006H83.2928V48.0006Z" fill="#3B64CE"/>
<path d="M79.3224 48.0006H83.2928V52.0006H79.3224V48.0006Z" fill="#3B64CE"/>
<path d="M75.351 48.0006H79.3224V52.0006H75.351V48.0006Z" fill="#3B64CE"/>
<path d="M71.3825 48.0006H75.3531V52.0006H71.3825V48.0006Z" fill="#7291E3"/>
<path d="M67.4111 48.0006H71.3825V52.0006H67.4111V48.0006Z" fill="#7291E3"/>
<path d="M63.4398 48.0006H67.4111V52.0006H63.4398V48.0006Z" fill="#7291E3"/>
<path d="M59.4703 48.0006H63.4409V52.0006H59.4703V48.0006Z" fill="#7291E3"/>
<path d="M55.498 48.0006H59.4686V52.0006H55.498V48.0006Z" fill="#3B64CE"/>
<path d="M51.5314 48.0006H55.502V52.0006H51.5314V48.0006Z" fill="#3B64CE"/>
<path d="M47.56 48.0006H51.5314V52.0006H47.56V48.0006Z" fill="#3B64CE"/>
<path d="M43.5877 48.0006H47.5583V52.0006H43.5877V48.0006Z" fill="#3B64CE"/>
<path d="M39.6173 48.0006H43.5877V52.0006H39.6173V48.0006Z" fill="#7291E3"/>
<path d="M35.6478 48.0006H39.6184V52.0006H35.6478V48.0006Z" fill="#7291E3"/>
<path d="M31.6746 48.0006H35.6451V52.0006H31.6746V48.0006Z" fill="#7291E3"/>
<path d="M27.7061 48.0006H31.6767V52.0006H27.7061V48.0006Z" fill="#3B64CE"/>
<path d="M23.7347 48.0006H27.7061V52.0006H23.7347V48.0006Z" fill="#7291E3"/>
<path d="M19.7652 48.0006H23.7358V52.0006H19.7652V48.0006Z" fill="#7291E3"/>
<path d="M15.7919 48.0006H19.7625V52.0006H15.7919V48.0006Z" fill="#3B64CE"/>
<path d="M11.8225 48.0006H15.7931V52.0006H11.8225V48.0006Z" fill="#7291E3"/>
<path d="M7.85207 48.0006H11.8225V52.0006H7.85207V48.0006Z" fill="#7291E3"/>
<path d="M3.8807 48.0006H7.85207V52.0006H3.8807V48.0006Z" fill="#3B64CE"/>
<path d="M-0.0887518 48.0006H3.88184V52.0006H-0.0887518V48.0006Z" fill="#3B64CE"/>
<path d="M-4.06108 48.0006H-0.0904865V52.0006H-4.06108V48.0006Z" fill="#7291E3"/>
<path d="M-8.02959 48.0006H-4.05899V52.0006H-8.02959V48.0006Z" fill="#7291E3"/>
<path d="M-12 48.0006H-8.02959V52.0006H-12V48.0006Z" fill="#3B64CE"/>
<path d="M119.029 52.0006H123V56.0006H119.029V52.0006Z" fill="#3B64CE"/>
<path d="M115.06 52.0006H119.031V56.0006H115.06V52.0006Z" fill="#7291E3"/>
<path d="M111.087 52.0006H115.057V56.0006H111.087V52.0006Z" fill="#7291E3"/>
<path d="M107.118 52.0006H111.089V56.0006H107.118V52.0006Z" fill="#7291E3"/>
<path d="M103.147 52.0006H107.118V56.0006H103.147V52.0006Z" fill="#3B64CE"/>
<path d="M99.1764 52.0006H103.147V56.0006H99.1764V52.0006Z" fill="#3B64CE"/>
<path d="M95.2069 52.0006H99.1775V56.0006H95.2069V52.0006Z" fill="#3B64CE"/>
<path d="M91.2375 52.0006H95.2081V56.0006H91.2375V52.0006Z" fill="#3B64CE"/>
<path d="M87.2651 52.0006H91.2357V56.0006H87.2651V52.0006Z" fill="#7291E3"/>
<path d="M83.2928 52.0006H87.2634V56.0006H83.2928V52.0006Z" fill="#3B64CE"/>
<path d="M79.3224 52.0006H83.2928V56.0006H79.3224V52.0006Z" fill="#3B64CE"/>
<path d="M75.351 52.0006H79.3224V56.0006H75.351V52.0006Z" fill="#7291E3"/>
<path d="M71.3825 52.0006H75.3531V56.0006H71.3825V52.0006Z" fill="#7291E3"/>
<path d="M67.4111 52.0006H71.3825V56.0006H67.4111V52.0006Z" fill="#7291E3"/>
<path d="M63.4398 52.0006H67.4111V56.0006H63.4398V52.0006Z" fill="#7291E3"/>
<path d="M59.4703 52.0006H63.4409V56.0006H59.4703V52.0006Z" fill="#7291E3"/>
<path d="M55.498 52.0006H59.4686V56.0006H55.498V52.0006Z" fill="#7291E3"/>
<path d="M51.5314 52.0006H55.502V56.0006H51.5314V52.0006Z" fill="#3B64CE"/>
<path d="M47.56 52.0006H51.5314V56.0006H47.56V52.0006Z" fill="#3B64CE"/>
<path d="M43.5877 52.0006H47.5583V56.0006H43.5877V52.0006Z" fill="#7291E3"/>
<path d="M39.6173 52.0006H43.5877V56.0006H39.6173V52.0006Z" fill="#3B64CE"/>
<path d="M35.6478 52.0006H39.6184V56.0006H35.6478V52.0006Z" fill="#7291E3"/>
<path d="M31.6746 52.0006H35.6451V56.0006H31.6746V52.0006Z" fill="#7291E3"/>
<path d="M27.7061 52.0006H31.6767V56.0006H27.7061V52.0006Z" fill="#3B64CE"/>
<path d="M23.7347 52.0006H27.7061V56.0006H23.7347V52.0006Z" fill="#7291E3"/>
<path d="M19.7652 52.0006H23.7358V56.0006H19.7652V52.0006Z" fill="#7291E3"/>
<path d="M15.7919 52.0006H19.7625V56.0006H15.7919V52.0006Z" fill="#3B64CE"/>
<path d="M11.8225 52.0006H15.7931V56.0006H11.8225V52.0006Z" fill="#7291E3"/>
<path d="M7.85207 52.0006H11.8225V56.0006H7.85207V52.0006Z" fill="#3B64CE"/>
<path d="M3.8807 52.0006H7.85207V56.0006H3.8807V52.0006Z" fill="#7291E3"/>
<path d="M-0.0887518 52.0006H3.88184V56.0006H-0.0887518V52.0006Z" fill="#7291E3"/>
<path d="M-4.06108 52.0006H-0.0904865V56.0006H-4.06108V52.0006Z" fill="#3B64CE"/>
<path d="M-8.02959 52.0006H-4.05899V56.0006H-8.02959V52.0006Z" fill="#7291E3"/>
<path d="M-12 52.0006H-8.02959V56.0006H-12V52.0006Z" fill="#3B64CE"/>
<path d="M119.029 56.0006H123V60H119.029V56.0006Z" fill="#3B64CE"/>
<path d="M115.06 56.0006H119.031V60H115.06V56.0006Z" fill="#7291E3"/>
<path d="M111.087 56.0006H115.057V60H111.087V56.0006Z" fill="#7291E3"/>
<path d="M107.118 56.0006H111.089V60H107.118V56.0006Z" fill="#3B64CE"/>
<path d="M103.147 56.0006L107.117 56L107.118 60H103.147V56.0006Z" fill="#7291E3"/>
<path d="M99.1764 56.0006H103.147V60H99.1764V56.0006Z" fill="#7291E3"/>
<path d="M95.2069 56.0006H99.1775V60H95.2069V56.0006Z" fill="#3B64CE"/>
<path d="M91.2375 56.0006H95.2081V60H91.2375V56.0006Z" fill="#7291E3"/>
<path d="M87.2651 56.0006H91.2357V60H87.2651V56.0006Z" fill="#7291E3"/>
<path d="M83.2928 56.0006H87.2634V60H83.2928V56.0006Z" fill="#7291E3"/>
<path d="M79.3224 56.0006H83.2928V60H79.3224V56.0006Z" fill="#7291E3"/>
<path d="M75.351 56.0006L79.3216 56L79.3224 60H75.351V56.0006Z" fill="#7291E3"/>
<path d="M71.3825 56.0006H75.3531V60H71.3825V56.0006Z" fill="#7291E3"/>
<path d="M67.4111 56.0006L71.3817 56L71.3825 60H67.4111V56.0006Z" fill="#7291E3"/>
<path d="M63.4398 56.0006L67.4104 56L67.4111 60H63.4398V56.0006Z" fill="#7291E3"/>
<path d="M59.4703 56.0006H63.4409V60H59.4703V56.0006Z" fill="#7291E3"/>
<path d="M55.498 56.0006H59.4686V60H55.498V56.0006Z" fill="#7291E3"/>
<path d="M51.5314 56.0006H55.502V60H51.5314V56.0006Z" fill="#7291E3"/>
<path d="M47.56 56.0006L51.5306 56L51.5314 60H47.56V56.0006Z" fill="#7291E3"/>
<path d="M43.5877 56.0006H47.5583V60H43.5877V56.0006Z" fill="#7291E3"/>
<path d="M39.6173 56.0006H43.5877V60H39.6173V56.0006Z" fill="#7291E3"/>
<path d="M35.6478 56.0006H39.6184V60H35.6478V56.0006Z" fill="#7291E3"/>
<path d="M31.6746 56.0006H35.6451V60H31.6746V56.0006Z" fill="#3B64CE"/>
<path d="M27.7061 56.0006H31.6767V60H27.7061V56.0006Z" fill="#7291E3"/>
<path d="M23.7347 56.0006L27.7053 56L27.7061 60H23.7347V56.0006Z" fill="#7291E3"/>
<path d="M19.7652 56.0006H23.7358V60H19.7652V56.0006Z" fill="#7291E3"/>
<path d="M15.7919 56.0006H19.7625V60H15.7919V56.0006Z" fill="#3B64CE"/>
<path d="M11.8225 56.0006H15.7931V60H11.8225V56.0006Z" fill="#7291E3"/>
<path d="M7.85207 56.0006H11.8225V60H7.85207V56.0006Z" fill="#7291E3"/>
<path d="M3.8807 56.0006L7.8513 56L7.85207 60H3.8807V56.0006Z" fill="#7291E3"/>
<path d="M-0.0887518 56.0006H3.88184V60H-0.0887518V56.0006Z" fill="#7291E3"/>
<path d="M-4.06108 56.0006H-0.0904865V60H-4.06108V56.0006Z" fill="#7291E3"/>
<path d="M-8.02959 56.0006H-4.05899V60H-8.02959V56.0006Z" fill="#7291E3"/>
<path d="M-12 56.0006H-8.02959V60H-12V56.0006Z" fill="#3B64CE"/>
<path d="M115.06 60H119.031V63.9998H115.06V60Z" fill="#3B64CE"/>
<path d="M111.087 60H115.057V63.9998H111.087V60Z" fill="#7291E3"/>
<path d="M107.118 60H111.089V63.9998H107.118V60Z" fill="#3B64CE"/>
<path d="M103.147 60H107.118V63.9998H103.147V60Z" fill="#7291E3"/>
<path d="M99.1764 60H103.147V63.9998H99.1764V60Z" fill="#7291E3"/>
<path d="M95.2069 60H99.1775V63.9998H95.2069V60Z" fill="#3B64CE"/>
<path d="M91.2375 60H95.2081V63.9998H91.2375V60Z" fill="#3B64CE"/>
<path d="M87.2651 60H91.2357V63.9998H87.2651V60Z" fill="#7291E3"/>
<path d="M83.2928 60H87.2634V63.9998H83.2928V60Z" fill="#7291E3"/>
<path d="M79.3224 60H83.2928V63.9998H79.3224V60Z" fill="#7291E3"/>
<path d="M75.351 60H79.3224V63.9998H75.351V60Z" fill="#3B64CE"/>
<path d="M71.3825 60H75.3531V63.9998H71.3825V60Z" fill="#3B64CE"/>
<path d="M67.4111 60H71.3825V63.9998H67.4111V60Z" fill="#3B64CE"/>
<path d="M63.4398 60H67.4111V63.9998H63.4398V60Z" fill="#3B64CE"/>
<path d="M59.4703 60H63.4409V63.9998H59.4703V60Z" fill="#3B64CE"/>
<path d="M55.498 60H59.4686V63.9998H55.498V60Z" fill="#3B64CE"/>
<path d="M51.5314 60H55.502V63.9998H51.5314V60Z" fill="#7291E3"/>
<path d="M47.56 60H51.5314V63.9998H47.56V60Z" fill="#7291E3"/>
<path d="M43.5877 60H47.5583V63.9998H43.5877V60Z" fill="#7291E3"/>
<path d="M39.6173 60H43.5877V63.9998H39.6173V60Z" fill="#7291E3"/>
<path d="M35.6478 60H39.6184V63.9998H35.6478V60Z" fill="#3B64CE"/>
<path d="M31.6746 60H35.6451V63.9998H31.6746V60Z" fill="#7291E3"/>
<path d="M27.7061 60H31.6767V63.9998H27.7061V60Z" fill="#7291E3"/>
<path d="M23.7347 60H27.7061V63.9998H23.7347V60Z" fill="#7291E3"/>
<path d="M19.7652 60H23.7358V63.9998H19.7652V60Z" fill="#7291E3"/>
<path d="M15.7919 60H19.7625V63.9998H15.7919V60Z" fill="#3B64CE"/>
<path d="M11.8225 60H15.7931V63.9998H11.8225V60Z" fill="#7291E3"/>
<path d="M7.85207 60H11.8225V63.9998H7.85207V60Z" fill="#7291E3"/>
<path d="M3.8807 60H7.85207V63.9998H3.8807V60Z" fill="#3B64CE"/>
<path d="M-0.0887518 60H3.88184V63.9998H-0.0887518V60Z" fill="#7291E3"/>
<path d="M-4.06108 60H-0.0904865V63.9998H-4.06108V60Z" fill="#7291E3"/>
<path d="M-8.02959 60H-4.05899V63.9998H-8.02959V60Z" fill="#7291E3"/>
<path d="M-12 60H-8.02959V63.9998H-12V60Z" fill="#3B64CE"/>
<path d="M115.06 63.9998H119.031V68.0003H115.06V63.9998Z" fill="#3B64CE"/>
<path d="M111.087 63.9998H115.057V68.0003H111.087V63.9998Z" fill="#7291E3"/>
<path d="M107.118 63.9998H111.089V68.0003H107.118V63.9998Z" fill="#7291E3"/>
<path d="M103.147 63.9998L107.117 64.0003L107.118 68.0003H103.147V63.9998Z" fill="#3B64CE"/>
<path d="M99.1764 63.9998H103.147V68.0003H99.1764V63.9998Z" fill="#7291E3"/>
<path d="M95.2069 63.9998H99.1775V68.0003H95.2069V63.9998Z" fill="#3B64CE"/>
<path d="M91.2375 63.9998H95.2081V68.0003H91.2375V63.9998Z" fill="#7291E3"/>
<path d="M87.2651 63.9998H91.2357V68.0003H87.2651V63.9998Z" fill="#3B64CE"/>
<path d="M83.2928 63.9998H87.2634V68.0003H83.2928V63.9998Z" fill="#7291E3"/>
<path d="M79.3224 63.9998H83.2928V68.0003H79.3224V63.9998Z" fill="#3B64CE"/>
<path d="M75.351 63.9998L79.3216 64.0003L79.3224 68.0003H75.351V63.9998Z" fill="#7291E3"/>
<path d="M71.3825 63.9998H75.3531V68.0003H71.3825V63.9998Z" fill="#7291E3"/>
<path d="M67.4111 63.9998L71.3817 64.0003L71.3825 68.0003H67.4111V63.9998Z" fill="#7291E3"/>
<path d="M63.4398 63.9998L67.4104 64.0003L67.4111 68.0003H63.4398V63.9998Z" fill="#7291E3"/>
<path d="M59.4703 63.9998H63.4409V68.0003H59.4703V63.9998Z" fill="#7291E3"/>
<path d="M55.498 63.9998H59.4686V68.0003H55.498V63.9998Z" fill="#7291E3"/>
<path d="M51.5314 63.9998H55.502V68.0003H51.5314V63.9998Z" fill="#3B64CE"/>
<path d="M47.56 63.9998L51.5306 64.0003L51.5314 68.0003H47.56V63.9998Z" fill="#7291E3"/>
<path d="M43.5877 63.9998H47.5583V68.0003H43.5877V63.9998Z" fill="#3B64CE"/>
<path d="M39.6173 63.9998H43.5877V68.0003H39.6173V63.9998Z" fill="#3B64CE"/>
<path d="M35.6478 63.9998H39.6184V68.0003H35.6478V63.9998Z" fill="#7291E3"/>
<path d="M31.6746 63.9998H35.6451V68.0003H31.6746V63.9998Z" fill="#7291E3"/>
<path d="M27.7061 63.9998H31.6767V68.0003H27.7061V63.9998Z" fill="#7291E3"/>
<path d="M23.7347 63.9998L27.7053 64.0003L27.7061 68.0003H23.7347V63.9998Z" fill="#7291E3"/>
<path d="M19.7652 63.9998H23.7358V68.0003H19.7652V63.9998Z" fill="#7291E3"/>
<path d="M15.7919 63.9998H19.7625V68.0003H15.7919V63.9998Z" fill="#3B64CE"/>
<path d="M11.8225 63.9998H15.7931V68.0003H11.8225V63.9998Z" fill="#7291E3"/>
<path d="M7.85207 63.9998H11.8225V68.0003H7.85207V63.9998Z" fill="#7291E3"/>
<path d="M3.8807 63.9998L7.8513 64.0003L7.85207 68.0003H3.8807V63.9998Z" fill="#7291E3"/>
<path d="M-0.0887518 63.9998H3.88184V68.0003H-0.0887518V63.9998Z" fill="#7291E3"/>
<path d="M-4.06108 63.9998H-0.0904865V68.0003H-4.06108V63.9998Z" fill="#7291E3"/>
<path d="M-8.02959 63.9998H-4.05899V68.0003H-8.02959V63.9998Z" fill="#3B64CE"/>
<path d="M111.087 68.0003H115.057V71.9999H111.087V68.0003Z" fill="#3B64CE"/>
<path d="M107.118 68.0003H111.089V71.9999H107.118V68.0003Z" fill="#7291E3"/>
<path d="M103.147 68.0003H107.118V71.9999H103.147V68.0003Z" fill="#7291E3"/>
<path d="M99.1764 68.0003H103.147V71.9999H99.1764V68.0003Z" fill="#7291E3"/>
<path d="M95.2069 68.0003H99.1775V71.9999H95.2069V68.0003Z" fill="#3B64CE"/>
<path d="M91.2375 68.0003H95.2081V71.9999H91.2375V68.0003Z" fill="#7291E3"/>
<path d="M87.2651 68.0003H91.2357V71.9999H87.2651V68.0003Z" fill="#3B64CE"/>
<path d="M83.2928 68.0003H87.2634V71.9999H83.2928V68.0003Z" fill="#7291E3"/>
<path d="M79.3224 68.0003H83.2928V71.9999H79.3224V68.0003Z" fill="#7291E3"/>
<path d="M75.351 68.0003H79.3224V71.9999H75.351V68.0003Z" fill="#3B64CE"/>
<path d="M71.3825 68.0003H75.3531V71.9999H71.3825V68.0003Z" fill="#3B64CE"/>
<path d="M67.4111 68.0003H71.3825V71.9999H67.4111V68.0003Z" fill="#7291E3"/>
<path d="M63.4398 68.0003H67.4111V71.9999H63.4398V68.0003Z" fill="#3B64CE"/>
<path d="M59.4703 68.0003H63.4409V71.9999H59.4703V68.0003Z" fill="#3B64CE"/>
<path d="M55.498 68.0003H59.4686V71.9999H55.498V68.0003Z" fill="#7291E3"/>
<path d="M51.5314 68.0003H55.502V71.9999H51.5314V68.0003Z" fill="#7291E3"/>
<path d="M47.56 68.0003H51.5314V71.9999H47.56V68.0003Z" fill="#7291E3"/>
<path d="M43.5877 68.0003H47.5583V71.9999H43.5877V68.0003Z" fill="#3B64CE"/>
<path d="M39.6173 68.0003H43.5877V71.9999H39.6173V68.0003Z" fill="#7291E3"/>
<path d="M35.6478 68.0003H39.6184V71.9999H35.6478V68.0003Z" fill="#7291E3"/>
<path d="M31.6746 68.0003H35.6451V71.9999H31.6746V68.0003Z" fill="#7291E3"/>
<path d="M27.7061 68.0003H31.6767V71.9999H27.7061V68.0003Z" fill="#7291E3"/>
<path d="M23.7347 68.0003H27.7061V71.9999H23.7347V68.0003Z" fill="#7291E3"/>
<path d="M19.7652 68.0003H23.7358V71.9999H19.7652V68.0003Z" fill="#7291E3"/>
<path d="M15.7919 68.0003H19.7625V71.9999H15.7919V68.0003Z" fill="#7291E3"/>
<path d="M11.8225 68.0003H15.7931V71.9999H11.8225V68.0003Z" fill="#3B64CE"/>
<path d="M7.85207 68.0003H11.8225V71.9999H7.85207V68.0003Z" fill="#7291E3"/>
<path d="M3.8807 68.0003H7.85207V71.9999H3.8807V68.0003Z" fill="#7291E3"/>
<path d="M-0.0887518 68.0003H3.88184V71.9999H-0.0887518V68.0003Z" fill="#7291E3"/>
<path d="M-4.06108 68.0003H-0.0904865V71.9999H-4.06108V68.0003Z" fill="#3B64CE"/>
<path d="M107.118 71.9999H111.089V75.9992H107.118V71.9999Z" fill="#3B64CE"/>
<path d="M103.147 71.9999L107.117 71.9992L107.118 75.9992H103.147V71.9999Z" fill="#3B64CE"/>
<path d="M99.1764 71.9999H103.147V75.9992H99.1764V71.9999Z" fill="#3B64CE"/>
<path d="M95.2069 71.9999H99.1775V75.9992H95.2069V71.9999Z" fill="#3B64CE"/>
<path d="M91.2375 71.9999H95.2081V75.9992H91.2375V71.9999Z" fill="#3B64CE"/>
<path d="M87.2651 71.9999H91.2357V75.9992H87.2651V71.9999Z" fill="#7291E3"/>
<path d="M83.2928 71.9999H87.2634V75.9992H83.2928V71.9999Z" fill="#7291E3"/>
<path d="M79.3224 71.9999H83.2928V75.9992H79.3224V71.9999Z" fill="#7291E3"/>
<path d="M75.351 71.9999L79.3216 71.9992L79.3224 75.9992H75.351V71.9999Z" fill="#7291E3"/>
<path d="M71.3825 71.9999H75.3531V75.9992H71.3825V71.9999Z" fill="#3B64CE"/>
<path d="M67.4111 71.9999L71.3817 71.9992L71.3825 75.9992H67.4111V71.9999Z" fill="#7291E3"/>
<path d="M63.4398 71.9999L67.4104 71.9992L67.4111 75.9992H63.4398V71.9999Z" fill="#7291E3"/>
<path d="M59.4703 71.9999H63.4409V75.9992H59.4703V71.9999Z" fill="#7291E3"/>
<path d="M55.498 71.9999H59.4686V75.9992H55.498V71.9999Z" fill="#7291E3"/>
<path d="M51.5314 71.9999H55.502V75.9992H51.5314V71.9999Z" fill="#7291E3"/>
<path d="M47.56 71.9999L51.5306 71.9992L51.5314 75.9992H47.56V71.9999Z" fill="#7291E3"/>
<path d="M43.5877 71.9999H47.5583V75.9992H43.5877V71.9999Z" fill="#7291E3"/>
<path d="M39.6173 71.9999H43.5877V75.9992H39.6173V71.9999Z" fill="#3B64CE"/>
<path d="M35.6478 71.9999H39.6184V75.9992H35.6478V71.9999Z" fill="#7291E3"/>
<path d="M31.6746 71.9999H35.6451V75.9992H31.6746V71.9999Z" fill="#7291E3"/>
<path d="M27.7061 71.9999H31.6767V75.9992H27.7061V71.9999Z" fill="#7291E3"/>
<path d="M23.7347 71.9999L27.7053 71.9992L27.7061 75.9992H23.7347V71.9999Z" fill="#7291E3"/>
<path d="M19.7652 71.9999H23.7358V75.9992H19.7652V71.9999Z" fill="#7291E3"/>
<path d="M15.7919 71.9999H19.7625V75.9992H15.7919V71.9999Z" fill="#3B64CE"/>
<path d="M11.8225 71.9999H15.7931V75.9992H11.8225V71.9999Z" fill="#3B64CE"/>
<path d="M7.85207 71.9999H11.8225V75.9992H7.85207V71.9999Z" fill="#3B64CE"/>
<path d="M3.8807 71.9999L7.8513 71.9992L7.85207 75.9992H3.8807V71.9999Z" fill="#3B64CE"/>
<path d="M-0.0887518 71.9999H3.88184V75.9992H-0.0887518V71.9999Z" fill="#3B64CE"/>
<path d="M95.2069 75.9992H99.1775V80H95.2069V75.9992Z" fill="#3B64CE"/>
<path d="M91.2375 75.9992H95.2081V80H91.2375V75.9992Z" fill="#7291E3"/>
<path d="M87.2651 75.9992H91.2357V80H87.2651V75.9992Z" fill="#7291E3"/>
<path d="M83.2928 75.9992H87.2634V80H83.2928V75.9992Z" fill="#7291E3"/>
<path d="M79.3224 75.9992H83.2928V80H79.3224V75.9992Z" fill="#7291E3"/>
<path d="M75.351 75.9992L79.3216 76L79.3224 80H75.351V75.9992Z" fill="#7291E3"/>
<path d="M71.3825 75.9992H75.3531V80H71.3825V75.9992Z" fill="#7291E3"/>
<path d="M67.4111 75.9992L71.3817 76L71.3825 80H67.4111V75.9992Z" fill="#7291E3"/>
<path d="M63.4398 75.9992L67.4104 76L67.4111 80H63.4398V75.9992Z" fill="#7291E3"/>
<path d="M59.4703 75.9992H63.4409V80H59.4703V75.9992Z" fill="#7291E3"/>
<path d="M55.498 75.9992H59.4686V80H55.498V75.9992Z" fill="#7291E3"/>
<path d="M51.5314 75.9992H55.502V80H51.5314V75.9992Z" fill="#7291E3"/>
<path d="M47.56 75.9992L51.5306 76L51.5314 80H47.56V75.9992Z" fill="#7291E3"/>
<path d="M43.5877 75.9992H47.5583V80H43.5877V75.9992Z" fill="#7291E3"/>
<path d="M39.6173 75.9992H43.5877V80H39.6173V75.9992Z" fill="#7291E3"/>
<path d="M35.6478 75.9992H39.6184V80H35.6478V75.9992Z" fill="#3B64CE"/>
<path d="M31.6746 75.9992H35.6451V80H31.6746V75.9992Z" fill="#7291E3"/>
<path d="M27.7061 75.9992H31.6767V80H27.7061V75.9992Z" fill="#7291E3"/>
<path d="M23.7347 75.9992L27.7053 76L27.7061 80H23.7347V75.9992Z" fill="#7291E3"/>
<path d="M19.7652 75.9992H23.7358V80H19.7652V75.9992Z" fill="#7291E3"/>
<path d="M15.7919 75.9992H19.7625V80H15.7919V75.9992Z" fill="#3B64CE"/>
<path d="M99.1764 80.0003H103.147V84.0003H99.1764V80.0003Z" fill="#3B64CE"/>
<path d="M95.2069 80H99.1775V84.0003H95.2069V80Z" fill="#7291E3"/>
<path d="M91.2375 80H95.2081V84.0003H91.2375V80Z" fill="#7291E3"/>
<path d="M87.2651 80H91.2357V84.0003H87.2651V80Z" fill="#7291E3"/>
<path d="M83.2928 80H87.2634V84.0003H83.2928V80Z" fill="#7291E3"/>
<path d="M79.3224 80H83.2928V84.0003H79.3224V80Z" fill="#7291E3"/>
<path d="M75.351 80H79.3224V84.0003H75.351V80Z" fill="#7291E3"/>
<path d="M71.3825 80H75.3531V84.0003H71.3825V80Z" fill="#7291E3"/>
<path d="M67.4111 80H71.3825V84.0003H67.4111V80Z" fill="#7291E3"/>
<path d="M63.4398 80H67.4111V84.0003H63.4398V80Z" fill="#7291E3"/>
<path d="M59.4703 80H63.4409V84.0003H59.4703V80Z" fill="#7291E3"/>
<path d="M55.498 80H59.4686V84.0003H55.498V80Z" fill="#7291E3"/>
<path d="M51.5314 80H55.502V84.0003H51.5314V80Z" fill="#7291E3"/>
<path d="M47.56 80H51.5314V84.0003H47.56V80Z" fill="#7291E3"/>
<path d="M43.5877 80H47.5583V84.0003H43.5877V80Z" fill="#7291E3"/>
<path d="M39.6173 80H43.5877V84.0003H39.6173V80Z" fill="#7291E3"/>
<path d="M35.6478 80H39.6184V84.0003H35.6478V80Z" fill="#7291E3"/>
<path d="M31.6746 80H35.6451V84.0003H31.6746V80Z" fill="#3B64CE"/>
<path d="M27.7061 80H31.6767V84.0003H27.7061V80Z" fill="#7291E3"/>
<path d="M23.7347 80H27.7061V84.0003H23.7347V80Z" fill="#7291E3"/>
<path d="M19.7652 80H23.7358V84.0003H19.7652V80Z" fill="#7291E3"/>
<path d="M15.7919 80H19.7625V84.0003H15.7919V80Z" fill="#3B64CE"/>
<path d="M99.1764 83.9984H103.147V87.9984H99.1764V83.9984Z" fill="#3B64CE"/>
<path d="M95.2069 83.9984H99.1775V87.9984H95.2069V83.9984Z" fill="#7291E3"/>
<path d="M91.2375 83.9984H95.2081V87.9984H91.2375V83.9984Z" fill="#7291E3"/>
<path d="M87.2651 83.9984H91.2357V87.9984H87.2651V83.9984Z" fill="#7291E3"/>
<path d="M83.2928 83.9984H87.2634V87.9984H83.2928V83.9984Z" fill="#7291E3"/>
<path d="M79.3224 83.9984H83.2928V87.9984H79.3224V83.9984Z" fill="#7291E3"/>
<path d="M75.351 83.9984H79.3224V87.9984H75.351V83.9984Z" fill="#7291E3"/>
<path d="M71.3825 83.9984H75.3531V87.9984H71.3825V83.9984Z" fill="#7291E3"/>
<path d="M67.4111 83.9984H71.3825V87.9984H67.4111V83.9984Z" fill="#7291E3"/>
<path d="M63.4398 83.9984H67.4111V87.9984H63.4398V83.9984Z" fill="#7291E3"/>
<path d="M59.4703 83.9984H63.4409V87.9984H59.4703V83.9984Z" fill="#7291E3"/>
<path d="M55.498 83.9984H59.4686V87.9984H55.498V83.9984Z" fill="#7291E3"/>
<path d="M51.5314 83.9984H55.502V87.9984H51.5314V83.9984Z" fill="#7291E3"/>
<path d="M47.56 83.9984H51.5314V87.9984H47.56V83.9984Z" fill="#7291E3"/>
<path d="M43.5877 83.9984H47.5583V87.9984H43.5877V83.9984Z" fill="#7291E3"/>
<path d="M39.6173 83.9984H43.5877V87.9984H39.6173V83.9984Z" fill="#7291E3"/>
<path d="M35.6478 83.9984H39.6184V87.9984H35.6478V83.9984Z" fill="#7291E3"/>
<path d="M31.6746 83.9984H35.6451V87.9984H31.6746V83.9984Z" fill="#3B64CE"/>
<path d="M27.7061 83.9984H31.6767V87.9984H27.7061V83.9984Z" fill="#7291E3"/>
<path d="M23.7347 83.9984H27.7061V87.9984H23.7347V83.9984Z" fill="#7291E3"/>
<path d="M19.7652 83.9984H23.7358V87.9984H19.7652V83.9984Z" fill="#7291E3"/>
<path d="M15.7919 83.9984H19.7625V87.9984H15.7919V83.9984Z" fill="#3B64CE"/>
<path d="M99.1764 87.9999H103.147V91.9999H99.1764V87.9999Z" fill="#3B64CE"/>
<path d="M95.2069 87.9999H99.1775V91.9999H95.2069V87.9999Z" fill="#7291E3"/>
<path d="M91.2375 87.9999H95.2081V91.9999H91.2375V87.9999Z" fill="#7291E3"/>
<path d="M87.2651 87.9999H91.2357V91.9999H87.2651V87.9999Z" fill="#7291E3"/>
<path d="M83.2928 87.9999H87.2634V91.9999H83.2928V87.9999Z" fill="#7291E3"/>
<path d="M79.3224 87.9999H83.2928V91.9999H79.3224V87.9999Z" fill="#7291E3"/>
<path d="M75.351 87.9999H79.3224V91.9999H75.351V87.9999Z" fill="#7291E3"/>
<path d="M71.3825 87.9999H75.3531V91.9999H71.3825V87.9999Z" fill="#7291E3"/>
<path d="M67.4111 87.9999H71.3825V91.9999H67.4111V87.9999Z" fill="#7291E3"/>
<path d="M63.4398 87.9999H67.4111V91.9999H63.4398V87.9999Z" fill="#7291E3"/>
<path d="M59.4703 87.9999H63.4409V91.9999H59.4703V87.9999Z" fill="#7291E3"/>
<path d="M55.498 87.9999H59.4686V91.9999H55.498V87.9999Z" fill="#7291E3"/>
<path d="M51.5314 87.9999H55.502V91.9999H51.5314V87.9999Z" fill="#7291E3"/>
<path d="M47.56 87.9999H51.5314V91.9999H47.56V87.9999Z" fill="#7291E3"/>
<path d="M43.5877 87.9999H47.5583V91.9999H43.5877V87.9999Z" fill="#7291E3"/>
<path d="M39.6173 87.9999H43.5877V91.9999H39.6173V87.9999Z" fill="#7291E3"/>
<path d="M35.6478 87.9999H39.6184V91.9999H35.6478V87.9999Z" fill="#7291E3"/>
<path d="M31.6746 87.9999H35.6451V91.9999H31.6746V87.9999Z" fill="#7291E3"/>
<path d="M27.7061 87.9999H31.6767V91.9999H27.7061V87.9999Z" fill="#3B64CE"/>
<path d="M23.7347 87.9999H27.7061V91.9999H23.7347V87.9999Z" fill="#7291E3"/>
<path d="M19.7652 87.9999H23.7358V91.9999H19.7652V87.9999Z" fill="#3B64CE"/>
<path d="M99.1764 91.9999H103.147V95.9992H99.1764V91.9999Z" fill="#3B64CE"/>
<path d="M95.2069 91.9999H99.1775V95.9992H95.2069V91.9999Z" fill="#7291E3"/>
<path d="M91.2375 91.9999H95.2081V95.9992H91.2375V91.9999Z" fill="#7291E3"/>
<path d="M87.2651 91.9999H91.2357V95.9992H87.2651V91.9999Z" fill="#7291E3"/>
<path d="M83.2928 91.9999H87.2634V95.9992H83.2928V91.9999Z" fill="#7291E3"/>
<path d="M79.3224 91.9999H83.2928V95.9992H79.3224V91.9999Z" fill="#7291E3"/>
<path d="M75.351 91.9999L79.3216 91.9992L79.3224 95.9992H75.351V91.9999Z" fill="#7291E3"/>
<path d="M71.3825 91.9999H75.3531V95.9992H71.3825V91.9999Z" fill="#7291E3"/>
<path d="M67.4111 91.9999L71.3817 91.9992L71.3825 95.9992H67.4111V91.9999Z" fill="#7291E3"/>
<path d="M63.4398 91.9999L67.4104 91.9992L67.4111 95.9992H63.4398V91.9999Z" fill="#7291E3"/>
<path d="M59.4703 91.9999H63.4409V95.9992H59.4703V91.9999Z" fill="#7291E3"/>
<path d="M55.498 91.9999H59.4686V95.9992H55.498V91.9999Z" fill="#7291E3"/>
<path d="M51.5314 91.9999H55.502V95.9992H51.5314V91.9999Z" fill="#7291E3"/>
<path d="M47.56 91.9999L51.5306 91.9992L51.5314 95.9992H47.56V91.9999Z" fill="#7291E3"/>
<path d="M43.5877 91.9999H47.5583V95.9992H43.5877V91.9999Z" fill="#7291E3"/>
<path d="M39.6173 91.9999H43.5877V95.9992H39.6173V91.9999Z" fill="#7291E3"/>
<path d="M35.6478 91.9999H39.6184V95.9992H35.6478V91.9999Z" fill="#7291E3"/>
<path d="M31.6746 91.9999H35.6451V95.9992H31.6746V91.9999Z" fill="#7291E3"/>
<path d="M27.7061 91.9999H31.6767V95.9992H27.7061V91.9999Z" fill="#3B64CE"/>
<path d="M23.7347 91.9999L27.7053 91.9992L27.7061 95.9992H23.7347V91.9999Z" fill="#7291E3"/>
<path d="M19.7652 91.9999H23.7358V95.9992H19.7652V91.9999Z" fill="#3B64CE"/>
<path d="M99.1764 95.9992H103.147V99.9985H99.1764V95.9992Z" fill="#3B64CE"/>
<path d="M95.2069 95.9992H99.1775V99.9985H95.2069V95.9992Z" fill="#7291E3"/>
<path d="M91.2375 95.9992H95.2081V99.9985H91.2375V95.9992Z" fill="#7291E3"/>
<path d="M87.2651 95.9992H91.2357V99.9985H87.2651V95.9992Z" fill="#7291E3"/>
<path d="M83.2928 95.9992H87.2634V99.9985H83.2928V95.9992Z" fill="#7291E3"/>
<path d="M79.3224 95.9992H83.2928V99.9985H79.3224V95.9992Z" fill="#3B64CE"/>
<path d="M75.351 95.9992L79.3216 95.9985L79.3224 99.9985H75.351V95.9992Z" fill="#3B64CE"/>
<path d="M71.3825 95.9992H75.3531V99.9985H71.3825V95.9992Z" fill="#3B64CE"/>
<path d="M67.4111 95.9992L71.3817 95.9985L71.3825 99.9985H67.4111V95.9992Z" fill="#3B64CE"/>
<path d="M63.4398 95.9992L67.4104 95.9985L67.4111 99.9985H63.4398V95.9992Z" fill="#3B64CE"/>
<path d="M59.4703 95.9992H63.4409V99.9985H59.4703V95.9992Z" fill="#3B64CE"/>
<path d="M55.498 95.9992H59.4686V99.9985H55.498V95.9992Z" fill="#3B64CE"/>
<path d="M51.5314 95.9992H55.502V99.9985H51.5314V95.9992Z" fill="#7291E3"/>
<path d="M47.56 95.9992L51.5306 95.9985L51.5314 99.9985H47.56V95.9992Z" fill="#7291E3"/>
<path d="M43.5877 95.9992H47.5583V99.9985H43.5877V95.9992Z" fill="#7291E3"/>
<path d="M39.6173 95.9992H43.5877V99.9985H39.6173V95.9992Z" fill="#7291E3"/>
<path d="M35.6478 95.9992H39.6184V99.9985H35.6478V95.9992Z" fill="#7291E3"/>
<path d="M31.6746 95.9992H35.6451V99.9985H31.6746V95.9992Z" fill="#7291E3"/>
<path d="M27.7061 95.9992H31.6767V99.9985H27.7061V95.9992Z" fill="#3B64CE"/>
<path d="M23.7347 95.9992L27.7053 95.9985L27.7061 99.9985H23.7347V95.9992Z" fill="#7291E3"/>
<path d="M19.7652 95.9992H23.7358V99.9985H19.7652V95.9992Z" fill="#3B64CE"/>
<path d="M99.1764 100H103.147V104H99.1764V100Z" fill="#3B64CE"/>
<path d="M95.2069 100H99.1775V104H95.2069V100Z" fill="#7291E3"/>
<path d="M91.2375 100H95.2081V104H91.2375V100Z" fill="#7291E3"/>
<path d="M87.2651 100H91.2357V104H87.2651V100Z" fill="#3B64CE"/>
<path d="M83.2928 100H87.2634V104H83.2928V100Z" fill="#3B64CE"/>
<path d="M79.3224 100H83.2928V104H79.3224V100Z" fill="#7291E3"/>
<path d="M75.351 100H79.3224V104H75.351V100Z" fill="#7291E3"/>
<path d="M71.3825 100H75.3531V104H71.3825V100Z" fill="#7291E3"/>
<path d="M67.4111 100H71.3825V104H67.4111V100Z" fill="#7291E3"/>
<path d="M63.4398 100H67.4111V104H63.4398V100Z" fill="#7291E3"/>
<path d="M59.4703 100H63.4409V104H59.4703V100Z" fill="#7291E3"/>
<path d="M55.498 100H59.4686V104H55.498V100Z" fill="#7291E3"/>
<path d="M51.5314 100H55.502V104H51.5314V100Z" fill="#3B64CE"/>
<path d="M47.56 100H51.5314V104H47.56V100Z" fill="#3B64CE"/>
<path d="M43.5877 100H47.5583V104H43.5877V100Z" fill="#3B64CE"/>
<path d="M39.6173 100H43.5877V104H39.6173V100Z" fill="#3B64CE"/>
<path d="M35.6478 100H39.6184V104H35.6478V100Z" fill="#7291E3"/>
<path d="M31.6746 100H35.6451V104H31.6746V100Z" fill="#7291E3"/>
<path d="M27.7061 100H31.6767V104H27.7061V100Z" fill="#3B64CE"/>
<path d="M23.7347 100H27.7061V104H23.7347V100Z" fill="#7291E3"/>
<path d="M19.7652 100H23.7358V104H19.7652V100Z" fill="#3B64CE"/>
<path d="M95.2069 104H99.1775V107.999H95.2069V104Z" fill="#3B64CE"/>
<path d="M91.2375 104H95.2081V107.999H91.2375V104Z" fill="#7291E3"/>
<path d="M87.2651 104H91.2357V107.999H87.2651V104Z" fill="#7291E3"/>
<path d="M83.2928 104H87.2634V107.999H83.2928V104Z" fill="#7291E3"/>
<path d="M79.3224 104H83.2928V107.999H79.3224V104Z" fill="#7291E3"/>
<path d="M75.351 104L79.3216 103.999L79.3224 107.999H75.351V104Z" fill="#7291E3"/>
<path d="M71.3825 104H75.3531V107.999H71.3825V104Z" fill="#7291E3"/>
<path d="M67.4111 104L71.3817 103.999L71.3825 107.999H67.4111V104Z" fill="#7291E3"/>
<path d="M63.4398 104L67.4104 103.999L67.4111 107.999H63.4398V104Z" fill="#7291E3"/>
<path d="M59.4703 104H63.4409V107.999H59.4703V104Z" fill="#7291E3"/>
<path d="M55.498 104H59.4686V107.999H55.498V104Z" fill="#7291E3"/>
<path d="M51.5314 104H55.502V107.999H51.5314V104Z" fill="#7291E3"/>
<path d="M47.56 104L51.5306 103.999L51.5314 107.999H47.56V104Z" fill="#7291E3"/>
<path d="M43.5877 104H47.5583V107.999H43.5877V104Z" fill="#7291E3"/>
<path d="M39.6173 104H43.5877V107.999H39.6173V104Z" fill="#7291E3"/>
<path d="M35.6478 104H39.6184V107.999H35.6478V104Z" fill="#7291E3"/>
<path d="M31.6746 104H35.6451V107.999H31.6746V104Z" fill="#7291E3"/>
<path d="M27.7061 104H31.6767V107.999H27.7061V104Z" fill="#3B64CE"/>
<path d="M23.7347 104L27.7053 103.999L27.7061 107.999H23.7347V104Z" fill="#3B64CE"/>
<path d="M95.2069 108H99.1775V112H95.2069V108Z" fill="#3B64CE"/>
<path d="M91.2375 108H95.2081V112H91.2375V108Z" fill="#7291E3"/>
<path d="M87.2651 108H91.2357V112H87.2651V108Z" fill="#7291E3"/>
<path d="M83.2928 108H87.2634V112H83.2928V108Z" fill="#7291E3"/>
<path d="M79.3224 108H83.2928V112H79.3224V108Z" fill="#7291E3"/>
<path d="M75.351 108H79.3224V112H75.351V108Z" fill="#7291E3"/>
<path d="M71.3825 108H75.3531V112H71.3825V108Z" fill="#7291E3"/>
<path d="M67.4111 108H71.3825V112H67.4111V108Z" fill="#7291E3"/>
<path d="M63.4398 108H67.4111V112H63.4398V108Z" fill="#7291E3"/>
<path d="M59.4703 108H63.4409V112H59.4703V108Z" fill="#7291E3"/>
<path d="M55.498 108H59.4686V112H55.498V108Z" fill="#7291E3"/>
<path d="M51.5314 108H55.502V112H51.5314V108Z" fill="#7291E3"/>
<path d="M47.56 108H51.5314V112H47.56V108Z" fill="#7291E3"/>
<path d="M43.5877 108H47.5583V112H43.5877V108Z" fill="#7291E3"/>
<path d="M39.6173 108H43.5877V112H39.6173V108Z" fill="#7291E3"/>
<path d="M35.6478 108H39.6184V112H35.6478V108Z" fill="#7291E3"/>
<path d="M31.6746 108H35.6451V112H31.6746V108Z" fill="#7291E3"/>
<path d="M27.7061 108H31.6767V112H27.7061V108Z" fill="#3B64CE"/>
<path d="M91.2375 112H95.2081V115.999H91.2375V112Z" fill="#3B64CE"/>
<path d="M87.2651 112H91.2357V115.999H87.2651V112Z" fill="#7291E3"/>
<path d="M83.2928 112H87.2634V115.999H83.2928V112Z" fill="#7291E3"/>
<path d="M79.3224 112H83.2928V115.999H79.3224V112Z" fill="#7291E3"/>
<path d="M75.351 112L79.3216 111.999L79.3224 115.999H75.351V112Z" fill="#7291E3"/>
<path d="M71.3825 112H75.3531V115.999H71.3825V112Z" fill="#7291E3"/>
<path d="M67.4111 112L71.3817 111.999L71.3825 115.999H67.4111V112Z" fill="#7291E3"/>
<path d="M63.4398 112L67.4104 111.999L67.4111 115.999H63.4398V112Z" fill="#7291E3"/>
<path d="M59.4703 112H63.4409V115.999H59.4703V112Z" fill="#7291E3"/>
<path d="M55.498 112H59.4686V115.999H55.498V112Z" fill="#7291E3"/>
<path d="M51.5314 112H55.502V115.999H51.5314V112Z" fill="#7291E3"/>
<path d="M47.56 112L51.5306 111.999L51.5314 115.999H47.56V112Z" fill="#7291E3"/>
<path d="M43.5877 112H47.5583V115.999H43.5877V112Z" fill="#7291E3"/>
<path d="M39.6173 112H43.5877V115.999H39.6173V112Z" fill="#7291E3"/>
<path d="M35.6478 112H39.6184V115.999H35.6478V112Z" fill="#7291E3"/>
<path d="M31.6746 112H35.6451V115.999H31.6746V112Z" fill="#3B64CE"/>
<path d="M27.7061 112H31.6767V115.999H27.7061V112Z" fill="#3B64CE"/>
<path d="M87.2651 115.999H91.2357V119.999H87.2651V115.999Z" fill="#3B64CE"/>
<path d="M83.2928 115.999H87.2634V119.999H83.2928V115.999Z" fill="#7291E3"/>
<path d="M79.3224 115.999H83.2928V119.999H79.3224V115.999Z" fill="#7291E3"/>
<path d="M75.351 115.999L79.3216 115.999L79.3224 119.999H75.351V115.999Z" fill="#7291E3"/>
<path d="M71.3825 115.999H75.3531V119.999H71.3825V115.999Z" fill="#7291E3"/>
<path d="M67.4111 115.999L71.3817 115.999L71.3825 119.999H67.4111V115.999Z" fill="#7291E3"/>
<path d="M63.4398 115.999L67.4104 115.999L67.4111 119.999H63.4398V115.999Z" fill="#7291E3"/>
<path d="M59.4703 115.999H63.4409V119.999H59.4703V115.999Z" fill="#7291E3"/>
<path d="M55.498 115.999H59.4686V119.999H55.498V115.999Z" fill="#7291E3"/>
<path d="M51.5314 115.999H55.502V119.999H51.5314V115.999Z" fill="#7291E3"/>
<path d="M47.56 115.999L51.5306 115.999L51.5314 119.999H47.56V115.999Z" fill="#7291E3"/>
<path d="M43.5877 115.999H47.5583V119.999H43.5877V115.999Z" fill="#7291E3"/>
<path d="M39.6173 115.999H43.5877V119.999H39.6173V115.999Z" fill="#3B64CE"/>
<path d="M35.6478 115.999H39.6184V119.999H35.6478V115.999Z" fill="#3B64CE"/>
<path d="M31.6746 115.999H35.6451V119.999H31.6746V115.999Z" fill="#7291E3"/>
<path d="M27.7061 115.999H31.6767V119.999H27.7061V115.999Z" fill="#3B64CE"/>
<path d="M83.2928 120H87.2634V124H83.2928V120Z" fill="#3B64CE"/>
<path d="M79.3224 120H83.2928V124H79.3224V120Z" fill="#3B64CE"/>
<path d="M75.351 120H79.3224V124H75.351V120Z" fill="#7291E3"/>
<path d="M71.3825 120H75.3531V124H71.3825V120Z" fill="#7291E3"/>
<path d="M67.4111 120H71.3825V124H67.4111V120Z" fill="#7291E3"/>
<path d="M63.4398 120H67.4111V124H63.4398V120Z" fill="#7291E3"/>
<path d="M59.4703 120H63.4409V124H59.4703V120Z" fill="#7291E3"/>
<path d="M55.498 120H59.4686V124H55.498V120Z" fill="#7291E3"/>
<path d="M51.5314 120H55.502V124H51.5314V120Z" fill="#7291E3"/>
<path d="M47.56 120H51.5314V124H47.56V120Z" fill="#3B64CE"/>
<path d="M43.5877 120H47.5583V124H43.5877V120Z" fill="#3B64CE"/>
<path d="M39.6173 120H43.5877V124H39.6173V120Z" fill="#7291E3"/>
<path d="M35.6478 120H39.6184V124H35.6478V120Z" fill="#7291E3"/>
<path d="M31.6746 120H35.6451V124H31.6746V120Z" fill="#7291E3"/>
<path d="M27.7061 120H31.6767V124H27.7061V120Z" fill="#3B64CE"/>
<path d="M75.351 124H79.3224L79.3216 128H75.351V124Z" fill="#3B64CE"/>
<path d="M71.3825 124H75.3531V128H71.3825V124Z" fill="#3B64CE"/>
<path d="M67.4111 124H71.3825V128H67.4111V124Z" fill="#3B64CE"/>
<path d="M63.4398 124H67.4111V128H63.4398V124Z" fill="#3B64CE"/>
<path d="M59.4703 124H63.4409V128H59.4703V124Z" fill="#3B64CE"/>
<path d="M55.498 124H59.4686V128H55.498V124Z" fill="#3B64CE"/>
<path d="M51.5314 124H55.502V128H51.5314V124Z" fill="#3B64CE"/>
<path d="M47.56 124H51.5314V128H47.56V124Z" fill="#7291E3"/>
<path d="M43.5877 124H47.5583V128H43.5877V124Z" fill="#7291E3"/>
<path d="M39.6173 124H43.5877V128H39.6173V124Z" fill="#7291E3"/>
<path d="M35.6478 124H39.6184V128H35.6478V124Z" fill="#7291E3"/>
<path d="M31.6746 124H35.6451V128H31.6746V124Z" fill="#7291E3"/>
<path d="M27.7061 124H31.6767V128H27.7061V124Z" fill="#3B64CE"/>
<path d="M63.4398 128H67.4111L67.4104 132H63.4398V128Z" fill="#3B64CE"/>
<path d="M59.4703 128H63.4409V132H59.4703V128Z" fill="#7291E3"/>
<path d="M55.498 128H59.4686V132H55.498V128Z" fill="#7291E3"/>
<path d="M51.5314 128H55.502V132H51.5314V128Z" fill="#7291E3"/>
<path d="M47.56 128H51.5314V132H47.56V128Z" fill="#7291E3"/>
<path d="M43.5877 128H47.5583V132H43.5877V128Z" fill="#7291E3"/>
<path d="M39.6173 128H43.5877V132H39.6173V128Z" fill="#7291E3"/>
<path d="M35.6478 128H39.6184V132H35.6478V128Z" fill="#7291E3"/>
<path d="M31.6746 128H35.6451V132H31.6746V128Z" fill="#7291E3"/>
<path d="M27.7061 128H31.6767V132H27.7061V128Z" fill="#3B64CE"/>
<path d="M63.4398 132H67.4104V136H63.4398V132Z" fill="#3B64CE"/>
<path d="M59.4703 132H63.4409V136H59.4703V132Z" fill="#7291E3"/>
<path d="M55.498 132H59.4686V136H55.498V132Z" fill="#7291E3"/>
<path d="M51.5314 132H55.502V136H51.5314V132Z" fill="#7291E3"/>
<path d="M47.56 132H51.5314V136H47.56V132Z" fill="#7291E3"/>
<path d="M43.5877 132H47.5583V136H43.5877V132Z" fill="#7291E3"/>
<path d="M39.6173 132H43.5877V136H39.6173V132Z" fill="#7291E3"/>
<path d="M35.6478 132H39.6184V136H35.6478V132Z" fill="#7291E3"/>
<path d="M31.6746 132H35.6451V136H31.6746V132Z" fill="#7291E3"/>
<path d="M27.7061 132H31.6767V136H27.7061V132Z" fill="#3B64CE"/>
<path d="M63.4398 136H67.4104V140H63.4398V136Z" fill="#3B64CE"/>
<path d="M59.4703 136H63.4409V140H59.4703V136Z" fill="#7291E3"/>
<path d="M55.498 136H59.4686V140H55.498V136Z" fill="#7291E3"/>
<path d="M51.5314 136H55.502V140H51.5314V136Z" fill="#7291E3"/>
<path d="M47.56 136H51.5314V140H47.56V136Z" fill="#7291E3"/>
<path d="M43.5877 136H47.5583V140H43.5877V136Z" fill="#7291E3"/>
<path d="M39.6173 136H43.5877V140H39.6173V136Z" fill="#7291E3"/>
<path d="M35.6478 136H39.6184V140H35.6478V136Z" fill="#7291E3"/>
<path d="M31.6746 136H35.6451V140H31.6746V136Z" fill="#7291E3"/>
<path d="M27.7061 136H31.6767V140H27.7061V136Z" fill="#3B64CE"/>
<path d="M63.4398 139.999H67.4104V143.999H63.4398V139.999Z" fill="#3B64CE"/>
<path d="M59.4703 139.999H63.4409V143.999H59.4703V139.999Z" fill="#7291E3"/>
<path d="M55.498 139.999H59.4686V143.999H55.498V139.999Z" fill="#7291E3"/>
<path d="M51.5314 139.999H55.502V143.999H51.5314V139.999Z" fill="#7291E3"/>
<path d="M47.56 139.999H51.5314V143.999H47.56V139.999Z" fill="#7291E3"/>
<path d="M43.5877 139.999H47.5583V143.999H43.5877V139.999Z" fill="#7291E3"/>
<path d="M39.6173 139.999H43.5877V143.999H39.6173V139.999Z" fill="#7291E3"/>
<path d="M35.6478 139.999H39.6184V143.999H35.6478V139.999Z" fill="#7291E3"/>
<path d="M31.6746 139.999H35.6451V143.999H31.6746V139.999Z" fill="#7291E3"/>
<path d="M27.7061 139.999H31.6767V143.999H27.7061V139.999Z" fill="#3B64CE"/>
<path d="M67.4111 144H71.3817V148H67.4111V144Z" fill="#3B64CE"/>
<path d="M63.4398 143.999H67.4104L67.4111 148H63.4398V143.999Z" fill="#7291E3"/>
<path d="M59.4703 143.999H63.4409V148H59.4703V143.999Z" fill="#7291E3"/>
<path d="M55.498 143.999H59.4686V148H55.498V143.999Z" fill="#7291E3"/>
<path d="M51.5314 143.999H55.502V148H51.5314V143.999Z" fill="#7291E3"/>
<path d="M47.56 143.999L51.5306 144L51.5314 148H47.56V143.999Z" fill="#7291E3"/>
<path d="M43.5877 143.999H47.5583V148H43.5877V143.999Z" fill="#7291E3"/>
<path d="M39.6173 143.999H43.5877V148H39.6173V143.999Z" fill="#7291E3"/>
<path d="M35.6478 143.999H39.6184V148H35.6478V143.999Z" fill="#7291E3"/>
<path d="M31.6746 143.999H35.6451V148H31.6746V143.999Z" fill="#7291E3"/>
<path d="M27.7061 143.999H31.6767V148H27.7061V143.999Z" fill="#7291E3"/>
<path d="M23.7347 144H27.7053L27.7061 148H23.7347V144Z" fill="#3B64CE"/>
<path d="M67.4111 148H71.3817V152.001H67.4111V148Z" fill="#3B64CE"/>
<path d="M63.4398 148L67.4104 148.001L67.4111 152.001H63.4398V148Z" fill="#7291E3"/>
<path d="M59.4703 148H63.4409V152.001H59.4703V148Z" fill="#7291E3"/>
<path d="M55.498 148H59.4686V152.001H55.498V148Z" fill="#7291E3"/>
<path d="M51.5314 148H55.502V152.001H51.5314V148Z" fill="#7291E3"/>
<path d="M47.56 148L51.5306 148.001L51.5314 152.001H47.56V148Z" fill="#7291E3"/>
<path d="M43.5877 148H47.5583V152.001H43.5877V148Z" fill="#7291E3"/>
<path d="M39.6173 148H43.5877V152.001H39.6173V148Z" fill="#7291E3"/>
<path d="M35.6478 148H39.6184V152.001H35.6478V148Z" fill="#7291E3"/>
<path d="M31.6746 148H35.6451V152.001H31.6746V148Z" fill="#7291E3"/>
<path d="M27.7061 148H31.6767V152.001H27.7061V148Z" fill="#7291E3"/>
<path d="M23.7347 148L27.7053 148.001L27.7061 152.001H23.7347V148Z" fill="#3B64CE"/>
<path d="M75.351 151.998H79.3216V155.998H75.351V151.998Z" fill="#3B64CE"/>
<path d="M71.3825 151.998H75.3531V155.998H71.3825V151.998Z" fill="#3B64CE"/>
<path d="M67.4111 151.998H71.3825V155.998H67.4111V151.998Z" fill="#7291E3"/>
<path d="M63.4398 151.998H67.4111V155.998H63.4398V151.998Z" fill="#7291E3"/>
<path d="M59.4703 151.998H63.4409V155.998H59.4703V151.998Z" fill="#7291E3"/>
<path d="M55.498 151.998H59.4686V155.998H55.498V151.998Z" fill="#7291E3"/>
<path d="M51.5314 151.998H55.502V155.998H51.5314V151.998Z" fill="#7291E3"/>
<path d="M47.56 151.998H51.5314V155.998H47.56V151.998Z" fill="#7291E3"/>
<path d="M43.5877 151.998H47.5583V155.998H43.5877V151.998Z" fill="#7291E3"/>
<path d="M39.6173 151.998H43.5877V155.998H39.6173V151.998Z" fill="#7291E3"/>
<path d="M35.6478 151.998H39.6184V155.998H35.6478V151.998Z" fill="#7291E3"/>
<path d="M31.6746 151.998H35.6451V155.998H31.6746V151.998Z" fill="#7291E3"/>
<path d="M27.7061 151.998H31.6767V155.998H27.7061V151.998Z" fill="#7291E3"/>
<path d="M23.7347 151.998H27.7061V155.998H23.7347V151.998Z" fill="#7291E3"/>
<path d="M19.7652 151.998H23.7358V155.998H19.7652V151.998Z" fill="#3B64CE"/>
<path d="M15.7919 151.998H19.7625V155.998H15.7919V151.998Z" fill="#3B64CE"/>
<path d="M87.2651 156H91.2357V160H87.2651V156Z" fill="#3B64CE"/>
<path d="M83.2928 156H87.2634V160H83.2928V156Z" fill="#3B64CE"/>
<path d="M79.3224 156H83.2928V160H79.3224V156Z" fill="#3B64CE"/>
<path d="M75.351 156H79.3224V160H75.351V156Z" fill="#7291E3"/>
<path d="M71.3825 156H75.3531V160H71.3825V156Z" fill="#7291E3"/>
<path d="M67.4111 156H71.3825V160H67.4111V156Z" fill="#7291E3"/>
<path d="M63.4398 156H67.4111V160H63.4398V156Z" fill="#7291E3"/>
<path d="M59.4703 156H63.4409V160H59.4703V156Z" fill="#7291E3"/>
<path d="M55.498 156H59.4686V160H55.498V156Z" fill="#7291E3"/>
<path d="M51.5314 156H55.502V160H51.5314V156Z" fill="#7291E3"/>
<path d="M47.56 156H51.5314V160H47.56V156Z" fill="#7291E3"/>
<path d="M43.5877 156H47.5583V160H43.5877V156Z" fill="#7291E3"/>
<path d="M39.6173 156H43.5877V160H39.6173V156Z" fill="#7291E3"/>
<path d="M35.6478 156H39.6184V160H35.6478V156Z" fill="#7291E3"/>
<path d="M31.6746 156H35.6451V160H31.6746V156Z" fill="#7291E3"/>
<path d="M27.7061 156H31.6767V160H27.7061V156Z" fill="#7291E3"/>
<path d="M23.7347 156H27.7061V160H23.7347V156Z" fill="#7291E3"/>
<path d="M19.7652 156H23.7358V160H19.7652V156Z" fill="#7291E3"/>
<path d="M15.7919 156H19.7625V160H15.7919V156Z" fill="#7291E3"/>
</svg>