<svg width="577" height="869" viewBox="0 0 577 869" fill="none" xmlns="http://www.w3.org/2000/svg">
<path d="M174.662 204.984C173.406 179.615 174.255 154.186 177.2 128.957C217.139 123.961 257.366 121.627 297.615 121.969C337.827 121.632 378.016 123.966 417.918 128.957C420.863 154.186 421.712 179.615 420.456 204.984L412.898 233.162C445.57 241.01 477.708 250.93 509.117 262.863L539.348 231.021C539.968 184.526 538.953 141.525 533.708 108.556C463.997 91.3104 389.943 85.0547 297.615 85.0547C205.288 85.0547 131.234 91.3104 61.8612 108.556C56.2212 141.412 55.2624 184.526 55.8264 231.021L86.0571 262.863C117.48 250.854 149.637 240.858 182.333 232.937L174.662 204.984Z" fill="url(#paint0_linear_1305_1368)"/>
<path d="M489.527 59.377L476.787 101.102H463.847L471.241 59.377H489.527Z" fill="#0F2354"/>
<path d="M474.17 100.208C475.837 116.661 481.934 132.344 491.807 145.57C496.757 151.961 502.398 159.024 509.02 160.84C510.673 161.281 512.4 161.374 514.091 161.116C515.783 160.858 517.403 160.252 518.852 159.338C522.131 157.309 524.986 154.659 527.258 151.535C537.002 138.372 542.331 121.981 544.649 105.411C546.968 88.8399 546.545 71.776 546.054 54.6H547.258H535.24C533.211 62.0668 531.16 70.2961 529.153 77.7854H526.924C526.651 86.7102 525.318 95.5703 522.955 104.177C521.598 109.494 519.376 114.547 516.377 119.133C514.738 121.562 512.482 123.505 509.845 124.762C508.426 125.351 506.901 125.639 505.367 125.608C503.832 125.577 502.32 125.228 500.926 124.582C495.998 121.807 492.025 117.593 489.532 112.496C486.924 107.76 484.817 102.763 483.245 97.5849C479.921 87.2528 478.412 76.4176 478.786 65.5648L482.286 65.8115C481.846 76.2314 483.212 86.6489 486.322 96.5983C487.786 101.58 489.759 106.397 492.208 110.971C494.683 115.456 497.871 119.739 502.085 121.779C503.087 122.259 504.177 122.525 505.286 122.559C506.395 122.594 507.499 122.397 508.529 121.981C510.656 120.921 512.465 119.312 513.769 117.317C516.598 113.032 518.7 108.303 519.989 103.325C522.361 94.967 523.746 86.3571 524.114 77.6732H510.38L479.165 4.01367H570.58C566.567 20.8608 562.561 37.6856 558.562 54.4879H550.647C551.383 71.5294 552.119 88.7951 549.934 106.061C547.749 123.326 542.576 140.592 532.097 155.167C529.391 159.012 525.95 162.275 521.974 164.764C519.825 166.083 517.451 166.988 514.973 167.433C512.415 167.885 509.79 167.77 507.28 167.096C502.661 165.688 498.468 163.136 495.084 159.674C491.871 156.574 488.89 153.239 486.166 149.696C475.237 135.353 468.358 118.311 466.255 100.365L474.17 100.208Z" fill="#0F2354"/>
<path d="M458.815 191.801C465.819 193.327 473.142 192.404 479.533 189.191C480.766 190.521 481.927 191.913 483.012 193.362C485.362 191.728 487.549 189.876 489.542 187.831C498.127 178.776 503.098 166.331 506.622 153.552C510.032 140.559 512.739 127.397 514.733 114.121C516.809 100.84 517.776 87.4136 517.625 73.9764L521.172 73.8203C522.005 87.5011 521.695 101.226 520.246 114.857C518.892 128.489 516.796 142.039 513.965 155.448C510.983 168.829 506.419 182.813 496.659 194.276C494.149 197.148 491.331 199.743 488.254 202.015C488.932 203.376 489.564 204.759 490.129 206.186C479.536 214.737 466.351 219.549 452.67 219.857C452.227 210.138 454.344 200.471 458.815 191.801Z" fill="#0F2354"/>
<path d="M453.09 164.492L473.477 168.863L450.594 228.81L427.734 231.894L431.174 190.96H453.854L454.775 179.889H450.28L453.09 164.492Z" fill="url(#paint1_linear_1305_1368)"/>
<g style="mix-blend-mode:overlay" opacity="0.6">
<path d="M463.044 190.17L449.7 226.648L429.339 229.488L431.293 205.661L452.631 203.003L463.044 190.17Z" fill="#8B9BB8"/>
</g>
<path d="M103.018 100.157C101.341 116.603 95.2247 132.278 85.3285 145.495C80.3702 151.882 74.7418 158.941 68.0861 160.757C66.4292 161.195 64.7003 161.289 63.0061 161.03C61.312 160.772 59.6886 160.168 58.2365 159.255C54.9592 157.227 52.1069 154.578 49.8386 151.456C40.056 138.301 34.7403 121.918 32.4175 105.356C30.0947 88.7947 30.5191 71.7399 30.9881 54.573H29.8044H41.9545C43.9646 62.0359 46.0194 70.2607 48.0518 77.746H50.2853C50.5432 86.6466 51.8477 95.4855 54.1715 104.079C55.5746 109.396 57.8381 114.446 60.872 119.027C62.4654 121.45 64.6692 123.406 67.2597 124.697C68.6809 125.286 70.208 125.574 71.7453 125.543C73.2826 125.512 74.797 125.163 76.1936 124.518C81.1363 121.746 85.1239 117.534 87.6289 112.438C90.2291 107.678 92.3323 102.661 93.905 97.4678C97.2215 87.1383 98.7327 76.3111 98.3719 65.4648L94.8654 65.7113C95.2947 76.1252 93.9271 86.5352 90.8228 96.4817C89.348 101.462 87.3646 106.276 84.9041 110.847C82.7552 115.359 79.3091 119.121 75.0098 121.649C74.0105 122.13 72.9223 122.396 71.8148 122.43C70.7073 122.465 69.6047 122.268 68.5774 121.851C66.4385 120.795 64.619 119.186 63.3064 117.189C60.4902 112.896 58.3858 108.174 57.0751 103.205C54.7122 94.8722 53.3329 86.2897 52.9655 77.634H66.7236L97.9922 4.01367H6.41992L18.4807 54.461H26.3202C25.5831 71.4934 24.8461 88.7499 27.0125 106.006C29.179 123.263 34.4053 140.519 44.8803 155.087C47.6002 158.921 51.0457 162.18 55.0203 164.678C57.1741 166.028 59.5601 166.963 62.0557 167.435C64.6107 167.884 67.2325 167.769 69.7388 167.099C74.3746 165.697 78.5839 163.145 81.9783 159.681C85.1977 156.583 88.1839 153.249 90.9121 149.708C101.82 135.361 108.671 118.328 110.745 100.404L103.018 100.157Z" fill="#0F2354"/>
<path d="M118.209 191.26C111.205 192.779 103.882 191.861 97.4906 188.663C96.2514 189.98 95.0897 191.367 94.0113 192.814C91.6573 191.193 89.4704 189.349 87.4818 187.309C78.8963 178.295 73.9258 165.907 70.4012 153.187C66.9842 140.254 64.2692 127.152 62.2676 113.936C60.2138 100.714 59.2467 87.3506 59.3757 73.9757L55.8285 73.8203C54.9956 87.4384 55.3054 101.101 56.7549 114.669C58.1305 128.236 60.227 141.722 63.0358 155.074C65.9955 168.327 70.5142 182.18 80.3649 193.591C82.8672 196.449 85.6777 199.032 88.747 201.295C88.0692 202.649 87.4366 204.025 86.8944 205.446C97.4812 213.955 110.658 218.745 124.332 219.055C124.77 209.426 122.661 199.849 118.209 191.26Z" fill="#0F2354"/>
<path d="M449.561 179.737H127.484L105.931 59.377H471.07L449.561 179.737Z" fill="url(#paint2_linear_1305_1368)"/>
<g style="mix-blend-mode:overlay" opacity="0.3">
<path d="M113.956 84.252L130.834 176.528H167.724L154.849 86.2991L113.956 84.252Z" fill="#364665"/>
</g>
<g style="mix-blend-mode:overlay" opacity="0.3">
<path d="M459.835 100.357L446.033 176.53H409.277L420.399 97.8945L459.835 100.357Z" fill="#364665"/>
</g>
<g style="mix-blend-mode:multiply" opacity="0.3">
<path d="M471.07 59.377H105.931L109.627 80.1493L172.123 82.8354C174.528 94.7884 177.489 107.458 180.806 120.463L211.977 117.822C213.892 130.066 215.65 142.69 217.298 155.583H215.383L212.979 164.671H206.411L211.287 185.354H241.411L240.943 164.604H232.839L230.434 155.516H227.518C226.612 138.922 225.358 122.231 223.755 105.443L189.623 102.981C188.443 96.6239 187.397 90.1102 186.595 83.4845L403.074 93.0649C402.539 96.4001 401.983 99.7801 401.359 102.981L365.625 105.51C363.933 122.298 362.626 138.989 361.706 155.583H358.678L356.14 164.671H340.978V180.206H345.052V184.369H378.917L383.859 164.671H377.002L374.486 155.583H372.504C374.219 142.69 376.045 130.066 378.048 117.822L410.532 120.44C412.981 111.263 415.23 102.309 417.212 93.5797L464.568 95.6614L471.07 59.377Z" fill="#364665"/>
</g>
<path d="M124.365 164.492L104.325 168.863L126.795 228.81L149.265 231.894L145.885 190.96H123.614L122.708 179.889H127.105L124.365 164.492Z" fill="url(#paint3_linear_1305_1368)"/>
<path d="M374.555 88.2634H203.247L193.403 59.377H384.399L374.555 88.2634Z" fill="url(#paint4_linear_1305_1368)"/>
<g style="mix-blend-mode:multiply" opacity="0.4">
<path d="M322.709 76.2271H252.614L246.368 59.3088L247.564 58.8636L253.5 74.9359H321.779L327.005 58.5742L328.224 58.9527L322.709 76.2271Z" fill="#8453B8"/>
</g>
<g style="mix-blend-mode:overlay" opacity="0.6">
<path d="M322.029 75.4243H253.3L247.172 58.5061L248.375 58.0609L254.192 74.1332H321.093L326.197 57.7715L327.422 58.1499L322.029 75.4243Z" fill="black"/>
</g>
<path d="M338.273 123.571H240.332L227.911 86.6602H350.694L338.273 123.571Z" fill="#364665"/>
<path d="M330.428 117.953H247.531L241.554 93.0781H336.249L330.428 117.953ZM248.534 116.634H329.425L334.666 94.3741H243.226L248.534 116.634Z" fill="black"/>
<path d="M87.4727 59.377L100.212 101.102H113.153L105.781 59.377H87.4727Z" fill="#0F2354"/>
<path d="M324.283 179.152L331.714 147.643H244.901L253.404 179.152H122.782L123.697 190.17H456.511L457.426 179.152H324.283ZM264.027 179.152L261.371 157.404H315.825L313.191 179.152H264.027Z" fill="#364665"/>
<g style="mix-blend-mode:multiply" opacity="0.3">
<path d="M264.557 125.174V147.641H261.515L258.406 125.174H264.557ZM269.864 125.174L272.329 147.641H275.372L275.993 125.174H269.864ZM281.323 125.174L283.166 147.641H286.208L287.452 125.174H281.323ZM292.759 125.174L294.002 147.641H297.044L298.888 125.174H292.759ZM304.217 125.174L304.861 147.641H307.903L310.368 125.174H304.217ZM315.653 125.174V147.641H318.695L321.804 125.174H315.653Z" fill="#B86053"/>
</g>
<path d="M261.405 125.174V147.641H258.323L255.196 125.174H261.405ZM266.804 125.174L269.323 147.641H272.405L273.035 125.174H266.804ZM278.388 125.174L280.278 147.641H283.36L284.597 125.174H278.388ZM289.996 125.174L291.256 147.641H294.315L296.317 125.174H289.996ZM301.581 125.174L302.211 147.641H305.315L307.834 125.174H301.581ZM313.188 125.174V147.641H316.27L319.397 125.174H313.188Z" fill="url(#paint5_linear_1305_1368)"/>
<path d="M308.949 212.638H268.073L261.616 158.074H315.384L308.949 212.638Z" fill="url(#paint6_linear_1305_1368)"/>
<g style="mix-blend-mode:overlay" opacity="0.6">
<path d="M113.956 190.17L127.641 226.648L148.464 229.488L146.463 205.661L124.64 203.003L113.956 190.17Z" fill="#8B9BB8"/>
</g>
<path d="M133.215 59.377C136.533 79.8848 140.933 100.197 146.397 120.226L178.475 117.595C181.661 137.439 184.495 158.22 187.022 179.737H195.81C194.975 155.136 193.305 130.334 190.801 105.332L155.493 102.812C152.839 88.4454 150.932 73.947 149.781 59.377H133.215Z" fill="url(#paint7_linear_1305_1368)"/>
<path d="M153.186 68.2034H131.702L128.4 59.377H156.488L153.186 68.2034Z" fill="url(#paint8_linear_1305_1368)"/>
<path d="M198.188 155.666H183.002L180.563 164.492H200.626L198.188 155.666Z" fill="url(#paint9_linear_1305_1368)"/>
<path d="M173.341 164.492L184.579 209.427H210.256L209.218 164.492H173.341Z" fill="url(#paint10_linear_1305_1368)"/>
<path style="mix-blend-mode:screen" opacity="0.18" d="M136.425 69.8086L147.491 117.815L181.458 115.716L186.323 155.666H190.193L185.124 112.737L150.93 114.182L142.467 71.6819L136.425 69.8086Z" fill="url(#paint11_linear_1305_1368)"/>
<path style="mix-blend-mode:screen" d="M181.365 164.492L183.565 155.666H198.111L200.625 164.492L198.874 164.376L196.854 156.644L187.673 156.97L186.304 164.492H181.365Z" fill="url(#paint12_linear_1305_1368)"/>
<path style="mix-blend-mode:screen" opacity="0.18" d="M129.203 59.377L132.339 67.401H152.979L155.686 59.8687L153.204 59.7569L152.099 66.4175L136.918 66.1493L135.993 59.377H129.203Z" fill="url(#paint13_linear_1305_1368)"/>
<g style="mix-blend-mode:overlay" opacity="0.6">
<path d="M180.563 187.212L186.003 207.019H208.651V186.156L205.997 199.131H187.069L180.563 187.212Z" fill="#FFF7CC"/>
</g>
<path d="M209.454 164.492H216.677V179.968H212.276V191.096H216.677V209.427H210.578L209.454 164.492Z" fill="#8A0E46"/>
<g style="mix-blend-mode:multiply">
<path d="M211.86 179.738H220.688L220.03 191.774L211.86 191.538V179.738Z" fill="#ADCBE3"/>
</g>
<path d="M443.784 59.377C440.477 79.8867 436.078 100.2 430.606 120.226L398.517 117.595C395.311 137.439 392.5 158.22 389.974 179.737H381.188C382.008 155.136 383.67 130.334 386.174 105.332L421.425 102.812C424.082 88.4468 425.981 73.9478 427.114 59.377H443.784Z" fill="url(#paint14_linear_1305_1368)"/>
<path d="M423.012 68.2034H444.496L447.798 59.377H419.71L423.012 68.2034Z" fill="url(#paint15_linear_1305_1368)"/>
<path d="M378.89 155.666H394.723L397.239 164.492H376.374L378.89 155.666Z" fill="url(#paint16_linear_1305_1368)"/>
<path d="M403.659 164.492L392.443 209.427H366.744L367.782 164.492H403.659Z" fill="url(#paint17_linear_1305_1368)"/>
<path style="mix-blend-mode:screen" opacity="0.18" d="M440.575 69.8086L429.674 117.815L396.214 115.716L391.421 155.666H387.609L392.625 112.737L426.308 114.182L434.645 71.6819L440.575 69.8086Z" fill="url(#paint18_linear_1305_1368)"/>
<path style="mix-blend-mode:screen" d="M395.634 164.492L393.548 155.666H379.608L377.177 164.492L378.855 164.376L380.812 156.644L389.589 156.97L390.902 164.492H395.634Z" fill="url(#paint19_linear_1305_1368)"/>
<g style="mix-blend-mode:overlay" opacity="0.6">
<path d="M397.24 187.212L391.668 207.019H368.35V186.156L371.102 199.131H390.571L397.24 187.212Z" fill="#FFF7CC"/>
</g>
<path d="M367.546 164.492H361.126V179.968H365.029V191.096H361.126V209.427H366.544L367.546 164.492Z" fill="#8A0E46"/>
<g style="mix-blend-mode:multiply">
<path d="M365.139 179.738H356.312L356.992 191.774L365.139 191.538V179.738Z" fill="#ADCBE3"/>
</g>
<g style="mix-blend-mode:multiply">
<path d="M316.243 158.074H319.397L316.243 190.17H312.175L316.243 158.074Z" fill="#ADCBE3"/>
</g>
<g style="mix-blend-mode:overlay" opacity="0.6">
<path d="M266.432 187.762L268.69 210.229H307.599L309.767 191.998L306.199 199.006H271.919L266.432 187.762Z" fill="#FFF7CC"/>
</g>
<path style="mix-blend-mode:screen" d="M246.368 149.1L255.125 181.491L258.409 182.146L254.299 154.499L328.041 152.172L329.829 148.445L246.368 149.1Z" fill="url(#paint20_linear_1305_1368)"/>
<g style="mix-blend-mode:multiply" opacity="0.3">
<path d="M331.967 147.643H337.052L331.967 179.739H324.212L331.967 147.643Z" fill="#B86053"/>
</g>
<g style="mix-blend-mode:multiply" opacity="0.3">
<path d="M193.403 59.377H384.399L381.222 68.2034L196.267 67.3418L193.403 59.377Z" fill="#B86053"/>
</g>
<path style="mix-blend-mode:screen" opacity="0.18" d="M200.626 69.8086L205.723 85.8566H371.344L376.374 71.4979L370.253 80.8573L212.378 79.6474L209.752 69.8086H200.626Z" fill="url(#paint21_linear_1305_1368)"/>
<path d="M516.358 59.377H61.467L36.915 21.6641H540.887L516.358 59.377Z" fill="url(#paint22_linear_1305_1368)"/>
<g style="mix-blend-mode:multiply" opacity="0.4">
<path d="M441.675 59.377L440.472 58.9809L449.9 30.5532H534.468V31.8074H450.792L441.675 59.377ZM159.889 59.1129L143.305 34.7778H44.9404V33.5016H143.996L160.959 58.4088L159.889 59.1129ZM362.435 41.0046H220.316L212.96 22.1921L214.164 21.7521L221.208 39.7504H361.633L371.686 21.6641L372.822 22.2801L362.435 41.0046Z" fill="#364665"/>
</g>
<g style="mix-blend-mode:overlay" opacity="0.6">
<path d="M442.513 58.5762L441.287 58.1804L450.694 29.7253H535.269V31.0007H451.631L442.513 58.5762ZM160.701 58.2903L144.093 33.9693H45.7422V32.6939H144.695L161.749 57.5207L160.701 58.2903ZM363.155 40.1925H221.178L213.8 21.391L215.004 20.9512L222.025 38.9171H362.464L372.539 20.8633L373.654 21.479L363.155 40.1925Z" fill="#364665"/>
</g>
<path d="M557.07 21.6649H19.9073L0 0H577L557.07 21.6649Z" fill="url(#paint23_linear_1305_1368)"/>
<g style="mix-blend-mode:multiply" opacity="0.2">
<path d="M524.837 4.01367H405.845C404.551 8.82808 403.288 13.6425 402.054 18.4569H517.455C519.842 13.6425 522.317 8.82808 524.837 4.01367Z" fill="#114973"/>
</g>
<g style="mix-blend-mode:overlay" opacity="0.3">
<path d="M115.199 4.01367C116.582 8.82808 117.743 13.6425 118.791 18.4569H21.4802L8.82812 4.01367H115.199ZM568.173 4.01367H542.668C539.968 8.8735 537.201 13.6652 534.479 18.4569H555.566L568.173 4.01367Z" fill="#FFF7CC"/>
</g>
<g style="mix-blend-mode:overlay" opacity="0.3">
<path d="M44.9404 29.6895L62.4594 56.9711H142.846L134.789 31.1988L44.9404 29.6895Z" fill="#FFF7CC"/>
</g>
<g style="mix-blend-mode:multiply" opacity="0.3">
<path d="M36.915 21.6641H540.887L532.525 34.5025L41.1074 28.0833L36.915 21.6641Z" fill="#B86053"/>
</g>
<g style="mix-blend-mode:overlay" opacity="0.3">
<path d="M527.244 36.9102L514.045 56.9702H468.661L476.995 36.9102H527.244Z" fill="#FFF7CC"/>
</g>
<path d="M386.945 54.5631H424.846L428.536 46.5391H385.201L386.945 54.5631Z" fill="url(#paint24_linear_1305_1368)"/>
<path d="M428.536 46.5391L424.846 54.5631H423.465L424.846 48.3004L385.586 48.3222L385.201 46.5391H428.536Z" fill="black"/>
<path d="M206.906 54.5631H169.008L165.315 46.5391H208.651L206.906 54.5631Z" fill="url(#paint25_linear_1305_1368)"/>
<path d="M165.315 46.5391L169.008 54.5631H170.367L169.008 48.3004L208.266 48.3222L208.651 46.5391H165.315Z" fill="black"/>
<g style="mix-blend-mode:multiply">
<path d="M337.854 125.173H343.811L361.127 91.177L349.48 90.6699L337.854 125.173Z" fill="#364665"/>
</g>
<path style="mix-blend-mode:screen" opacity="0.21" d="M232.726 98.6953L240.71 123.57H335.171L341.866 105.097H338.752L332.569 119.162H246.96L240.71 98.6953H232.726Z" fill="url(#paint26_linear_1305_1368)"/>
<path d="M509.753 800.119C510.762 771.801 509.083 743.461 504.732 715.368L477.873 705.503C494.236 542.024 503.208 385.232 500.443 238.921C469.025 228.815 436.872 220.404 404.18 213.738L411.741 190.025C412.998 168.676 412.149 147.277 409.202 126.047C369.295 121.928 329.106 120.042 288.902 120.403C248.672 120.119 208.465 122.083 168.545 126.284C165.561 147.512 164.674 168.911 165.893 190.262L173.454 213.975C140.787 220.583 108.654 228.931 77.2479 238.969C74.5958 385.28 83.5676 542.071 99.8183 705.55L73.0723 715.368C68.6954 743.443 67.016 771.769 68.0504 800.071C55.5244 812.387 44.802 825.921 36.1133 840.384C204.415 850.723 373.389 850.723 541.69 840.384C532.957 825.957 522.238 812.443 509.753 800.119Z" fill="url(#paint27_linear_1305_1368)"/>
<path style="mix-blend-mode:screen" d="M75.2255 756.532C70.9169 771.385 69.403 786.755 70.734 802.133C62.6664 808.081 55.821 815.03 50.4373 822.736C77.1758 828.678 104.621 830.857 132.095 832.689C132.788 829.563 133.204 827.401 133.929 824.373C134.569 820.545 134.56 816.645 133.904 812.782L123.799 811.371C102.032 796.731 85.2675 777.804 75.2255 756.532Z" fill="url(#paint28_linear_1305_1368)"/>
<path d="M491.995 556.693C485.906 570.503 478.56 583.628 470.064 595.878C461.619 608.157 452.152 619.557 443.127 631.177L443.604 629.894C441.561 664.35 437.542 698.55 433.388 732.529C429.233 766.509 424.277 801.1 419.441 835.117L415.577 835.546C420.413 801.529 425.146 766.032 429.471 731.979C433.796 697.926 437.713 663.764 439.688 629.527V628.794L440.13 628.281C449.393 616.845 459.065 605.848 467.714 594.045C476.406 582.155 483.991 569.374 490.361 555.887L491.995 556.693Z" fill="black"/>
<path d="M93.2769 545.633C100.561 559.679 109.236 572.989 119.176 585.372C129.029 597.665 140.012 609.117 150.8 621.142L151.307 621.676V622.44C153.643 658.095 158.2 693.635 162.99 729.328C167.781 765.021 173.533 801.367 179.025 836.831H174.731C169.201 801.405 163.497 765.251 158.55 729.71C153.604 694.17 149.126 658.591 146.867 622.822L147.412 624.158C137.052 612.056 126.264 600.184 116.606 587.396C106.856 574.613 98.4401 560.903 91.4854 546.473L93.2769 545.633Z" fill="black"/>
<path d="M36.1133 840.918C36.566 850.133 38.2499 859.28 41.1352 868.2H536.612C539.544 859.287 541.247 850.137 541.69 840.918C373.389 850.914 204.415 850.914 36.1133 840.918H36.1133Z" fill="#364665"/>
<path d="M283.283 840.919C232.402 840.919 180.262 838.956 123.029 834.801H122.399V834.299C121.176 828.123 118.823 822.124 115.417 816.492C97.1207 812.788 78.2416 811.25 59.3848 811.927V810.603C78.5268 809.876 97.6981 811.415 116.275 815.168H116.619V815.442C120.081 821.119 122.509 827.161 123.83 833.386C180.434 837.495 232.574 839.458 283.283 839.458C333.992 839.458 386.304 837.495 442.737 833.386C444.013 827.159 446.423 821.114 449.891 815.442V815.168H450.291C468.868 811.415 488.04 809.876 507.182 810.603V811.972C488.306 811.296 469.408 812.834 451.093 816.538C447.736 822.185 445.386 828.178 444.11 834.344V834.847H443.481C386.59 838.956 334.164 840.919 283.283 840.919Z" fill="black"/>
<path d="M464.122 737.854C469.561 718.521 466.375 700.746 457.005 698.153C447.634 695.561 435.629 709.131 430.19 728.465C424.751 747.798 427.938 765.573 437.308 768.166C446.678 770.758 458.683 757.188 464.122 737.854Z" fill="black"/>
<path d="M437.585 732.68C433.372 749.861 436.132 764.305 443.723 765.097C451.313 765.89 460.937 752.419 465.186 735.274C469.436 718.129 466.639 703.613 459.012 702.857C451.386 702.1 441.798 715.499 437.585 732.68Z" fill="url(#paint29_linear_1305_1368)"/>
<path d="M443.287 759.912C440.6 756.058 439.256 746.441 442.452 733.51C446.519 716.978 455.272 705.956 460.611 706.46C461.201 706.519 461.768 706.72 462.262 707.047C462.756 707.373 463.162 707.815 463.443 708.333C466.131 712.151 467.475 721.804 464.279 734.735C460.32 750.799 451.459 762.253 446.12 761.785C445.529 761.726 444.962 761.525 444.468 761.198C443.975 760.872 443.569 760.43 443.287 759.912ZM463.552 734.699C466.676 721.984 465.441 712.619 462.826 708.909C462.588 708.492 462.259 708.134 461.863 707.859C461.467 707.585 461.015 707.402 460.538 707.324C455.526 706.892 447.028 718.13 443.178 733.834C440.055 746.513 441.29 755.914 443.905 759.624C444.142 760.041 444.471 760.4 444.867 760.674C445.263 760.948 445.716 761.131 446.193 761.209C451.35 761.497 459.703 750.331 463.552 734.555V734.699Z" fill="#FF0053"/>
<path style="mix-blend-mode:screen" d="M445.285 733.905C448.663 720.146 456.18 709.881 460.538 710.277C460.793 710.277 461.519 710.277 462.354 711.573C464.679 714.815 465.768 723.172 462.972 734.517C461.339 742.798 457.299 750.423 451.35 756.453C452.423 754.592 453.229 752.591 453.747 750.51C454.76 747.625 454.67 744.472 453.493 741.649C453.166 741.181 452.875 741.145 452.803 741.145C451.132 741.145 448.19 744.963 446.883 750.294C446.223 752.638 446.099 755.099 446.52 757.498C446.235 757.276 445.989 757.008 445.793 756.705C443.578 753.572 442.488 745.215 445.285 733.905Z" fill="url(#paint30_linear_1305_1368)"/>
<path d="M449.097 757.212C450.005 757.212 451.966 754.726 452.91 750.548C453.605 748.479 453.605 746.242 452.91 744.173C452.91 743.849 452.547 743.812 452.474 743.812C451.421 743.812 449.533 746.586 448.661 750.44C447.966 752.521 447.966 754.77 448.661 756.851C448.879 757.176 449.024 757.212 449.097 757.212Z" fill="black"/>
<path d="M448.59 750.331C449.006 748.422 449.769 746.603 450.842 744.964C450.993 744.902 451.163 744.902 451.314 744.964C451.314 744.964 451.532 744.964 451.714 745.253C452.322 747.138 452.322 749.166 451.714 751.052C451.413 753.303 450.35 755.386 448.699 756.959C447.919 754.823 447.881 752.491 448.59 750.331Z" fill="#596B89"/>
<g style="mix-blend-mode:multiply" opacity="0.15">
<path d="M302.771 848.988L301.742 868.999C349.567 868.862 396.706 867.984 444.588 866.803C440.245 863.893 435.846 861.313 431.503 858.568C431.503 858.568 428.932 851.678 428.075 848.137C387.164 848.823 343.682 849.152 302.771 848.988Z" fill="#364665"/>
</g>
<path style="mix-blend-mode:screen" d="M504.849 744.629C506.128 765.32 505.832 786.064 503.965 806.72C513.096 816.918 521.157 827.822 528.047 839.3C514.451 839.264 500.868 840.072 487.402 841.72C485 830.766 481.932 819.934 478.211 809.27C476.455 801.831 475.142 794.317 474.279 786.758C487.547 774.636 497.938 760.315 504.849 744.629Z" fill="url(#paint31_linear_1305_1368)"/>
<path d="M157.272 635.962C161.923 667.583 151.598 693.295 134.018 693.458C116.437 693.621 97.9269 668.072 93.276 636.451C88.6252 604.831 98.9966 579.119 116.53 578.997C134.064 578.874 152.528 604.383 157.272 635.962Z" fill="black"/>
<path d="M142.482 637.021C146.854 664.893 139.18 687.345 125.413 687.182C111.646 687.019 96.9497 664.322 92.5778 636.451C88.206 608.579 95.88 586.127 109.647 586.29C123.413 586.453 138.11 609.15 142.482 637.021Z" fill="url(#paint32_linear_1305_1368)"/>
<path d="M121.739 681.722C112.158 681.722 98.4844 662 94.3451 635.921C91.0895 614.936 95.2288 599.9 100.81 594.317C101.423 593.545 102.235 592.91 103.181 592.464C104.126 592.018 105.178 591.773 106.251 591.75C115.879 591.75 129.506 610.698 133.738 637.551C136.994 658.536 132.808 673.572 127.227 679.155C126.612 679.935 125.793 680.575 124.838 681.021C123.883 681.468 122.821 681.708 121.739 681.722ZM121.739 680.54C122.611 680.511 123.463 680.299 124.223 679.924C124.983 679.548 125.63 679.019 126.111 678.38C131.506 673.002 135.412 658.332 132.296 637.632C128.296 612.124 115.181 592.809 106.158 592.809C105.281 592.842 104.424 593.055 103.657 593.43C102.889 593.805 102.233 594.332 101.74 594.969C96.3915 600.348 92.4382 615.017 95.6008 635.717C99.6006 661.266 112.67 680.418 121.692 680.54H121.739Z" fill="#FF0053"/>
<path style="mix-blend-mode:screen" d="M128.482 637.717C124.994 615.346 113.274 597.946 105.553 597.824C105.135 597.824 103.786 597.824 102.065 599.576C97.4144 604.344 93.7867 617.424 96.6703 635.761C99.5538 654.097 106.809 666.648 113.181 672.434C111.583 669.328 110.517 666.033 110.018 662.654C108.719 657.916 109.465 652.924 112.111 648.637C112.263 648.444 112.464 648.285 112.698 648.171C112.932 648.058 113.193 647.994 113.46 647.985C116.436 647.985 120.994 654.749 122.343 663.388C123.107 667.285 122.853 671.284 121.599 675.082C122.154 674.765 122.655 674.381 123.087 673.942C127.831 669.133 131.366 656.094 128.482 637.717Z" fill="url(#paint33_linear_1305_1368)"/>
<path d="M114.078 647.634C112.404 647.634 109.428 643.234 108.497 636.469C107.69 633.066 108.146 629.525 109.8 626.364C110.218 625.875 110.544 625.875 110.637 625.875C112.544 625.875 115.288 630.765 116.218 636.999C117.035 640.416 116.579 643.973 114.916 647.145C114.497 647.634 114.171 647.634 114.078 647.634Z" fill="black"/>
<path d="M116.219 636.997C115.899 633.93 114.92 630.944 113.335 628.195C113.108 628.029 112.836 627.916 112.544 627.869C112.544 627.869 112.126 627.869 111.754 628.317C110.261 631.186 109.837 634.394 110.545 637.486C110.707 641.088 112.228 644.542 114.87 647.306C116.589 644.09 117.063 640.47 116.219 636.997Z" fill="#FF0000"/>
<path d="M436.808 635.983C432.648 667.592 441.884 693.295 457.611 693.458C473.338 693.621 489.731 668.081 494.017 636.431C498.302 604.781 488.899 579.119 473.214 578.997C457.528 578.874 441.052 604.414 436.808 635.983Z" fill="black"/>
<path d="M494.082 640.387C498.924 612.6 493.134 588.453 481.152 586.451C469.169 584.45 455.531 605.354 450.69 633.141C445.848 660.927 451.638 685.075 463.62 687.076C475.603 689.077 489.241 668.174 494.082 640.387Z" fill="url(#paint34_linear_1305_1368)"/>
<path d="M463.936 678.998C458.943 673.418 455.199 658.387 458.153 637.409C461.897 610.566 474.088 591.747 482.7 591.625C483.66 591.648 484.602 591.893 485.447 592.339C486.293 592.785 487.02 593.419 487.568 594.191C492.561 599.772 496.264 614.802 493.351 635.78C489.69 661.85 477.416 681.442 468.845 681.565C467.877 681.551 466.927 681.311 466.073 680.864C465.219 680.418 464.486 679.778 463.936 678.998ZM492.145 635.617C495.016 615.006 491.479 600.342 486.653 594.884C486.216 594.252 485.635 593.728 484.957 593.354C484.278 592.979 483.52 592.764 482.742 592.725C474.421 592.725 462.896 611.992 459.359 637.532C456.447 658.143 460.025 672.807 464.851 678.265C465.281 678.904 465.86 679.432 466.54 679.808C467.22 680.183 467.982 680.395 468.762 680.424C476.751 680.424 488.4 661.279 491.978 635.78L492.145 635.617Z" fill="#FF0657"/>
<path style="mix-blend-mode:screen" d="M462.562 637.734C465.682 615.371 476.167 597.978 483.074 597.855C483.49 597.855 484.655 597.855 486.194 599.607C490.355 604.373 493.6 617.448 491.02 635.778C488.441 654.108 481.95 666.654 476.25 672.439C477.68 669.334 478.633 666.04 479.079 662.662C480.241 657.925 479.575 652.935 477.207 648.65C477.072 648.457 476.892 648.298 476.683 648.185C476.473 648.072 476.24 648.008 476.001 647.998C473.338 647.998 469.302 654.76 468.095 663.396C467.382 667.288 467.596 671.288 468.72 675.086C468.223 674.769 467.775 674.385 467.388 673.946C463.144 669.139 459.982 656.104 462.562 637.734Z" fill="url(#paint35_linear_1305_1368)"/>
<path d="M475.039 650.717C476.495 650.717 479.2 646.317 479.99 639.556C480.712 636.153 480.304 632.613 478.825 629.454C478.451 628.965 478.159 628.965 478.076 628.965C476.37 628.965 473.916 633.853 473.083 640.085C472.352 643.501 472.761 647.056 474.248 650.228C474.623 650.717 474.914 650.717 474.997 650.717H475.039Z" fill="black"/>
<path d="M473.084 640.085C473.42 636.992 474.322 633.984 475.746 631.205C475.95 631.038 476.193 630.926 476.454 630.879C476.454 630.879 476.828 630.879 477.161 631.327C478.519 634.188 478.899 637.403 478.243 640.492C478.116 644.097 476.753 647.555 474.373 650.309C472.825 647.127 472.373 643.54 473.084 640.085Z" fill="#FF0000"/>
<path d="M454.377 493.703L404.792 543.846V592.575H180.627V533.716L139.823 493.703V338.21L186.309 302.756L205.936 254.133H398.077L414.606 309.34L454.377 338.21V493.703Z" stroke="#24334F" stroke-width="9"/>
<g filter="url(#filter0_i_1305_1368)">
<path d="M453.861 493.501L404.358 543.602V590.167H180.561V533.48L139.823 493.501V338.139L186.233 302.715L205.828 254.133H397.654L414.155 309.294L453.861 338.139V493.501Z" fill="url(#paint36_linear_1305_1368)"/>
<path style="mix-blend-mode:screen" d="M435.085 322.597C428.27 318.874 421.095 315.275 413.562 311.956L408.397 309.598L407.105 304.696C404.565 294.949 401.416 285.328 397.671 275.876C395.842 275.628 394.084 275.442 392.147 275.225C378.193 380.485 359.217 485.591 334.646 589.58C336.87 589.58 339.094 589.766 341.282 589.766C348.473 589.753 355.658 589.4 362.804 588.711C365.733 584.738 368.335 580.592 370.589 576.302C376.328 534.297 381.35 452.552 381.35 452.552L381.565 446.999L386.874 443.896C404.992 432.943 421.224 419.824 435.085 404.932C439.196 377.602 439.196 349.926 435.085 322.597Z" fill="url(#paint37_linear_1305_1368)"/>
</g>
<path d="M55.8252 231.022C93.7604 215.955 133.897 207.161 174.661 204.984L182.219 233.163C149.58 241.063 117.463 250.982 86.0559 262.864L55.8252 231.022Z" fill="#18191C"/>
<path d="M539.46 231.022C501.51 215.937 461.352 207.142 420.567 204.984L413.01 233.163C445.692 241.132 477.846 251.127 509.285 263.089L539.46 231.022Z" fill="#18191C"/>
<path d="M182.332 232.937L174.774 204.759C173.486 179.39 174.335 153.958 177.312 128.732C257.243 119.433 337.985 119.433 417.916 128.732C420.808 153.965 421.695 179.386 420.567 204.759L413.01 232.937C413.22 207.161 411.864 181.396 408.949 155.784C335.4 146.118 260.9 146.118 187.351 155.784C184.035 181.369 182.358 207.139 182.332 232.937Z" fill="#18191C"/>
<path d="M99.4795 230.737C103.795 248.422 110.393 265.472 119.107 281.459L148.21 274.189C146.319 255.77 146.319 237.207 148.21 218.789C131.427 220.118 114.971 224.153 99.4795 230.737Z" fill="url(#paint38_linear_1305_1368)"/>
<path d="M119.106 281.629L128.018 284.39C128.018 284.39 152.383 279.374 153.229 279.374C154.075 279.374 157.177 239.473 157.177 239.473L148.209 218.959C146.319 237.377 146.319 255.94 148.209 274.358L119.106 281.629Z" fill="black"/>
<path d="M146.462 147.047C140.37 147.047 134.448 148.231 128.357 148.513C126.432 137.994 125.601 127.304 125.875 116.614C132.626 115.088 139.544 114.425 146.462 114.642C145.503 125.688 146.462 135.776 146.462 147.047Z" fill="#2A2A2A"/>
<path d="M146.461 119.885C141.473 120.087 136.511 120.71 131.628 121.745C131.41 130.53 131.957 139.317 133.263 148.007C137.719 147.669 142.231 147.162 146.743 146.936C146.461 137.637 145.841 128.958 146.461 119.885Z" fill="#8B9BB8"/>
<path d="M389.402 219.108C328.097 215.163 266.905 215.163 205.826 219.108V170.474C266.89 162.449 328.337 162.449 389.402 170.474V219.108Z" fill="black"/>
<path d="M211.86 175.405V215.71C268.833 211.939 325.899 211.939 383.06 215.71V175.405C326.112 167.274 268.808 167.274 211.86 175.405Z" fill="#596B89"/>
<path d="M55.7129 197.996L110.421 177.482L112.508 98.0176L106.248 99.0884L104.838 173.988L55.7129 193.262V197.996Z" fill="black"/>
<path d="M495.693 230.737C491.377 248.422 484.779 265.472 476.066 281.459L446.963 274.189C448.853 255.77 448.853 237.207 446.963 218.789C463.745 220.118 480.201 224.153 495.693 230.737Z" fill="url(#paint39_linear_1305_1368)"/>
<path d="M476.066 281.629L467.155 284.39C467.155 284.39 442.79 279.374 441.944 279.374C441.098 279.374 437.996 239.473 437.996 239.473L446.964 218.959C448.854 237.377 448.854 255.94 446.964 274.358L476.066 281.629Z" fill="#010101"/>
<path d="M448.654 147.048C454.746 147.048 460.724 148.232 466.759 148.514C468.711 137.998 469.543 127.306 469.24 116.615C462.485 115.123 455.568 114.499 448.654 114.755C449.67 125.689 448.711 135.777 448.654 147.048Z" fill="#2B2B2B"/>
<path d="M448.937 119.885C453.925 120.084 458.887 120.706 463.77 121.745C464.016 130.524 463.525 139.309 462.303 148.007C457.791 147.669 453.336 147.162 448.767 146.936C448.711 137.637 449.331 128.958 448.937 119.885Z" fill="#8B9BB8"/>
<path d="M539.46 197.996L484.752 177.482L482.665 98.0176L488.925 99.0884L490.336 173.988L539.46 193.262V197.996Z" fill="black"/>
<g style="mix-blend-mode:multiply" opacity="0.15">
<path d="M404.154 122.812C405.773 113.512 406.359 104.062 405.903 94.6333C374.826 91.1955 343.862 90.6883 312.616 90.0684L310.36 117.796C341.705 117.24 373.049 118.916 404.154 122.812Z" fill="black"/>
</g>
<g style="mix-blend-mode:soft-light">
<path d="M229.768 187.432C229.768 187.815 229.735 188.148 229.668 188.432C229.735 188.698 229.768 189.032 229.768 189.432C229.768 189.815 229.735 190.148 229.668 190.432H228.668C228.735 190.698 228.768 191.032 228.768 191.432C228.768 191.815 228.735 192.148 228.668 192.432H223.668C223.735 192.698 223.768 193.032 223.768 193.432C223.768 193.815 223.735 194.148 223.668 194.432C223.735 194.698 223.768 195.032 223.768 195.432C223.768 195.815 223.735 196.148 223.668 196.432C223.735 196.698 223.768 197.032 223.768 197.432C223.768 197.815 223.735 198.148 223.668 198.432H221.668C221.601 198.148 221.568 197.815 221.568 197.432C221.568 197.032 221.601 196.698 221.668 196.432C221.601 196.148 221.568 195.815 221.568 195.432C221.568 195.032 221.601 194.698 221.668 194.432C221.601 194.148 221.568 193.815 221.568 193.432C221.568 193.032 221.601 192.698 221.668 192.432C221.601 192.148 221.568 191.815 221.568 191.432C221.568 191.032 221.601 190.698 221.668 190.432C221.601 190.148 221.568 189.815 221.568 189.432C221.568 189.032 221.601 188.698 221.668 188.432C221.601 188.148 221.568 187.815 221.568 187.432C221.568 187.032 221.601 186.698 221.668 186.432C221.601 186.148 221.568 185.815 221.568 185.432C221.568 185.032 221.601 184.698 221.668 184.432H228.668C228.735 184.698 228.768 185.032 228.768 185.432C228.768 185.815 228.735 186.148 228.668 186.432H229.668C229.735 186.698 229.768 187.032 229.768 187.432ZM227.668 190.432C227.601 190.148 227.568 189.815 227.568 189.432C227.568 189.032 227.601 188.698 227.668 188.432C227.601 188.148 227.568 187.815 227.568 187.432C227.568 187.032 227.601 186.698 227.668 186.432H223.668C223.735 186.698 223.768 187.032 223.768 187.432C223.768 187.815 223.735 188.148 223.668 188.432C223.735 188.698 223.768 189.032 223.768 189.432C223.768 189.815 223.735 190.148 223.668 190.432H227.668ZM239.678 190.432C239.744 190.698 239.778 191.032 239.778 191.432C239.778 191.815 239.744 192.148 239.678 192.432H237.678C237.611 192.148 237.578 191.815 237.578 191.432C237.578 191.032 237.611 190.698 237.678 190.432H235.928C235.994 190.698 236.028 191.032 236.028 191.432C236.028 191.815 235.994 192.148 235.928 192.432H235.178C235.244 192.698 235.278 193.032 235.278 193.432C235.278 193.815 235.244 194.148 235.178 194.432C235.244 194.698 235.278 195.032 235.278 195.432C235.278 195.815 235.244 196.148 235.178 196.432H236.678C236.744 196.698 236.778 197.032 236.778 197.432C236.778 197.815 236.744 198.148 236.678 198.432H231.678C231.611 198.148 231.578 197.815 231.578 197.432C231.578 197.032 231.611 196.698 231.678 196.432H233.178C233.111 196.148 233.078 195.815 233.078 195.432C233.078 195.032 233.111 194.698 233.178 194.432C233.111 194.148 233.078 193.815 233.078 193.432C233.078 193.032 233.111 192.698 233.178 192.432C233.111 192.148 233.078 191.815 233.078 191.432C233.078 191.032 233.111 190.698 233.178 190.432H231.678C231.611 190.148 231.578 189.815 231.578 189.432C231.578 189.032 231.611 188.698 231.678 188.432H234.178C234.244 188.698 234.278 189.032 234.278 189.432C234.278 189.815 234.244 190.148 234.178 190.432H235.178C235.111 190.148 235.078 189.815 235.078 189.432C235.078 189.032 235.111 188.698 235.178 188.432H238.928C238.994 188.698 239.028 189.032 239.028 189.432C239.028 189.815 238.994 190.148 238.928 190.432H239.678ZM244.688 186.432C244.621 186.148 244.588 185.815 244.588 185.432C244.588 185.032 244.621 184.698 244.688 184.432H246.688C246.754 184.698 246.788 185.032 246.788 185.432C246.788 185.815 246.754 186.148 246.688 186.432H244.688ZM248.688 196.432C248.754 196.698 248.788 197.032 248.788 197.432C248.788 197.815 248.754 198.148 248.688 198.432H242.688C242.621 198.148 242.588 197.815 242.588 197.432C242.588 197.032 242.621 196.698 242.688 196.432H244.688C244.621 196.148 244.588 195.815 244.588 195.432C244.588 195.032 244.621 194.698 244.688 194.432C244.621 194.148 244.588 193.815 244.588 193.432C244.588 193.032 244.621 192.698 244.688 192.432C244.621 192.148 244.588 191.815 244.588 191.432C244.588 191.032 244.621 190.698 244.688 190.432H243.188C243.121 190.148 243.088 189.815 243.088 189.432C243.088 189.032 243.121 188.698 243.188 188.432H246.688C246.754 188.698 246.788 189.032 246.788 189.432C246.788 189.815 246.754 190.148 246.688 190.432C246.754 190.698 246.788 191.032 246.788 191.432C246.788 191.815 246.754 192.148 246.688 192.432C246.754 192.698 246.788 193.032 246.788 193.432C246.788 193.815 246.754 194.148 246.688 194.432C246.754 194.698 246.788 195.032 246.788 195.432C246.788 195.815 246.754 196.148 246.688 196.432H248.688ZM253.047 189.432C253.047 189.815 253.014 190.148 252.947 190.432H253.697C253.764 190.698 253.797 191.032 253.797 191.432C253.797 191.815 253.764 192.148 253.697 192.432C253.764 192.698 253.797 193.032 253.797 193.432C253.797 193.815 253.764 194.148 253.697 194.432C253.764 194.698 253.797 195.032 253.797 195.432C253.797 195.815 253.764 196.148 253.697 196.432C253.764 196.698 253.797 197.032 253.797 197.432C253.797 197.815 253.764 198.148 253.697 198.432H251.697C251.631 198.148 251.597 197.815 251.597 197.432C251.597 197.032 251.631 196.698 251.697 196.432C251.631 196.148 251.597 195.815 251.597 195.432C251.597 195.032 251.631 194.698 251.697 194.432C251.631 194.148 251.597 193.815 251.597 193.432C251.597 193.032 251.631 192.698 251.697 192.432C251.631 192.148 251.597 191.815 251.597 191.432C251.597 191.032 251.631 190.698 251.697 190.432C251.631 190.148 251.597 189.815 251.597 189.432C251.597 189.032 251.631 188.698 251.697 188.432H252.947C253.014 188.698 253.047 189.032 253.047 189.432ZM255.797 189.432C255.797 189.815 255.764 190.148 255.697 190.432H256.447C256.514 190.698 256.547 191.032 256.547 191.432C256.547 191.815 256.514 192.148 256.447 192.432C256.514 192.698 256.547 193.032 256.547 193.432C256.547 193.815 256.514 194.148 256.447 194.432C256.514 194.698 256.547 195.032 256.547 195.432C256.547 195.815 256.514 196.148 256.447 196.432C256.514 196.698 256.547 197.032 256.547 197.432C256.547 197.815 256.514 198.148 256.447 198.432H254.947C254.881 198.148 254.847 197.815 254.847 197.432C254.847 197.032 254.881 196.698 254.947 196.432C254.881 196.148 254.847 195.815 254.847 195.432C254.847 195.032 254.881 194.698 254.947 194.432C254.881 194.148 254.847 193.815 254.847 193.432C254.847 193.032 254.881 192.698 254.947 192.432C254.881 192.148 254.847 191.815 254.847 191.432C254.847 191.032 254.881 190.698 254.947 190.432H253.697C253.631 190.148 253.597 189.815 253.597 189.432C253.597 189.032 253.631 188.698 253.697 188.432H255.697C255.764 188.698 255.797 189.032 255.797 189.432ZM259.697 192.432C259.764 192.698 259.797 193.032 259.797 193.432C259.797 193.815 259.764 194.148 259.697 194.432C259.764 194.698 259.797 195.032 259.797 195.432C259.797 195.815 259.764 196.148 259.697 196.432C259.764 196.698 259.797 197.032 259.797 197.432C259.797 197.815 259.764 198.148 259.697 198.432H257.697C257.631 198.148 257.597 197.815 257.597 197.432C257.597 197.032 257.631 196.698 257.697 196.432C257.631 196.148 257.597 195.815 257.597 195.432C257.597 195.032 257.631 194.698 257.697 194.432C257.631 194.148 257.597 193.815 257.597 193.432C257.597 193.032 257.631 192.698 257.697 192.432C257.631 192.148 257.597 191.815 257.597 191.432C257.597 191.032 257.631 190.698 257.697 190.432H256.447C256.381 190.148 256.347 189.815 256.347 189.432C256.347 189.032 256.381 188.698 256.447 188.432H258.697C258.764 188.698 258.797 189.032 258.797 189.432C258.797 189.815 258.764 190.148 258.697 190.432H259.697C259.764 190.698 259.797 191.032 259.797 191.432C259.797 191.815 259.764 192.148 259.697 192.432ZM269.707 196.432C269.774 196.698 269.807 197.032 269.807 197.432C269.807 197.815 269.774 198.148 269.707 198.432H267.707C267.64 198.148 267.607 197.815 267.607 197.432C267.607 197.032 267.64 196.698 267.707 196.432H266.707C266.64 196.148 266.607 195.815 266.607 195.432C266.607 195.032 266.64 194.698 266.707 194.432H263.707C263.774 194.698 263.807 195.032 263.807 195.432C263.807 195.815 263.774 196.148 263.707 196.432H266.707C266.774 196.698 266.807 197.032 266.807 197.432C266.807 197.815 266.774 198.148 266.707 198.432H262.707C262.64 198.148 262.607 197.815 262.607 197.432C262.607 197.032 262.64 196.698 262.707 196.432H261.707C261.64 196.148 261.607 195.815 261.607 195.432C261.607 195.032 261.64 194.698 261.707 194.432H262.707C262.64 194.148 262.607 193.815 262.607 193.432C262.607 193.032 262.64 192.698 262.707 192.432H266.707C266.64 192.148 266.607 191.815 266.607 191.432C266.607 191.032 266.64 190.698 266.707 190.432H263.207C263.14 190.148 263.107 189.815 263.107 189.432C263.107 189.032 263.14 188.698 263.207 188.432H267.707C267.774 188.698 267.807 189.032 267.807 189.432C267.807 189.815 267.774 190.148 267.707 190.432H268.707C268.774 190.698 268.807 191.032 268.807 191.432C268.807 191.815 268.774 192.148 268.707 192.432C268.774 192.698 268.807 193.032 268.807 193.432C268.807 193.815 268.774 194.148 268.707 194.432C268.774 194.698 268.807 195.032 268.807 195.432C268.807 195.815 268.774 196.148 268.707 196.432H269.707ZM279.717 190.432C279.783 190.698 279.817 191.032 279.817 191.432C279.817 191.815 279.783 192.148 279.717 192.432H277.717C277.65 192.148 277.617 191.815 277.617 191.432C277.617 191.032 277.65 190.698 277.717 190.432H275.967C276.033 190.698 276.067 191.032 276.067 191.432C276.067 191.815 276.033 192.148 275.967 192.432H275.217C275.283 192.698 275.317 193.032 275.317 193.432C275.317 193.815 275.283 194.148 275.217 194.432C275.283 194.698 275.317 195.032 275.317 195.432C275.317 195.815 275.283 196.148 275.217 196.432H276.717C276.783 196.698 276.817 197.032 276.817 197.432C276.817 197.815 276.783 198.148 276.717 198.432H271.717C271.65 198.148 271.617 197.815 271.617 197.432C271.617 197.032 271.65 196.698 271.717 196.432H273.217C273.15 196.148 273.117 195.815 273.117 195.432C273.117 195.032 273.15 194.698 273.217 194.432C273.15 194.148 273.117 193.815 273.117 193.432C273.117 193.032 273.15 192.698 273.217 192.432C273.15 192.148 273.117 191.815 273.117 191.432C273.117 191.032 273.15 190.698 273.217 190.432H271.717C271.65 190.148 271.617 189.815 271.617 189.432C271.617 189.032 271.65 188.698 271.717 188.432H274.217C274.283 188.698 274.317 189.032 274.317 189.432C274.317 189.815 274.283 190.148 274.217 190.432H275.217C275.15 190.148 275.117 189.815 275.117 189.432C275.117 189.032 275.15 188.698 275.217 188.432H278.967C279.033 188.698 279.067 189.032 279.067 189.432C279.067 189.815 279.033 190.148 278.967 190.432H279.717ZM289.827 189.432C289.827 189.815 289.793 190.148 289.727 190.432H288.977C289.043 190.698 289.077 191.032 289.077 191.432C289.077 191.815 289.043 192.148 288.977 192.432H288.227C288.293 192.698 288.327 193.032 288.327 193.432C288.327 193.815 288.293 194.148 288.227 194.432H287.727C287.793 194.698 287.827 195.032 287.827 195.432C287.827 195.815 287.793 196.148 287.727 196.432H286.977C287.043 196.698 287.077 197.032 287.077 197.432C287.077 197.815 287.043 198.148 286.977 198.432H286.477C286.543 198.698 286.577 199.032 286.577 199.432C286.577 199.815 286.543 200.148 286.477 200.432H285.477C285.543 200.698 285.577 201.032 285.577 201.432C285.577 201.815 285.543 202.148 285.477 202.432H282.477C282.41 202.148 282.377 201.815 282.377 201.432C282.377 201.032 282.41 200.698 282.477 200.432H284.477C284.41 200.148 284.377 199.815 284.377 199.432C284.377 199.032 284.41 198.698 284.477 198.432C284.41 198.148 284.377 197.815 284.377 197.432C284.377 197.032 284.41 196.698 284.477 196.432H283.477C283.41 196.148 283.377 195.815 283.377 195.432C283.377 195.032 283.41 194.698 283.477 194.432H282.977C282.91 194.148 282.877 193.815 282.877 193.432C282.877 193.032 282.91 192.698 282.977 192.432H282.227C282.16 192.148 282.127 191.815 282.127 191.432C282.127 191.032 282.16 190.698 282.227 190.432H281.477C281.41 190.148 281.377 189.815 281.377 189.432C281.377 189.032 281.41 188.698 281.477 188.432H283.477C283.543 188.698 283.577 189.032 283.577 189.432C283.577 189.815 283.543 190.148 283.477 190.432H284.227C284.293 190.698 284.327 191.032 284.327 191.432C284.327 191.815 284.293 192.148 284.227 192.432H284.977C285.043 192.698 285.077 193.032 285.077 193.432C285.077 193.815 285.043 194.148 284.977 194.432C285.043 194.698 285.077 195.032 285.077 195.432C285.077 195.815 285.043 196.148 284.977 196.432H285.727C285.66 196.148 285.627 195.815 285.627 195.432C285.627 195.032 285.66 194.698 285.727 194.432H286.227C286.16 194.148 286.127 193.815 286.127 193.432C286.127 193.032 286.16 192.698 286.227 192.432H286.977C286.91 192.148 286.877 191.815 286.877 191.432C286.877 191.032 286.91 190.698 286.977 190.432H287.727C287.66 190.148 287.627 189.815 287.627 189.432C287.627 189.032 287.66 188.698 287.727 188.432H289.727C289.793 188.698 289.827 189.032 289.827 189.432ZM309.746 194.432C309.813 194.698 309.846 195.032 309.846 195.432C309.846 195.815 309.813 196.148 309.746 196.432H308.746C308.813 196.698 308.846 197.032 308.846 197.432C308.846 197.815 308.813 198.148 308.746 198.432H303.746C303.679 198.148 303.646 197.815 303.646 197.432C303.646 197.032 303.679 196.698 303.746 196.432H302.746C302.679 196.148 302.646 195.815 302.646 195.432C302.646 195.032 302.679 194.698 302.746 194.432H301.746C301.679 194.148 301.646 193.815 301.646 193.432C301.646 193.032 301.679 192.698 301.746 192.432C301.679 192.148 301.646 191.815 301.646 191.432C301.646 191.032 301.679 190.698 301.746 190.432C301.679 190.148 301.646 189.815 301.646 189.432C301.646 189.032 301.679 188.698 301.746 188.432H302.746C302.679 188.148 302.646 187.815 302.646 187.432C302.646 187.032 302.679 186.698 302.746 186.432H303.746C303.679 186.148 303.646 185.815 303.646 185.432C303.646 185.032 303.679 184.698 303.746 184.432H308.746C308.813 184.698 308.846 185.032 308.846 185.432C308.846 185.815 308.813 186.148 308.746 186.432H309.746C309.813 186.698 309.846 187.032 309.846 187.432C309.846 187.815 309.813 188.148 309.746 188.432H307.746C307.679 188.148 307.646 187.815 307.646 187.432C307.646 187.032 307.679 186.698 307.746 186.432H304.746C304.813 186.698 304.846 187.032 304.846 187.432C304.846 187.815 304.813 188.148 304.746 188.432H303.746C303.813 188.698 303.846 189.032 303.846 189.432C303.846 189.815 303.813 190.148 303.746 190.432C303.813 190.698 303.846 191.032 303.846 191.432C303.846 191.815 303.813 192.148 303.746 192.432C303.813 192.698 303.846 193.032 303.846 193.432C303.846 193.815 303.813 194.148 303.746 194.432H304.746C304.813 194.698 304.846 195.032 304.846 195.432C304.846 195.815 304.813 196.148 304.746 196.432H307.746C307.679 196.148 307.646 195.815 307.646 195.432C307.646 195.032 307.679 194.698 307.746 194.432H309.746ZM313.856 189.432C313.856 189.815 313.823 190.148 313.756 190.432H314.506C314.573 190.698 314.606 191.032 314.606 191.432C314.606 191.815 314.573 192.148 314.506 192.432H313.756C313.823 192.698 313.856 193.032 313.856 193.432C313.856 193.815 313.823 194.148 313.756 194.432C313.823 194.698 313.856 195.032 313.856 195.432C313.856 195.815 313.823 196.148 313.756 196.432C313.823 196.698 313.856 197.032 313.856 197.432C313.856 197.815 313.823 198.148 313.756 198.432H311.756C311.689 198.148 311.656 197.815 311.656 197.432C311.656 197.032 311.689 196.698 311.756 196.432C311.689 196.148 311.656 195.815 311.656 195.432C311.656 195.032 311.689 194.698 311.756 194.432C311.689 194.148 311.656 193.815 311.656 193.432C311.656 193.032 311.689 192.698 311.756 192.432C311.689 192.148 311.656 191.815 311.656 191.432C311.656 191.032 311.689 190.698 311.756 190.432C311.689 190.148 311.656 189.815 311.656 189.432C311.656 189.032 311.689 188.698 311.756 188.432C311.689 188.148 311.656 187.815 311.656 187.432C311.656 187.032 311.689 186.698 311.756 186.432C311.689 186.148 311.656 185.815 311.656 185.432C311.656 185.032 311.689 184.698 311.756 184.432H313.756C313.823 184.698 313.856 185.032 313.856 185.432C313.856 185.815 313.823 186.148 313.756 186.432C313.823 186.698 313.856 187.032 313.856 187.432C313.856 187.815 313.823 188.148 313.756 188.432C313.823 188.698 313.856 189.032 313.856 189.432ZM319.756 192.432C319.823 192.698 319.856 193.032 319.856 193.432C319.856 193.815 319.823 194.148 319.756 194.432C319.823 194.698 319.856 195.032 319.856 195.432C319.856 195.815 319.823 196.148 319.756 196.432C319.823 196.698 319.856 197.032 319.856 197.432C319.856 197.815 319.823 198.148 319.756 198.432H317.756C317.689 198.148 317.656 197.815 317.656 197.432C317.656 197.032 317.689 196.698 317.756 196.432C317.689 196.148 317.656 195.815 317.656 195.432C317.656 195.032 317.689 194.698 317.756 194.432C317.689 194.148 317.656 193.815 317.656 193.432C317.656 193.032 317.689 192.698 317.756 192.432C317.689 192.148 317.656 191.815 317.656 191.432C317.656 191.032 317.689 190.698 317.756 190.432H314.506C314.439 190.148 314.406 189.815 314.406 189.432C314.406 189.032 314.439 188.698 314.506 188.432H318.506C318.573 188.698 318.606 189.032 318.606 189.432C318.606 189.815 318.573 190.148 318.506 190.432H319.756C319.823 190.698 319.856 191.032 319.856 191.432C319.856 191.815 319.823 192.148 319.756 192.432ZM329.766 196.432C329.832 196.698 329.866 197.032 329.866 197.432C329.866 197.815 329.832 198.148 329.766 198.432H327.766C327.699 198.148 327.666 197.815 327.666 197.432C327.666 197.032 327.699 196.698 327.766 196.432H326.766C326.699 196.148 326.666 195.815 326.666 195.432C326.666 195.032 326.699 194.698 326.766 194.432H323.766C323.832 194.698 323.866 195.032 323.866 195.432C323.866 195.815 323.832 196.148 323.766 196.432H326.766C326.832 196.698 326.866 197.032 326.866 197.432C326.866 197.815 326.832 198.148 326.766 198.432H322.766C322.699 198.148 322.666 197.815 322.666 197.432C322.666 197.032 322.699 196.698 322.766 196.432H321.766C321.699 196.148 321.666 195.815 321.666 195.432C321.666 195.032 321.699 194.698 321.766 194.432H322.766C322.699 194.148 322.666 193.815 322.666 193.432C322.666 193.032 322.699 192.698 322.766 192.432H326.766C326.699 192.148 326.666 191.815 326.666 191.432C326.666 191.032 326.699 190.698 326.766 190.432H323.266C323.199 190.148 323.166 189.815 323.166 189.432C323.166 189.032 323.199 188.698 323.266 188.432H327.766C327.832 188.698 327.866 189.032 327.866 189.432C327.866 189.815 327.832 190.148 327.766 190.432H328.766C328.832 190.698 328.866 191.032 328.866 191.432C328.866 191.815 328.832 192.148 328.766 192.432C328.832 192.698 328.866 193.032 328.866 193.432C328.866 193.815 328.832 194.148 328.766 194.432C328.832 194.698 328.866 195.032 328.866 195.432C328.866 195.815 328.832 196.148 328.766 196.432H329.766ZM333.125 189.432C333.125 189.815 333.092 190.148 333.025 190.432H333.775C333.842 190.698 333.875 191.032 333.875 191.432C333.875 191.815 333.842 192.148 333.775 192.432C333.842 192.698 333.875 193.032 333.875 193.432C333.875 193.815 333.842 194.148 333.775 194.432C333.842 194.698 333.875 195.032 333.875 195.432C333.875 195.815 333.842 196.148 333.775 196.432C333.842 196.698 333.875 197.032 333.875 197.432C333.875 197.815 333.842 198.148 333.775 198.432H331.775C331.709 198.148 331.675 197.815 331.675 197.432C331.675 197.032 331.709 196.698 331.775 196.432C331.709 196.148 331.675 195.815 331.675 195.432C331.675 195.032 331.709 194.698 331.775 194.432C331.709 194.148 331.675 193.815 331.675 193.432C331.675 193.032 331.709 192.698 331.775 192.432C331.709 192.148 331.675 191.815 331.675 191.432C331.675 191.032 331.709 190.698 331.775 190.432C331.709 190.148 331.675 189.815 331.675 189.432C331.675 189.032 331.709 188.698 331.775 188.432H333.025C333.092 188.698 333.125 189.032 333.125 189.432ZM335.875 189.432C335.875 189.815 335.842 190.148 335.775 190.432H336.525C336.592 190.698 336.625 191.032 336.625 191.432C336.625 191.815 336.592 192.148 336.525 192.432C336.592 192.698 336.625 193.032 336.625 193.432C336.625 193.815 336.592 194.148 336.525 194.432C336.592 194.698 336.625 195.032 336.625 195.432C336.625 195.815 336.592 196.148 336.525 196.432C336.592 196.698 336.625 197.032 336.625 197.432C336.625 197.815 336.592 198.148 336.525 198.432H335.025C334.959 198.148 334.925 197.815 334.925 197.432C334.925 197.032 334.959 196.698 335.025 196.432C334.959 196.148 334.925 195.815 334.925 195.432C334.925 195.032 334.959 194.698 335.025 194.432C334.959 194.148 334.925 193.815 334.925 193.432C334.925 193.032 334.959 192.698 335.025 192.432C334.959 192.148 334.925 191.815 334.925 191.432C334.925 191.032 334.959 190.698 335.025 190.432H333.775C333.709 190.148 333.675 189.815 333.675 189.432C333.675 189.032 333.709 188.698 333.775 188.432H335.775C335.842 188.698 335.875 189.032 335.875 189.432ZM339.775 192.432C339.842 192.698 339.875 193.032 339.875 193.432C339.875 193.815 339.842 194.148 339.775 194.432C339.842 194.698 339.875 195.032 339.875 195.432C339.875 195.815 339.842 196.148 339.775 196.432C339.842 196.698 339.875 197.032 339.875 197.432C339.875 197.815 339.842 198.148 339.775 198.432H337.775C337.709 198.148 337.675 197.815 337.675 197.432C337.675 197.032 337.709 196.698 337.775 196.432C337.709 196.148 337.675 195.815 337.675 195.432C337.675 195.032 337.709 194.698 337.775 194.432C337.709 194.148 337.675 193.815 337.675 193.432C337.675 193.032 337.709 192.698 337.775 192.432C337.709 192.148 337.675 191.815 337.675 191.432C337.675 191.032 337.709 190.698 337.775 190.432H336.525C336.459 190.148 336.425 189.815 336.425 189.432C336.425 189.032 336.459 188.698 336.525 188.432H338.775C338.842 188.698 338.875 189.032 338.875 189.432C338.875 189.815 338.842 190.148 338.775 190.432H339.775C339.842 190.698 339.875 191.032 339.875 191.432C339.875 191.815 339.842 192.148 339.775 192.432ZM343.785 194.432C343.852 194.698 343.885 195.032 343.885 195.432C343.885 195.815 343.852 196.148 343.785 196.432H342.785C342.852 196.698 342.885 197.032 342.885 197.432C342.885 197.815 342.852 198.148 342.785 198.432H341.785C341.718 198.148 341.685 197.815 341.685 197.432C341.685 197.032 341.718 196.698 341.785 196.432C341.718 196.148 341.685 195.815 341.685 195.432C341.685 195.032 341.718 194.698 341.785 194.432C341.718 194.148 341.685 193.815 341.685 193.432C341.685 193.032 341.718 192.698 341.785 192.432C341.718 192.148 341.685 191.815 341.685 191.432C341.685 191.032 341.718 190.698 341.785 190.432C341.718 190.148 341.685 189.815 341.685 189.432C341.685 189.032 341.718 188.698 341.785 188.432C341.718 188.148 341.685 187.815 341.685 187.432C341.685 187.032 341.718 186.698 341.785 186.432C341.718 186.148 341.685 185.815 341.685 185.432C341.685 185.032 341.718 184.698 341.785 184.432H343.785C343.852 184.698 343.885 185.032 343.885 185.432C343.885 185.815 343.852 186.148 343.785 186.432C343.852 186.698 343.885 187.032 343.885 187.432C343.885 187.815 343.852 188.148 343.785 188.432C343.852 188.698 343.885 189.032 343.885 189.432C343.885 189.815 343.852 190.148 343.785 190.432H344.785C344.852 190.698 344.885 191.032 344.885 191.432C344.885 191.815 344.852 192.148 344.785 192.432H343.785C343.852 192.698 343.885 193.032 343.885 193.432C343.885 193.815 343.852 194.148 343.785 194.432ZM349.885 193.432C349.885 193.815 349.852 194.148 349.785 194.432H348.785C348.852 194.698 348.885 195.032 348.885 195.432C348.885 195.815 348.852 196.148 348.785 196.432H346.785C346.718 196.148 346.685 195.815 346.685 195.432C346.685 195.032 346.718 194.698 346.785 194.432H347.785C347.718 194.148 347.685 193.815 347.685 193.432C347.685 193.032 347.718 192.698 347.785 192.432H346.785C346.718 192.148 346.685 191.815 346.685 191.432C346.685 191.032 346.718 190.698 346.785 190.432H344.785C344.718 190.148 344.685 189.815 344.685 189.432C344.685 189.032 344.718 188.698 344.785 188.432H347.785C347.852 188.698 347.885 189.032 347.885 189.432C347.885 189.815 347.852 190.148 347.785 190.432H348.785C348.852 190.698 348.885 191.032 348.885 191.432C348.885 191.815 348.852 192.148 348.785 192.432H349.785C349.852 192.698 349.885 193.032 349.885 193.432ZM343.685 197.432C343.685 197.032 343.718 196.698 343.785 196.432H346.785C346.852 196.698 346.885 197.032 346.885 197.432C346.885 197.815 346.852 198.148 346.785 198.432H343.785C343.718 198.148 343.685 197.815 343.685 197.432ZM359.895 191.432C359.895 191.815 359.862 192.148 359.795 192.432C359.862 192.698 359.895 193.032 359.895 193.432C359.895 193.815 359.862 194.148 359.795 194.432H354.545C354.612 194.698 354.645 195.032 354.645 195.432C354.645 195.815 354.612 196.148 354.545 196.432H358.795C358.862 196.698 358.895 197.032 358.895 197.432C358.895 197.815 358.862 198.148 358.795 198.432H353.795C353.728 198.148 353.695 197.815 353.695 197.432C353.695 197.032 353.728 196.698 353.795 196.432H352.545C352.478 196.148 352.445 195.815 352.445 195.432C352.445 195.032 352.478 194.698 352.545 194.432H351.795C351.728 194.148 351.695 193.815 351.695 193.432C351.695 193.032 351.728 192.698 351.795 192.432H352.545C352.478 192.148 352.445 191.815 352.445 191.432C352.445 191.032 352.478 190.698 352.545 190.432H353.795C353.728 190.148 353.695 189.815 353.695 189.432C353.695 189.032 353.728 188.698 353.795 188.432H358.795C358.862 188.698 358.895 189.032 358.895 189.432C358.895 189.815 358.862 190.148 358.795 190.432H359.795C359.862 190.698 359.895 191.032 359.895 191.432ZM357.795 192.432C357.728 192.148 357.695 191.815 357.695 191.432C357.695 191.032 357.728 190.698 357.795 190.432H354.545C354.612 190.698 354.645 191.032 354.645 191.432C354.645 191.815 354.612 192.148 354.545 192.432H357.795ZM369.805 190.432C369.871 190.698 369.905 191.032 369.905 191.432C369.905 191.815 369.871 192.148 369.805 192.432H367.805C367.738 192.148 367.705 191.815 367.705 191.432C367.705 191.032 367.738 190.698 367.805 190.432H366.055C366.121 190.698 366.155 191.032 366.155 191.432C366.155 191.815 366.121 192.148 366.055 192.432H365.305C365.371 192.698 365.405 193.032 365.405 193.432C365.405 193.815 365.371 194.148 365.305 194.432C365.371 194.698 365.405 195.032 365.405 195.432C365.405 195.815 365.371 196.148 365.305 196.432H366.805C366.871 196.698 366.905 197.032 366.905 197.432C366.905 197.815 366.871 198.148 366.805 198.432H361.805C361.738 198.148 361.705 197.815 361.705 197.432C361.705 197.032 361.738 196.698 361.805 196.432H363.305C363.238 196.148 363.205 195.815 363.205 195.432C363.205 195.032 363.238 194.698 363.305 194.432C363.238 194.148 363.205 193.815 363.205 193.432C363.205 193.032 363.238 192.698 363.305 192.432C363.238 192.148 363.205 191.815 363.205 191.432C363.205 191.032 363.238 190.698 363.305 190.432H361.805C361.738 190.148 361.705 189.815 361.705 189.432C361.705 189.032 361.738 188.698 361.805 188.432H364.305C364.371 188.698 364.405 189.032 364.405 189.432C364.405 189.815 364.371 190.148 364.305 190.432H365.305C365.238 190.148 365.205 189.815 365.205 189.432C365.205 189.032 365.238 188.698 365.305 188.432H369.055C369.121 188.698 369.155 189.032 369.155 189.432C369.155 189.815 369.121 190.148 369.055 190.432H369.805Z" fill="white"/>
</g>
<defs>
<filter id="filter0_i_1305_1368" x="139.823" y="254.133" width="314.038" height="340.035" filterUnits="userSpaceOnUse" color-interpolation-filters="sRGB">
<feFlood flood-opacity="0" result="BackgroundImageFix"/>
<feBlend mode="normal" in="SourceGraphic" in2="BackgroundImageFix" result="shape"/>
<feColorMatrix in="SourceAlpha" type="matrix" values="0 0 0 0 0 0 0 0 0 0 0 0 0 0 0 0 0 0 127 0" result="hardAlpha"/>
<feOffset dy="4"/>
<feGaussianBlur stdDeviation="2"/>
<feComposite in2="hardAlpha" operator="arithmetic" k2="-1" k3="1"/>
<feColorMatrix type="matrix" values="0 0 0 0 0 0 0 0 0 0 0 0 0 0 0 0 0 0 0.5 0"/>
<feBlend mode="normal" in2="shape" result="effect1_innerShadow_1305_1368"/>
</filter>
<linearGradient id="paint0_linear_1305_1368" x1="55.7136" y1="173.987" x2="539.517" y2="173.987" gradientUnits="userSpaceOnUse">
<stop stop-color="#596B89"/>
<stop offset="0.1" stop-color="#364665"/>
<stop offset="0.23" stop-color="#596B89"/>
<stop offset="0.4" stop-color="#C4CCDE"/>
<stop offset="0.59" stop-color="#C4CCDE"/>
<stop offset="0.67" stop-color="#596B89"/>
<stop offset="0.72" stop-color="#364665"/>
<stop offset="0.78" stop-color="#364665"/>
<stop offset="0.85" stop-color="#C4CCDE"/>
<stop offset="0.895833" stop-color="#596B89"/>
<stop offset="0.92" stop-color="#364665"/>
<stop offset="0.96875" stop-color="#596B89"/>
<stop offset="0.99" stop-color="#364665"/>
</linearGradient>
<linearGradient id="paint1_linear_1305_1368" x1="427.737" y1="198.204" x2="473.478" y2="198.204" gradientUnits="userSpaceOnUse">
<stop stop-color="#596B89"/>
<stop offset="0.1" stop-color="#364665"/>
<stop offset="0.23" stop-color="#596B89"/>
<stop offset="0.895833" stop-color="#596B89"/>
<stop offset="0.96875" stop-color="#596B89"/>
<stop offset="0.99" stop-color="#364665"/>
</linearGradient>
<linearGradient id="paint2_linear_1305_1368" x1="105.931" y1="119.559" x2="471.07" y2="119.559" gradientUnits="userSpaceOnUse">
<stop stop-color="#364665"/>
<stop offset="0.1" stop-color="#8B9BB8"/>
<stop offset="0.23" stop-color="#364665"/>
<stop offset="0.4" stop-color="#364665"/>
<stop offset="0.536458" stop-color="#596B89"/>
<stop offset="0.67" stop-color="#C4CCDE"/>
<stop offset="0.72" stop-color="#8B9BB8"/>
<stop offset="0.78" stop-color="#364665"/>
<stop offset="0.848958" stop-color="#364665"/>
<stop offset="0.9199" stop-color="#8B9BB8"/>
<stop offset="0.92" stop-color="#8B9BB8"/>
<stop offset="0.994792" stop-color="#364665"/>
</linearGradient>
<linearGradient id="paint3_linear_1305_1368" x1="104.328" y1="198.204" x2="149.266" y2="198.204" gradientUnits="userSpaceOnUse">
<stop stop-color="#596B89"/>
<stop offset="0.1" stop-color="#364665"/>
<stop offset="0.23" stop-color="#596B89"/>
<stop offset="0.895833" stop-color="#596B89"/>
<stop offset="0.96875" stop-color="#596B89"/>
<stop offset="0.99" stop-color="#364665"/>
</linearGradient>
<linearGradient id="paint4_linear_1305_1368" x1="193.414" y1="73.8248" x2="384.402" y2="73.8248" gradientUnits="userSpaceOnUse">
<stop stop-color="#596B89"/>
<stop offset="0.1" stop-color="#364665"/>
<stop offset="0.23" stop-color="#596B89"/>
<stop offset="0.895833" stop-color="#596B89"/>
<stop offset="0.96875" stop-color="#596B89"/>
<stop offset="0.99" stop-color="#364665"/>
</linearGradient>
<linearGradient id="paint5_linear_1305_1368" x1="255.2" y1="136.411" x2="319.398" y2="136.411" gradientUnits="userSpaceOnUse">
<stop stop-color="#596B89"/>
<stop offset="0.1" stop-color="#364665"/>
<stop offset="0.23" stop-color="#596B89"/>
<stop offset="0.895833" stop-color="#596B89"/>
<stop offset="0.96875" stop-color="#596B89"/>
<stop offset="0.99" stop-color="#364665"/>
</linearGradient>
<linearGradient id="paint6_linear_1305_1368" x1="290.087" y1="222.991" x2="288.09" y2="143.294" gradientUnits="userSpaceOnUse">
<stop stop-color="#FF8759"/>
<stop offset="0.58" stop-color="#AB1535"/>
<stop offset="0.68" stop-color="#AD1836"/>
<stop offset="0.76" stop-color="#B42239"/>
<stop offset="0.82" stop-color="#C0323E"/>
<stop offset="0.89" stop-color="#D14945"/>
<stop offset="0.95" stop-color="#E7664F"/>
<stop offset="1" stop-color="#FF8759"/>
</linearGradient>
<linearGradient id="paint7_linear_1305_1368" x1="160.471" y1="182.747" x2="168.008" y2="63.293" gradientUnits="userSpaceOnUse">
<stop stop-color="#364665"/>
<stop offset="0.26" stop-color="#0E131B"/>
<stop offset="1" stop-color="#364665"/>
</linearGradient>
<linearGradient id="paint8_linear_1305_1368" x1="140.631" y1="68.4241" x2="140.722" y2="59.6302" gradientUnits="userSpaceOnUse">
<stop stop-color="#364665"/>
<stop offset="0.26" stop-color="#0E131B"/>
<stop offset="1" stop-color="#364665"/>
</linearGradient>
<linearGradient id="paint9_linear_1305_1368" x1="180.563" y1="160.079" x2="200.605" y2="160.079" gradientUnits="userSpaceOnUse">
<stop stop-color="#94CCCC"/>
<stop offset="0.66" stop-color="#145A87"/>
<stop offset="0.73" stop-color="#175D89"/>
<stop offset="0.79" stop-color="#21668E"/>
<stop offset="0.85" stop-color="#327497"/>
<stop offset="0.9" stop-color="#4989A4"/>
<stop offset="0.95" stop-color="#68A4B4"/>
<stop offset="0.99" stop-color="#8CC5C8"/>
<stop offset="1" stop-color="#94CCCC"/>
</linearGradient>
<linearGradient id="paint10_linear_1305_1368" x1="192.571" y1="217.566" x2="191.175" y2="161.304" gradientUnits="userSpaceOnUse">
<stop stop-color="#FF8759"/>
<stop offset="0.58" stop-color="#AB1535"/>
<stop offset="0.68" stop-color="#AD1836"/>
<stop offset="0.76" stop-color="#B42239"/>
<stop offset="0.82" stop-color="#C0323E"/>
<stop offset="0.89" stop-color="#D14945"/>
<stop offset="0.95" stop-color="#E7664F"/>
<stop offset="1" stop-color="#FF8759"/>
</linearGradient>
<linearGradient id="paint11_linear_1305_1368" x1="185.259" y1="160.924" x2="146.263" y2="66.5087" gradientUnits="userSpaceOnUse">
<stop offset="0.04" stop-color="#BDB58F"/>
<stop offset="0.99" stop-color="#020202"/>
<stop offset="1"/>
</linearGradient>
<linearGradient id="paint12_linear_1305_1368" x1="181.365" y1="160.068" x2="200.625" y2="160.068" gradientUnits="userSpaceOnUse">
<stop offset="0.04" stop-color="#BDB58F"/>
<stop offset="0.99" stop-color="#020202"/>
<stop offset="1"/>
</linearGradient>
<linearGradient id="paint13_linear_1305_1368" x1="129.203" y1="63.4001" x2="155.686" y2="63.4001" gradientUnits="userSpaceOnUse">
<stop offset="0.04" stop-color="#BDB58F"/>
<stop offset="0.99" stop-color="#020202"/>
<stop offset="1"/>
</linearGradient>
<linearGradient id="paint14_linear_1305_1368" x1="408.445" y1="182.747" x2="415.982" y2="63.293" gradientUnits="userSpaceOnUse">
<stop stop-color="#364665"/>
<stop offset="0.26" stop-color="#0E131B"/>
<stop offset="1" stop-color="#364665"/>
</linearGradient>
<linearGradient id="paint15_linear_1305_1368" x1="431.94" y1="68.4241" x2="432.031" y2="59.6302" gradientUnits="userSpaceOnUse">
<stop stop-color="#364665"/>
<stop offset="0.26" stop-color="#0E131B"/>
<stop offset="1" stop-color="#364665"/>
</linearGradient>
<linearGradient id="paint16_linear_1305_1368" x1="397.261" y1="160.079" x2="376.396" y2="160.079" gradientUnits="userSpaceOnUse">
<stop stop-color="#94CCCC"/>
<stop offset="0.66" stop-color="#145A87"/>
<stop offset="0.73" stop-color="#175D89"/>
<stop offset="0.79" stop-color="#21668E"/>
<stop offset="0.85" stop-color="#327497"/>
<stop offset="0.9" stop-color="#4989A4"/>
<stop offset="0.95" stop-color="#68A4B4"/>
<stop offset="0.99" stop-color="#8CC5C8"/>
<stop offset="1" stop-color="#94CCCC"/>
</linearGradient>
<linearGradient id="paint17_linear_1305_1368" x1="384.451" y1="217.566" x2="385.848" y2="161.304" gradientUnits="userSpaceOnUse">
<stop stop-color="#FF8759"/>
<stop offset="0.58" stop-color="#AB1535"/>
<stop offset="0.68" stop-color="#AD1836"/>
<stop offset="0.76" stop-color="#B42239"/>
<stop offset="0.82" stop-color="#C0323E"/>
<stop offset="0.89" stop-color="#D14945"/>
<stop offset="0.95" stop-color="#E7664F"/>
<stop offset="1" stop-color="#FF8759"/>
</linearGradient>
<linearGradient id="paint18_linear_1305_1368" x1="392.491" y1="160.924" x2="431.903" y2="66.9269" gradientUnits="userSpaceOnUse">
<stop offset="0.04" stop-color="#BDB58F"/>
<stop offset="0.99" stop-color="#020202"/>
<stop offset="1"/>
</linearGradient>
<linearGradient id="paint19_linear_1305_1368" x1="395.656" y1="160.068" x2="377.198" y2="160.068" gradientUnits="userSpaceOnUse">
<stop offset="0.04" stop-color="#BDB58F"/>
<stop offset="0.99" stop-color="#020202"/>
<stop offset="1"/>
</linearGradient>
<linearGradient id="paint20_linear_1305_1368" x1="213.44" y1="120.482" x2="325.853" y2="182.378" gradientUnits="userSpaceOnUse">
<stop offset="0.04" stop-color="#BDB58F"/>
<stop offset="0.99" stop-color="#020202"/>
<stop offset="1"/>
</linearGradient>
<linearGradient id="paint21_linear_1305_1368" x1="180.683" y1="122.769" x2="341.397" y2="57.5795" gradientUnits="userSpaceOnUse">
<stop offset="0.04" stop-color="#BDB58F"/>
<stop offset="0.99" stop-color="#020202"/>
<stop offset="1"/>
</linearGradient>
<linearGradient id="paint22_linear_1305_1368" x1="36.9442" y1="40.5265" x2="540.895" y2="40.5265" gradientUnits="userSpaceOnUse">
<stop stop-color="#596B89"/>
<stop offset="0.1" stop-color="#364665"/>
<stop offset="0.23" stop-color="#596B89"/>
<stop offset="0.4" stop-color="#C4CCDE"/>
<stop offset="0.59" stop-color="#C4CCDE"/>
<stop offset="0.67" stop-color="#596B89"/>
<stop offset="0.72" stop-color="#364665"/>
<stop offset="0.78" stop-color="#364665"/>
<stop offset="0.85" stop-color="#C4CCDE"/>
<stop offset="0.895833" stop-color="#596B89"/>
<stop offset="0.92" stop-color="#364665"/>
<stop offset="0.96875" stop-color="#596B89"/>
<stop offset="0.99" stop-color="#364665"/>
</linearGradient>
<linearGradient id="paint23_linear_1305_1368" x1="0" y1="10.8324" x2="577" y2="10.8324" gradientUnits="userSpaceOnUse">
<stop stop-color="#94CCCC"/>
<stop offset="0.76" stop-color="#145A87"/>
<stop offset="0.81" stop-color="#175D89"/>
<stop offset="0.86" stop-color="#21668E"/>
<stop offset="0.89" stop-color="#327497"/>
<stop offset="0.93" stop-color="#4989A4"/>
<stop offset="0.96" stop-color="#68A4B4"/>
<stop offset="0.99" stop-color="#8CC5C8"/>
<stop offset="1" stop-color="#94CCCC"/>
</linearGradient>
<linearGradient id="paint24_linear_1305_1368" x1="406.717" y1="54.6144" x2="406.72" y2="44.9284" gradientUnits="userSpaceOnUse">
<stop stop-color="#00EBAA"/>
<stop offset="0.08" stop-color="#04E3A8"/>
<stop offset="0.67" stop-color="#1BB09C"/>
<stop offset="0.96" stop-color="#249C97"/>
</linearGradient>
<linearGradient id="paint25_linear_1305_1368" x1="186.831" y1="54.6144" x2="186.834" y2="44.9284" gradientUnits="userSpaceOnUse">
<stop stop-color="#00EBAA"/>
<stop offset="0.08" stop-color="#04E3A8"/>
<stop offset="0.67" stop-color="#1BB09C"/>
<stop offset="0.96" stop-color="#249C97"/>
</linearGradient>
<linearGradient id="paint26_linear_1305_1368" x1="286.729" y1="123.734" x2="286.736" y2="93.413" gradientUnits="userSpaceOnUse">
<stop/>
<stop offset="0.33" stop-color="#BDB58F"/>
<stop offset="0.88" stop-color="#020202"/>
<stop offset="0.89"/>
</linearGradient>
<linearGradient id="paint27_linear_1305_1368" x1="36.1133" y1="484.259" x2="541.69" y2="484.259" gradientUnits="userSpaceOnUse">
<stop stop-color="#364665"/>
<stop offset="0.1" stop-color="#8B9BB8"/>
<stop offset="0.23" stop-color="#364665"/>
<stop offset="0.4" stop-color="#364665"/>
<stop offset="0.536458" stop-color="#596B89"/>
<stop offset="0.67" stop-color="#C4CCDE"/>
<stop offset="0.72" stop-color="#8B9BB8"/>
<stop offset="0.78" stop-color="#364665"/>
<stop offset="0.848958" stop-color="#364665"/>
<stop offset="0.9199" stop-color="#8B9BB8"/>
<stop offset="0.92" stop-color="#8B9BB8"/>
<stop offset="0.994792" stop-color="#364665"/>
</linearGradient>
<linearGradient id="paint28_linear_1305_1368" x1="78.0306" y1="752.212" x2="87.3656" y2="834.931" gradientUnits="userSpaceOnUse">
<stop offset="0.17" stop-color="#364665"/>
<stop offset="0.26" stop-color="#364665"/>
<stop offset="0.41" stop-color="#364665"/>
<stop offset="0.6" stop-color="#364665"/>
<stop offset="0.82" stop-color="#364665"/>
<stop offset="1" stop-color="#364665"/>
</linearGradient>
<linearGradient id="paint29_linear_1305_1368" x1="464.785" y1="698.956" x2="428.79" y2="778.233" gradientUnits="userSpaceOnUse">
<stop stop-color="#364665"/>
<stop offset="0.1" stop-color="#364665"/>
<stop offset="0.23" stop-color="#364665"/>
<stop offset="0.4" stop-color="#596B89"/>
<stop offset="0.59" stop-color="#364665"/>
<stop offset="0.67" stop-color="#364665"/>
<stop offset="0.72" stop-color="#364665"/>
<stop offset="0.78" stop-color="#364665"/>
<stop offset="0.85" stop-color="#364665"/>
<stop offset="0.942708" stop-color="#364665"/>
<stop offset="0.9899" stop-color="#364665"/>
<stop offset="0.99" stop-color="#364665"/>
</linearGradient>
<linearGradient id="paint30_linear_1305_1368" x1="461.59" y1="701.806" x2="448.051" y2="748.039" gradientUnits="userSpaceOnUse">
<stop offset="0.04" stop-color="#364665"/>
<stop offset="0.99" stop-color="#020202"/>
<stop offset="1"/>
</linearGradient>
<linearGradient id="paint31_linear_1305_1368" x1="474.279" y1="793.196" x2="528.047" y2="793.196" gradientUnits="userSpaceOnUse">
<stop offset="0.04" stop-color="#364665"/>
<stop offset="0.99" stop-color="#020202"/>
<stop offset="1"/>
</linearGradient>
<linearGradient id="paint32_linear_1305_1368" x1="97.1357" y1="584.334" x2="137.455" y2="719.218" gradientUnits="userSpaceOnUse">
<stop stop-color="#364665"/>
<stop offset="0.1" stop-color="#364665"/>
<stop offset="0.23" stop-color="#364665"/>
<stop offset="0.322917" stop-color="#364665"/>
<stop offset="0.536458" stop-color="#596B89"/>
<stop offset="0.67" stop-color="#364665"/>
<stop offset="0.72" stop-color="#364665"/>
<stop offset="0.78" stop-color="#364665"/>
<stop offset="0.85" stop-color="#364665"/>
<stop offset="0.92" stop-color="#364665"/>
<stop offset="0.9899" stop-color="#364665"/>
<stop offset="0.99" stop-color="#364665"/>
</linearGradient>
<linearGradient id="paint33_linear_1305_1368" x1="102.391" y1="589.43" x2="114.987" y2="665.707" gradientUnits="userSpaceOnUse">
<stop offset="0.04" stop-color="#596B89"/>
<stop offset="0.99" stop-color="#020202"/>
<stop offset="1"/>
</linearGradient>
<linearGradient id="paint34_linear_1305_1368" x1="493.779" y1="585.288" x2="449.629" y2="718.068" gradientUnits="userSpaceOnUse">
<stop stop-color="#364665"/>
<stop offset="0.1" stop-color="#364665"/>
<stop offset="0.23" stop-color="#364665"/>
<stop offset="0.4" stop-color="#364665"/>
<stop offset="0.59" stop-color="#364665"/>
<stop offset="0.67" stop-color="#596B89"/>
<stop offset="0.72" stop-color="#364665"/>
<stop offset="0.78" stop-color="#364665"/>
<stop offset="0.869792" stop-color="#364665"/>
<stop offset="0.92" stop-color="#364665"/>
<stop offset="0.9899" stop-color="#8B9BB8"/>
<stop offset="0.99" stop-color="#364665"/>
</linearGradient>
<linearGradient id="paint35_linear_1305_1368" x1="485.903" y1="589.464" x2="471.965" y2="665.214" gradientUnits="userSpaceOnUse">
<stop offset="0.04" stop-color="#596B89"/>
<stop offset="0.99" stop-color="#020202"/>
<stop offset="1"/>
</linearGradient>
<linearGradient id="paint36_linear_1305_1368" x1="295.742" y1="605.238" x2="296.538" y2="184.107" gradientUnits="userSpaceOnUse">
<stop stop-color="#00EBAA"/>
<stop offset="0.08" stop-color="#04E3A8"/>
<stop offset="0.67" stop-color="#1BB09C"/>
<stop offset="0.96" stop-color="#249C97"/>
</linearGradient>
<linearGradient id="paint37_linear_1305_1368" x1="385.87" y1="591.845" x2="386.916" y2="208.431" gradientUnits="userSpaceOnUse">
<stop/>
<stop offset="0.33" stop-color="#BDB58F"/>
<stop offset="0.88" stop-color="#020202"/>
<stop offset="0.89"/>
</linearGradient>
<linearGradient id="paint38_linear_1305_1368" x1="133.433" y1="285.46" x2="116.65" y2="179.166" gradientUnits="userSpaceOnUse">
<stop stop-color="#364665"/>
<stop offset="0.58" stop-color="#364665"/>
<stop offset="0.68" stop-color="#364665"/>
<stop offset="0.76" stop-color="#364665"/>
<stop offset="0.869792" stop-color="#364665"/>
</linearGradient>
<linearGradient id="paint39_linear_1305_1368" x1="461.74" y1="285.46" x2="478.522" y2="179.166" gradientUnits="userSpaceOnUse">
<stop stop-color="#364665"/>
<stop offset="0.557292" stop-color="#364665"/>
<stop offset="0.58" stop-color="#364665"/>
<stop offset="0.68" stop-color="#364665"/>
<stop offset="0.84375" stop-color="#364665"/>
</linearGradient>
</defs>
</svg>
