<svg width="156" height="129" viewBox="0 0 156 129" fill="none" xmlns="http://www.w3.org/2000/svg">
<g style="mix-blend-mode:multiply" opacity="0.3">
<path d="M132.876 75.1115C131.71 91.1816 126.741 107.608 96.3618 113.626C60.4204 120.746 25.2163 113 8.25801 92.4238C2.32821 80.6255 4.79762 78.341 8.98128 64.6744L132.876 75.1115Z" fill="black"/>
</g>
<path d="M66.3659 106.833C28.7398 103.07 3.35663 81.2199 9.66719 57.7517C15.9778 34.2836 51.8301 17.6737 89.4562 21.4367C127.082 25.1998 152.448 47.1118 146.109 70.5052C139.769 93.8986 103.98 110.459 66.3659 106.833Z" fill="black"/>
<path d="M69.1022 86.3803C35.1037 83.2229 11.8526 65.7669 17.1285 47.4824C22.4044 29.1979 54.2052 16.9351 88.2038 20.0924C122.202 23.2498 145.453 40.7058 140.178 58.9903C134.902 77.2747 103.101 89.5376 69.1022 86.3803Z" fill="url(#paint0_linear_1305_1490)"/>
<path d="M20.5905 47.8379C24.4832 33.8048 53.4024 20.2563 85.9783 22.7611C112.161 24.8868 128.292 35.8894 132.637 45.898C133.303 47.0499 133.725 48.4481 133.869 49.9793C134.014 51.5105 133.876 53.1317 133.468 54.7117C129.556 68.8128 101.573 82.5476 68.0421 79.9247C41.8593 77.7989 25.7476 66.7282 21.4019 56.7196C20.7276 55.5624 20.3023 54.1525 20.1611 52.6076C20.02 51.0626 20.1672 49.4273 20.5905 47.8379ZM21.9904 48.2261C21.6709 49.5133 21.5751 50.8301 21.7112 52.0672C21.8472 53.3042 22.2111 54.4259 22.7726 55.339C26.9525 65.0082 42.7431 75.5497 68.5314 77.7861C100.375 80.3079 128.585 67.443 132.25 54.2273C132.568 52.9309 132.665 51.6062 132.532 50.3592C132.4 49.1122 132.042 47.9776 131.487 47.0463C127.288 37.4452 111.517 26.8356 85.7095 24.6673C53.8178 22.1322 25.82 34.9825 22.0093 48.158L21.9904 48.2261Z" fill="#FF0053"/>
<path style="mix-blend-mode:screen" d="M66.6974 72.329C96.218 75.1012 122.78 64.2748 126.02 53.1894C126.188 52.5861 126.727 50.6421 125.212 47.5508C121.077 39.1849 106.083 29.3955 81.8757 27.1583C57.6687 24.9211 38.9885 31.0028 29.1661 38.1693C33.7097 36.9488 38.279 36.5617 42.7261 37.0206C49.2033 36.8007 55.1817 39.6156 59.5129 44.9246C59.695 45.2104 59.8151 45.5554 59.8638 45.9323C59.9125 46.3092 59.8884 46.7077 59.7934 47.096C58.6033 51.3863 48.2765 55.5974 36.8762 54.5294C31.6707 54.2717 26.7453 52.5109 22.4704 49.3793C22.6476 50.2894 22.9301 51.1454 23.3098 51.9222C27.4584 60.4364 42.4391 70.0776 66.6974 72.329Z" fill="url(#paint1_linear_1305_1490)"/>
<path d="M65.6545 29.0759C66.1269 27.3728 70.8716 25.4279 77.1358 26.1461C80.3839 26.1627 83.397 27.4981 85.7349 29.9574C86.0507 30.5035 85.9588 30.8347 85.9326 30.9293C85.3945 32.869 80.2816 34.457 74.4873 33.8691C71.2248 33.8598 68.1979 32.5202 65.8521 30.0478C65.5363 29.5017 65.6282 29.1705 65.6545 29.0759Z" fill="#364665"/>
<path d="M74.4859 33.868C77.2973 34.2972 80.2231 34.0368 83.1092 33.1006C83.321 32.9105 83.4974 32.6611 83.6215 32.3765C83.6215 32.3765 83.7396 31.9508 83.4469 31.462C81.3228 29.2372 75.6531 27.9759 75.6531 27.9759C75.6531 27.9759 68.9173 27.9523 65.7192 29.9593C68.0875 32.4996 71.1658 33.8721 74.4859 33.868Z" fill="#EB0000"/>
<path d="M44.4839 50.0635C44.5321 50.3035 44.5472 50.6042 44.529 50.9657C44.5116 51.3121 44.4663 51.6138 44.3931 51.8708L42.5837 51.8995C42.5363 51.6444 42.5212 51.3437 42.5387 50.9973C42.5568 50.6358 42.6021 50.3341 42.6745 50.0922L41.996 50.103C41.9486 49.8479 41.9335 49.5472 41.951 49.2008C41.9691 48.8393 42.0144 48.5376 42.0868 48.2957L41.4083 48.3064C41.3609 48.0514 41.3459 47.7506 41.3633 47.4042C41.3814 47.0428 41.4267 46.7411 41.4991 46.4991L39.2374 46.535C39.2856 46.7751 39.3006 47.0758 39.2824 47.4373C39.265 47.7837 39.2197 48.0853 39.1466 48.3423C39.1948 48.5824 39.2098 48.8831 39.1916 49.2445C39.1742 49.5909 39.1289 49.8926 39.0557 50.1496C39.1039 50.3896 39.119 50.6904 39.1008 51.0518C39.0834 51.3982 39.0381 51.6999 38.9649 51.9569L37.1555 51.9856C37.108 51.7306 37.093 51.4298 37.1104 51.0834C37.1286 50.722 37.1739 50.4203 37.2463 50.1783C37.1989 49.9233 37.1839 49.6225 37.2013 49.2761C37.2194 48.9147 37.2647 48.613 37.3372 48.3711C37.2897 48.116 37.2747 47.8152 37.2921 47.4688C37.3103 47.1074 37.3556 46.8057 37.428 46.5638C37.3805 46.3087 37.3655 46.0079 37.3829 45.6615C37.4011 45.3001 37.4464 44.9984 37.5188 44.7565C37.4714 44.5014 37.4564 44.2007 37.4738 43.8543C37.4919 43.4928 37.5372 43.1911 37.6096 42.9492C37.5622 42.6941 37.5472 42.3934 37.5646 42.047C37.5828 41.6855 37.6281 41.3838 37.7005 41.1419C37.653 40.8868 37.638 40.5861 37.6554 40.2397C37.6736 39.8782 37.7189 39.5765 37.7913 39.3346L44.1242 39.2341C44.1724 39.4741 44.1874 39.7748 44.1693 40.1363C44.1519 40.4827 44.1066 40.7844 44.0334 41.0414L44.9381 41.027C44.9863 41.267 45.0013 41.5678 44.9832 41.9292C44.9657 42.2756 44.9204 42.5773 44.8473 42.8343L44.3949 42.8415C44.4431 43.0815 44.4581 43.3822 44.44 43.7437C44.4226 44.0901 44.3773 44.3918 44.3041 44.6488L42.947 44.6703C42.9952 44.9103 43.0103 45.2111 42.9921 45.5725C42.9747 45.9189 42.9294 46.2206 42.8562 46.4776L43.3086 46.4704C43.3568 46.7104 43.3718 47.0112 43.3536 47.3726C43.3362 47.719 43.2909 48.0207 43.2177 48.2777L43.8962 48.267C43.9444 48.507 43.9595 48.8077 43.9413 49.1692C43.9239 49.5156 43.8786 49.8173 43.8054 50.0742L44.4839 50.0635ZM42.4947 44.6775C42.4472 44.4224 42.4322 44.1217 42.4496 43.7753C42.4678 43.4138 42.5131 43.1121 42.5855 42.8702C42.5381 42.6151 42.523 42.3144 42.5405 41.968C42.5586 41.6065 42.6039 41.3048 42.6763 41.0629L39.5099 41.1132C39.5581 41.3532 39.5731 41.6539 39.5549 42.0154C39.5375 42.3618 39.4922 42.6635 39.4191 42.9205C39.4673 43.1605 39.4823 43.4612 39.4641 43.8227C39.4467 44.1691 39.4014 44.4708 39.3282 44.7277L42.4947 44.6775ZM53.8573 45.4001C53.8399 45.7465 53.7946 46.0482 53.7215 46.3052C53.7697 46.5452 53.7847 46.8459 53.7665 47.2074C53.7491 47.5538 53.7038 47.8555 53.6306 48.1125L48.8809 48.1878C48.9291 48.4279 48.9442 48.7286 48.926 49.0901C48.9086 49.4365 48.8633 49.7381 48.7901 49.9951L52.6351 49.9341C52.6833 50.1741 52.6983 50.4749 52.6801 50.8363C52.6627 51.1827 52.6174 51.4844 52.5443 51.7414L48.0208 51.8132C47.9733 51.5581 47.9583 51.2574 47.9757 50.911C47.9939 50.5495 48.0392 50.2478 48.1116 50.0059L46.9807 50.0239C46.9333 49.7688 46.9182 49.468 46.9357 49.1216C46.9538 48.7602 46.9991 48.4585 47.0715 48.2166L46.393 48.2273C46.3456 47.9723 46.3305 47.6715 46.348 47.3251C46.3661 46.9637 46.4114 46.662 46.4838 46.42L47.1624 46.4093C47.1149 46.1542 47.0999 45.8535 47.1173 45.5071C47.1355 45.1456 47.1808 44.8439 47.2532 44.602L48.3841 44.584C48.3366 44.3289 48.3216 44.0282 48.339 43.6818C48.3572 43.3204 48.4025 43.0187 48.4749 42.7767L52.9984 42.7049C53.0466 42.945 53.0616 43.2457 53.0435 43.6072C53.0261 43.9535 52.9808 44.2552 52.9076 44.5122L53.8123 44.4979C53.8605 44.7379 53.8755 45.0386 53.8573 45.4001ZM51.9121 46.3339C51.8646 46.0788 51.8496 45.7781 51.867 45.4317C51.8852 45.0702 51.9305 44.7685 52.0029 44.5266L49.0626 44.5733C49.1108 44.8133 49.1258 45.114 49.1077 45.4755C49.0902 45.8219 49.045 46.1236 48.9718 46.3806L51.9121 46.3339ZM61.691 49.7904C61.7392 50.0304 61.7542 50.3311 61.736 50.6926C61.7186 51.039 61.6733 51.3407 61.6001 51.5977L57.9813 51.6551C57.9339 51.4 57.9188 51.0993 57.9363 50.7529C57.9544 50.3914 57.9997 50.0898 58.0721 49.8478L57.1674 49.8622C57.12 49.6071 57.105 49.3064 57.1224 48.96C57.1406 48.5985 57.1858 48.2968 57.2583 48.0549C57.2108 47.7998 57.1958 47.4991 57.2132 47.1527C57.2314 46.7912 57.2767 46.4895 57.3491 46.2476C57.3017 45.9925 57.2866 45.6918 57.304 45.3454C57.3222 44.9839 57.3675 44.6822 57.4399 44.4403L55.6305 44.469C55.5831 44.2139 55.5681 43.9132 55.5855 43.5668C55.6036 43.2053 55.6489 42.9037 55.7214 42.6617L57.5308 42.633C57.4833 42.3779 57.4683 42.0772 57.4857 41.7308C57.5039 41.3693 57.5492 41.0676 57.6216 40.8257C57.5741 40.5706 57.5591 40.2699 57.5765 39.9235C57.5947 39.562 57.64 39.2603 57.7124 39.0184L59.5218 38.9897C59.57 39.2297 59.585 39.5305 59.5669 39.8919C59.5495 40.2383 59.5042 40.54 59.431 40.797C59.4792 41.037 59.4942 41.3377 59.4761 41.6992C59.4586 42.0456 59.4133 42.3473 59.3402 42.6043L62.0543 42.5612C62.1025 42.8012 62.1175 43.102 62.0993 43.4634C62.0819 43.8098 62.0366 44.1115 61.9634 44.3685L59.2493 44.4116C59.2975 44.6516 59.3126 44.9523 59.2944 45.3138C59.277 45.6602 59.2317 45.9619 59.1585 46.2189C59.2067 46.4589 59.2217 46.7596 59.2036 47.1211C59.1862 47.4675 59.1409 47.7692 59.0677 48.0262C59.1159 48.2662 59.1309 48.5669 59.1127 48.9284C59.0953 49.2748 59.05 49.5765 58.9768 49.8335L61.691 49.7904ZM67.0377 48.8026C67.0203 49.149 66.975 49.4507 66.9018 49.7077L69.1636 49.6718C69.2118 49.9118 69.2268 50.2125 69.2086 50.574C69.1912 50.9204 69.1459 51.2221 69.0727 51.4791L65.4539 51.5365C65.4065 51.2814 65.3915 50.9807 65.4089 50.6343C65.4271 50.2729 65.4723 49.9712 65.5448 49.7292L64.4139 49.7472C64.3664 49.4921 64.3514 49.1914 64.3688 48.845C64.387 48.4835 64.4323 48.1818 64.5047 47.9399C64.4573 47.6848 64.4423 47.3841 64.4597 47.0377C64.4778 46.6762 64.5231 46.3745 64.5956 46.1326C64.5481 45.8775 64.5331 45.5768 64.5505 45.2304C64.5687 44.8689 64.614 44.5672 64.6864 44.3253C64.6389 44.0702 64.6239 43.7695 64.6413 43.4231C64.6595 43.0616 64.7048 42.7599 64.7772 42.518L66.5866 42.4893C66.6348 42.7293 66.6498 43.03 66.6317 43.3915C66.6143 43.7379 66.569 44.0396 66.4958 44.2966C66.544 44.5366 66.559 44.8373 66.5408 45.1988C66.5234 45.5452 66.4781 45.8469 66.405 46.1039C66.4532 46.3439 66.4682 46.6446 66.45 47.0061C66.4326 47.3525 66.3873 47.6542 66.3141 47.9112L66.9927 47.9004C67.0409 48.1404 67.0559 48.4411 67.0377 48.8026ZM71.924 44.2104C71.9722 44.4504 71.9872 44.7512 71.9691 45.1126C71.9516 45.459 71.9064 45.7607 71.8332 46.0177C71.8814 46.2577 71.8964 46.5585 71.8782 46.9199C71.8608 47.2663 71.8155 47.568 71.7423 47.825C71.7905 48.065 71.8056 48.3658 71.7874 48.7272C71.77 49.0736 71.7247 49.3753 71.6515 49.6323C71.6997 49.8723 71.7147 50.1731 71.6966 50.5345C71.6792 50.8809 71.6339 51.1826 71.5607 51.4396L69.7513 51.4683C69.7038 51.2132 69.6888 50.9125 69.7062 50.5661C69.7244 50.2046 69.7697 49.903 69.8421 49.661L69.1636 49.6718C69.1161 49.4167 69.1011 49.116 69.1185 48.7696C69.1367 48.4081 69.182 48.1064 69.2544 47.8645L69.9329 47.8537C69.8855 47.5987 69.8705 47.2979 69.8879 46.9515C69.906 46.5901 69.9513 46.2884 70.0238 46.0464C69.9763 45.7914 69.9613 45.4906 69.9787 45.1442C69.9969 44.7828 70.0422 44.4811 70.1146 44.2391C70.0672 43.9841 70.0521 43.6833 70.0695 43.3369C70.0877 42.9755 70.133 42.6738 70.2054 42.4318L72.0148 42.4031C72.063 42.6431 72.0781 42.9439 72.0599 43.3053C72.0425 43.6517 71.9972 43.9534 71.924 44.2104ZM80.9799 44.0667C81.0281 44.3067 81.0431 44.6075 81.0249 44.9689C81.0075 45.3153 80.9622 45.617 80.889 45.874L79.0796 45.9027C79.0322 45.6476 79.0172 45.3469 79.0346 45.0005C79.0527 44.639 79.098 44.3373 79.1705 44.0954L77.5872 44.1205C77.6354 44.3606 77.6504 44.6613 77.6323 45.0228C77.6149 45.3692 77.5696 45.6708 77.4964 45.9278L76.8179 45.9386C76.8661 46.1786 76.8811 46.4794 76.8629 46.8408C76.8455 47.1872 76.8002 47.4889 76.727 47.7459C76.7752 47.9859 76.7903 48.2867 76.7721 48.6481C76.7547 48.9945 76.7094 49.2962 76.6362 49.5532L77.9933 49.5317C78.0415 49.7717 78.0565 50.0724 78.0383 50.4339C78.0209 50.7803 77.9756 51.082 77.9024 51.339L73.3789 51.4107C73.3315 51.1557 73.3165 50.8549 73.3339 50.5085C73.352 50.1471 73.3973 49.8454 73.4697 49.6035L74.8268 49.5819C74.7794 49.3268 74.7643 49.0261 74.7817 48.6797C74.7999 48.3182 74.8452 48.0165 74.9176 47.7746C74.8702 47.5195 74.8552 47.2188 74.8726 46.8724C74.8907 46.5109 74.936 46.2093 75.0085 45.9673C74.961 45.7122 74.946 45.4115 74.9634 45.0651C74.9816 44.7037 75.0269 44.402 75.0993 44.16L73.7422 44.1816C73.6948 43.9265 73.6798 43.6258 73.6972 43.2794C73.7153 42.9179 73.7606 42.6162 73.8331 42.3743L76.0948 42.3384C76.143 42.5784 76.158 42.8791 76.1399 43.2406C76.1225 43.587 76.0772 43.8887 76.004 44.1457L76.9087 44.1313C76.8613 43.8762 76.8462 43.5755 76.8636 43.2291C76.8818 42.8676 76.9271 42.566 76.9995 42.324L80.3922 42.2702C80.4404 42.5102 80.4554 42.8109 80.4372 43.1724C80.4198 43.5188 80.3745 43.8205 80.3013 44.0775L80.9799 44.0667ZM84.5172 43.1076C84.4998 43.454 84.4545 43.7557 84.3813 44.0127L85.286 43.9984C85.3342 44.2384 85.3492 44.5391 85.3311 44.9006C85.3137 45.247 85.2684 45.5487 85.1952 45.8057L84.5167 45.8164C84.5649 46.0564 84.5799 46.3572 84.5617 46.7186C84.5443 47.065 84.499 47.3667 84.4258 47.6237C84.474 47.8637 84.4891 48.1645 84.4709 48.5259C84.4535 48.8723 84.4082 49.174 84.335 49.431C84.3832 49.671 84.3982 49.9718 84.3801 50.3332C84.3627 50.6796 84.3174 50.9813 84.2442 51.2383L82.4348 51.267C82.3873 51.0119 82.3723 50.7112 82.3897 50.3648C82.4079 50.0034 82.4532 49.7017 82.5256 49.4597C82.4782 49.2047 82.4631 48.9039 82.4805 48.5575C82.4987 48.1961 82.544 47.8944 82.6164 47.6524C82.569 47.3974 82.554 47.0966 82.5714 46.7502C82.5895 46.3888 82.6348 46.0871 82.7073 45.8451C82.6598 45.5901 82.6448 45.2893 82.6622 44.9429C82.6804 44.5815 82.7257 44.2798 82.7981 44.0378C82.7506 43.7828 82.7356 43.482 82.753 43.1356C82.7712 42.7742 82.8165 42.4725 82.8889 42.2306L84.4722 42.2054C84.5204 42.4454 84.5354 42.7462 84.5172 43.1076ZM89.9449 45.7303C89.9931 45.9703 90.0081 46.271 89.9899 46.6325C89.9725 46.9789 89.9272 47.2806 89.854 47.5376C89.9023 47.7776 89.9173 48.0783 89.8991 48.4398C89.8817 48.7862 89.8364 49.0879 89.7632 49.3449C89.8114 49.5849 89.8264 49.8856 89.8083 50.2471C89.7909 50.5935 89.7456 50.8952 89.6724 51.1522L87.863 51.1809C87.8155 50.9258 87.8005 50.6251 87.8179 50.2787C87.8361 49.9172 87.8814 49.6155 87.9538 49.3736C87.9064 49.1185 87.8913 48.8178 87.9088 48.4714C87.9269 48.1099 87.9722 47.8082 88.0446 47.5663C87.9972 47.3112 87.9822 47.0105 87.9996 46.6641C88.0178 46.3026 88.0631 46.0009 88.1355 45.759C88.088 45.5039 88.073 45.2032 88.0904 44.8568C88.1086 44.4953 88.1539 44.1936 88.2263 43.9517L85.286 43.9984C85.2386 43.7433 85.2236 43.4425 85.241 43.0961C85.2591 42.7347 85.3044 42.433 85.3769 42.1911L88.9957 42.1336C89.0439 42.3736 89.0589 42.6744 89.0407 43.0358C89.0233 43.3822 88.978 43.6839 88.9048 43.9409L90.0357 43.923C90.0839 44.163 90.0989 44.4637 90.0808 44.8252C90.0634 45.1716 90.0181 45.4733 89.9449 45.7303ZM106.97 49.0718C107.018 49.3118 107.033 49.6125 107.015 49.974C106.998 50.3204 106.953 50.6221 106.879 50.8791L103.261 50.9365C103.213 50.6814 103.198 50.3807 103.216 50.0343C103.234 49.6728 103.279 49.3711 103.351 49.1292L102.447 49.1436C102.399 48.8885 102.384 48.5877 102.402 48.2413C102.42 47.8799 102.465 47.5782 102.538 47.3363C102.49 47.0812 102.475 46.7805 102.492 46.4341C102.511 46.0726 102.556 45.7709 102.628 45.529C102.581 45.2739 102.566 44.9732 102.583 44.6268C102.601 44.2653 102.647 43.9636 102.719 43.7217L100.91 43.7504C100.862 43.4953 100.847 43.1946 100.865 42.8482C100.883 42.4867 100.928 42.185 101.001 41.9431L102.81 41.9144C102.763 41.6593 102.748 41.3586 102.765 41.0122C102.783 40.6507 102.828 40.349 102.901 40.1071C102.853 39.852 102.838 39.5513 102.856 39.2049C102.874 38.8434 102.919 38.5417 102.992 38.2998L104.801 38.2711C104.849 38.5111 104.864 38.8118 104.846 39.1733C104.829 39.5197 104.783 39.8214 104.71 40.0784C104.758 40.3184 104.773 40.6191 104.755 40.9806C104.738 41.327 104.693 41.6287 104.619 41.8857L107.334 41.8426C107.382 42.0826 107.397 42.3833 107.379 42.7448C107.361 43.0912 107.316 43.3929 107.243 43.6499L104.529 43.693C104.577 43.933 104.592 44.2337 104.574 44.5952C104.556 44.9416 104.511 45.2433 104.438 45.5003C104.486 45.7403 104.501 46.041 104.483 46.4025C104.465 46.7489 104.42 47.0506 104.347 47.3075C104.395 47.5476 104.41 47.8483 104.392 48.2098C104.375 48.5562 104.329 48.8579 104.256 49.1148L106.97 49.0718ZM117.157 46.2013C117.14 46.5477 117.095 46.8494 117.022 47.1064L116.343 47.1172C116.391 47.3572 116.406 47.6579 116.388 48.0194C116.371 48.3658 116.325 48.6675 116.252 48.9245L115.121 48.9424C115.17 49.1824 115.185 49.4832 115.166 49.8446C115.149 50.191 115.104 50.4927 115.031 50.7497L111.412 50.8071C111.364 50.5521 111.349 50.2513 111.367 49.9049C111.385 49.5435 111.43 49.2418 111.503 48.9998L110.372 49.0178C110.324 48.7627 110.309 48.462 110.327 48.1156C110.345 47.7541 110.39 47.4524 110.463 47.2105L109.784 47.2213C109.737 46.9662 109.722 46.6654 109.739 46.319C109.757 45.9576 109.802 45.6559 109.875 45.414L110.553 45.4032C110.506 45.1481 110.491 44.8474 110.508 44.501C110.526 44.1395 110.572 43.8378 110.644 43.5959L111.775 43.578C111.728 43.3229 111.713 43.0221 111.73 42.6757C111.748 42.3143 111.793 42.0126 111.866 41.7707L115.485 41.7132C115.533 41.9532 115.548 42.254 115.53 42.6154C115.512 42.9618 115.467 43.2635 115.394 43.5205L116.525 43.5026C116.573 43.7426 116.588 44.0433 116.57 44.4048C116.552 44.7512 116.507 45.0529 116.434 45.3099L117.112 45.2991C117.161 45.5391 117.176 45.8398 117.157 46.2013ZM115.212 47.1351C115.165 46.88 115.15 46.5793 115.167 46.2329C115.185 45.8714 115.231 45.5697 115.303 45.3278L114.625 45.3386C114.577 45.0835 114.562 44.7828 114.579 44.4364C114.598 44.0749 114.643 43.7732 114.715 43.5313L112.454 43.5672C112.502 43.8072 112.517 44.1079 112.499 44.4694C112.481 44.8158 112.436 45.1175 112.363 45.3745L111.684 45.3852C111.732 45.6253 111.747 45.926 111.729 46.2875C111.712 46.6339 111.667 46.9356 111.593 47.1925L112.272 47.1818C112.32 47.4218 112.335 47.7225 112.317 48.084C112.3 48.4304 112.254 48.7321 112.181 48.9891L114.443 48.9532C114.395 48.6981 114.38 48.3974 114.398 48.051C114.416 47.6895 114.461 47.3878 114.534 47.1459L115.212 47.1351ZM55.9938 61.523C55.9764 61.8694 55.9311 62.1711 55.8579 62.4281L56.5364 62.4174C56.5846 62.6574 56.5997 62.9581 56.5815 63.3196C56.5641 63.666 56.5188 63.9677 56.4456 64.2247C56.4938 64.4647 56.5088 64.7654 56.4907 65.1269C56.4733 65.4733 56.428 65.775 56.3548 66.0319C56.403 66.272 56.418 66.5727 56.3998 66.9342C56.3824 67.2806 56.3371 67.5823 56.264 67.8392C56.3122 68.0793 56.3272 68.38 56.309 68.7415C56.2916 69.0879 56.2463 69.3895 56.1731 69.6465L54.3637 69.6753C54.3163 69.4202 54.3013 69.1194 54.3187 68.773C54.3368 68.4116 54.3821 68.1099 54.4545 67.868C54.4071 67.6129 54.3921 67.3121 54.4095 66.9657C54.4277 66.6043 54.473 66.3026 54.5454 66.0607C54.4979 65.8056 54.4829 65.5049 54.5003 65.1585C54.5185 64.797 54.5638 64.4953 54.6362 64.2534C54.5888 63.9983 54.5737 63.6976 54.5912 63.3512C54.6093 62.9897 54.6546 62.688 54.727 62.4461C54.6796 62.191 54.6646 61.8903 54.682 61.5439C54.7002 61.1824 54.7454 60.8807 54.8179 60.6388L55.9487 60.6208C55.997 60.8609 56.012 61.1616 55.9938 61.523ZM58.4817 61.4836C58.4643 61.83 58.419 62.1317 58.3458 62.3886L59.0244 62.3779C59.0726 62.6179 59.0876 62.9186 59.0694 63.2801C59.052 63.6265 59.0067 63.9282 58.9335 64.1852C58.9817 64.4252 58.9968 64.7259 58.9786 65.0874C58.9612 65.4338 58.9159 65.7355 58.8427 65.9925C58.8909 66.2325 58.9059 66.5332 58.8878 66.8947C58.8704 67.2411 58.8251 67.5428 58.7519 67.7998C58.8001 68.0398 58.8151 68.3405 58.7969 68.702C58.7795 69.0484 58.7342 69.3501 58.6611 69.6071L57.304 69.6286C57.2566 69.3735 57.2415 69.0728 57.2589 68.7264C57.2771 68.3649 57.3224 68.0632 57.3948 67.8213C57.3474 67.5662 57.3324 67.2655 57.3498 66.9191C57.3679 66.5576 57.4132 66.2559 57.4857 66.014C57.4382 65.7589 57.4232 65.4582 57.4406 65.1118C57.4588 64.7503 57.5041 64.4486 57.5765 64.2067C57.529 63.9516 57.514 63.6509 57.5314 63.3045C57.5496 62.943 57.5949 62.6413 57.6673 62.3994L56.5364 62.4174C56.489 62.1623 56.474 61.8615 56.4914 61.5152C56.5096 61.1537 56.5549 60.852 56.6273 60.6101L58.4367 60.5814C58.4849 60.8214 58.4999 61.1221 58.4817 61.4836ZM61.8738 64.1385C61.922 64.3785 61.937 64.6793 61.9189 65.0407C61.9015 65.3871 61.8562 65.6888 61.783 65.9458C61.8312 66.1858 61.8462 66.4866 61.8281 66.848C61.8106 67.1944 61.7653 67.4961 61.6922 67.7531C61.7404 67.9931 61.7554 68.2938 61.7372 68.6553C61.7198 69.0017 61.6745 69.3034 61.6013 69.5604L59.7919 69.5891C59.7445 69.334 59.7295 69.0333 59.7469 68.6869C59.765 68.3254 59.8103 68.0237 59.8828 67.7818C59.8353 67.5267 59.8203 67.226 59.8377 66.8796C59.8559 66.5181 59.9012 66.2164 59.9736 65.9745C59.9261 65.7194 59.9111 65.4187 59.9285 65.0723C59.9467 64.7108 59.992 64.4092 60.0644 64.1672C60.017 63.9121 60.002 63.6114 60.0194 63.265C60.0375 62.9036 60.0828 62.6019 60.1553 62.3599L59.0244 62.3779C58.9769 62.1228 58.9619 61.8221 58.9793 61.4757C58.9975 61.1142 59.0428 60.8125 59.1152 60.5706L61.1508 60.5383C61.199 60.7783 61.214 61.079 61.1958 61.4405C61.1784 61.7869 61.1331 62.0886 61.06 62.3456L61.9647 62.3312C62.0129 62.5712 62.0279 62.872 62.0097 63.2334C61.9923 63.5798 61.947 63.8815 61.8738 64.1385ZM70.9747 64.897C70.9573 65.2434 70.912 65.5451 70.8389 65.8021L70.1603 65.8128C70.2085 66.0529 70.2235 66.3536 70.2054 66.7151C70.188 67.0615 70.1427 67.3631 70.0695 67.6201L68.9386 67.6381C68.9868 67.8781 69.0018 68.1788 68.9837 68.5403C68.9663 68.8867 68.921 69.1884 68.8478 69.4454L65.229 69.5028C65.1815 69.2477 65.1665 68.947 65.1839 68.6006C65.2021 68.2391 65.2474 67.9374 65.3198 67.6955L64.1889 67.7135C64.1415 67.4584 64.1265 67.1577 64.1439 66.8113C64.162 66.4498 64.2073 66.1481 64.2798 65.9062L63.6012 65.9169C63.5538 65.6619 63.5388 65.3611 63.5562 65.0147C63.5743 64.6533 63.6196 64.3516 63.6921 64.1096L64.3706 64.0989C64.3231 63.8438 64.3081 63.5431 64.3255 63.1967C64.3437 62.8352 64.389 62.5335 64.4614 62.2916L65.5923 62.2736C65.5449 62.0186 65.5298 61.7178 65.5472 61.3714C65.5654 61.01 65.6107 60.7083 65.6831 60.4663L69.3019 60.4089C69.3501 60.6489 69.3652 60.9497 69.347 61.3111C69.3296 61.6575 69.2843 61.9592 69.2111 62.2162L70.342 62.1983C70.3902 62.4383 70.4052 62.739 70.387 63.1005C70.3696 63.4469 70.3243 63.7486 70.2512 64.0055L70.9297 63.9948C70.9779 64.2348 70.9929 64.5355 70.9747 64.897ZM69.0294 65.8308C68.982 65.5757 68.967 65.275 68.9844 64.9286C69.0026 64.5671 69.0479 64.2654 69.1203 64.0235L68.4418 64.0343C68.3943 63.7792 68.3793 63.4785 68.3967 63.1321C68.4149 62.7706 68.4602 62.4689 68.5326 62.227L66.2708 62.2629C66.319 62.5029 66.334 62.8036 66.3159 63.1651C66.2985 63.5115 66.2532 63.8132 66.18 64.0702L65.5015 64.0809C65.5497 64.3209 65.5647 64.6217 65.5465 64.9831C65.5291 65.3295 65.4838 65.6312 65.4106 65.8882L66.0892 65.8775C66.1374 66.1175 66.1524 66.4182 66.1342 66.7797C66.1168 67.1261 66.0715 67.4278 65.9983 67.6848L68.2601 67.6489C68.2126 67.3938 68.1976 67.093 68.215 66.7466C68.2332 66.3852 68.2785 66.0835 68.3509 65.8416L69.0294 65.8308ZM74.5579 61.2284C74.5405 61.5748 74.4952 61.8765 74.422 62.1335L75.3267 62.1191C75.3749 62.3592 75.3899 62.6599 75.3717 63.0214C75.3543 63.3678 75.309 63.6694 75.2358 63.9264L74.5573 63.9372C74.6055 64.1772 74.6205 64.478 74.6024 64.8394C74.585 65.1858 74.5397 65.4875 74.4665 65.7445C74.5147 65.9845 74.5297 66.2853 74.5115 66.6467C74.4941 66.9931 74.4488 67.2948 74.3757 67.5518C74.4239 67.7918 74.4389 68.0925 74.4207 68.454C74.4033 68.8004 74.358 69.1021 74.2848 69.3591L72.4754 69.3878C72.428 69.1327 72.413 68.832 72.4304 68.4856C72.4485 68.1241 72.4938 67.8224 72.5663 67.5805C72.5188 67.3254 72.5038 67.0247 72.5212 66.6783C72.5394 66.3168 72.5847 66.0151 72.6571 65.7732C72.6096 65.5181 72.5946 65.2174 72.612 64.871C72.6302 64.5095 72.6755 64.2079 72.7479 63.9659C72.7005 63.7108 72.6855 63.4101 72.7029 63.0637C72.721 62.7023 72.7663 62.4006 72.8387 62.1586C72.7913 61.9036 72.7763 61.6028 72.7937 61.2564C72.8119 60.895 72.8572 60.5933 72.9296 60.3513L74.5128 60.3262C74.561 60.5662 74.576 60.867 74.5579 61.2284ZM79.9855 63.8511C80.0337 64.0911 80.0488 64.3918 80.0306 64.7533C80.0132 65.0997 79.9679 65.4014 79.8947 65.6583C79.9429 65.8984 79.9579 66.1991 79.9398 66.5606C79.9224 66.907 79.8771 67.2087 79.8039 67.4656C79.8521 67.7057 79.8671 68.0064 79.8489 68.3679C79.8315 68.7143 79.7862 69.0159 79.713 69.2729L77.9036 69.3017C77.8562 69.0466 77.8412 68.7458 77.8586 68.3994C77.8768 68.038 77.922 67.7363 77.9945 67.4944C77.947 67.2393 77.932 66.9385 77.9494 66.5921C77.9676 66.2307 78.0129 65.929 78.0853 65.6871C78.0379 65.432 78.0228 65.1313 78.0402 64.7849C78.0584 64.4234 78.1037 64.1217 78.1761 63.8798C78.1287 63.6247 78.1137 63.324 78.1311 62.9776C78.1492 62.6161 78.1945 62.3144 78.267 62.0725L75.3267 62.1191C75.2792 61.8641 75.2642 61.5633 75.2816 61.2169C75.2998 60.8555 75.3451 60.5538 75.4175 60.3118L79.0363 60.2544C79.0845 60.4944 79.0995 60.7952 79.0814 61.1566C79.064 61.503 79.0187 61.8047 78.9455 62.0617L80.0764 62.0438C80.1246 62.2838 80.1396 62.5845 80.1214 62.946C80.104 63.2924 80.0587 63.5941 79.9855 63.8511ZM88.8597 67.3219C88.9079 67.5619 88.923 67.8627 88.9048 68.2241C88.8874 68.5705 88.8421 68.8722 88.7689 69.1292L85.6024 69.1795C85.555 68.9244 85.54 68.6237 85.5574 68.2773C85.5756 67.9158 85.6209 67.6141 85.6933 67.3722L84.7886 67.3865C84.7411 67.1315 84.7261 66.8307 84.7435 66.4843C84.7617 66.1229 84.807 65.8212 84.8794 65.5792L83.5224 65.6008C83.5706 65.8408 83.5856 66.1415 83.5674 66.503C83.55 66.8494 83.5047 67.1511 83.4315 67.4081C83.4797 67.6481 83.4947 67.9488 83.4766 68.3103C83.4592 68.6567 83.4139 68.9584 83.3407 69.2154L81.5313 69.2441C81.4838 68.989 81.4688 68.6883 81.4862 68.3419C81.5044 67.9804 81.5497 67.6787 81.6221 67.4368C81.5747 67.1817 81.5597 66.881 81.5771 66.5346C81.5952 66.1731 81.6405 65.8714 81.7129 65.6295C81.6655 65.3744 81.6505 65.0737 81.6679 64.7273C81.6861 64.3658 81.7314 64.0641 81.8038 63.8222C81.7563 63.5671 81.7413 63.2664 81.7587 62.92C81.7769 62.5585 81.8222 62.2568 81.8946 62.0149C81.8472 61.7598 81.8321 61.4591 81.8496 61.1127C81.8677 60.7512 81.913 60.4495 81.9854 60.2076C81.938 59.9525 81.923 59.6518 81.9404 59.3054C81.9585 58.9439 82.0038 58.6422 82.0763 58.4003C82.0288 58.1452 82.0138 57.8445 82.0312 57.4981C82.0494 57.1366 82.0947 56.835 82.1671 56.593L83.9765 56.5643C84.0247 56.8043 84.0397 57.1051 84.0216 57.4665C84.0041 57.8129 83.9589 58.1146 83.8857 58.3716C83.9339 58.6116 83.9489 58.9124 83.9307 59.2738C83.9133 59.6202 83.868 59.9219 83.7948 60.1789C83.843 60.4189 83.8581 60.7196 83.8399 61.0811C83.8225 61.4275 83.7772 61.7292 83.704 61.9862C83.7522 62.2262 83.7672 62.5269 83.7491 62.8884C83.7317 63.2348 83.6864 63.5365 83.6132 63.7935L84.9702 63.7719C84.9228 63.5169 84.9078 63.2161 84.9252 62.8697C84.9433 62.5083 84.9886 62.2066 85.0611 61.9647L85.9658 61.9503C85.9183 61.6952 85.9033 61.3945 85.9207 61.0481C85.9389 60.6866 85.9842 60.3849 86.0566 60.143L88.7707 60.0999C88.8189 60.3399 88.8339 60.6407 88.8158 61.0021C88.7983 61.3485 88.7531 61.6502 88.6799 61.9072L86.8705 61.9359C86.9187 62.1759 86.9337 62.4767 86.9155 62.8381C86.8981 63.1845 86.8528 63.4862 86.7796 63.7432L85.8749 63.7576C85.9231 63.9976 85.9382 64.2983 85.92 64.6598C85.9026 65.0062 85.8573 65.3079 85.7841 65.5649L86.6888 65.5505C86.737 65.7905 86.752 66.0913 86.7339 66.4527C86.7165 66.7991 86.6712 67.1008 86.598 67.3578L88.8597 67.3219ZM98.2331 62.6585C98.2157 63.0049 98.1704 63.3066 98.0972 63.5636C98.1455 63.8036 98.1605 64.1044 98.1423 64.4658C98.1249 64.8122 98.0796 65.1139 98.0064 65.3709L93.2567 65.4463C93.3049 65.6863 93.32 65.987 93.3018 66.3485C93.2844 66.6949 93.2391 66.9966 93.1659 67.2536L97.0109 67.1926C97.0591 67.4326 97.0741 67.7333 97.0559 68.0948C97.0385 68.4412 96.9932 68.7429 96.9201 68.9998L92.3965 69.0716C92.3491 68.8166 92.3341 68.5158 92.3515 68.1694C92.3697 67.808 92.4149 67.5063 92.4874 67.2643L91.3565 67.2823C91.3091 67.0272 91.294 66.7265 91.3114 66.3801C91.3296 66.0186 91.3749 65.7169 91.4473 65.475L90.7688 65.4858C90.7214 65.2307 90.7063 64.93 90.7237 64.5836C90.7419 64.2221 90.7872 63.9204 90.8596 63.6785L91.5382 63.6677C91.4907 63.4126 91.4757 63.1119 91.4931 62.7655C91.5113 62.404 91.5566 62.1023 91.629 61.8604L92.7599 61.8425C92.7124 61.5874 92.6974 61.2867 92.7148 60.9403C92.733 60.5788 92.7783 60.2771 92.8507 60.0352L97.3742 59.9634C97.4224 60.2034 97.4374 60.5041 97.4193 60.8656C97.4019 61.212 97.3566 61.5137 97.2834 61.7707L98.1881 61.7563C98.2363 61.9963 98.2513 62.2971 98.2331 62.6585ZM96.2878 63.5923C96.2404 63.3372 96.2254 63.0365 96.2428 62.6901C96.261 62.3287 96.3063 62.027 96.3787 61.785L93.4384 61.8317C93.4866 62.0717 93.5016 62.3724 93.4834 62.7339C93.466 63.0803 93.4207 63.382 93.3476 63.639L96.2878 63.5923Z" fill="url(#paint2_linear_1305_1490)"/>
<defs>
<linearGradient id="paint0_linear_1305_1490" x1="147.073" y1="42.9561" x2="-24.3424" y2="40.294" gradientUnits="userSpaceOnUse">
<stop stop-color="#8B9BB8"/>
<stop offset="0.1" stop-color="#8B9BB8"/>
<stop offset="0.23" stop-color="#8B9BB8"/>
<stop offset="0.4" stop-color="#596B89"/>
<stop offset="0.59" stop-color="#596B89"/>
<stop offset="0.67" stop-color="#596B89"/>
<stop offset="0.6701" stop-color="#596B89"/>
<stop offset="0.703125" stop-color="#596B89"/>
<stop offset="0.85" stop-color="#8B9BB8"/>
<stop offset="0.890625" stop-color="#8B9BB8"/>
<stop offset="0.92" stop-color="#8B9BB8"/>
<stop offset="1" stop-color="#8B9BB8"/>
</linearGradient>
<linearGradient id="paint1_linear_1305_1490" x1="137.838" y1="51.5577" x2="37.4693" y2="38.6874" gradientUnits="userSpaceOnUse">
<stop offset="0.04" stop-color="#364665"/>
<stop offset="0.99" stop-color="#020202"/>
<stop offset="1"/>
</linearGradient>
<linearGradient id="paint2_linear_1305_1490" x1="32.5624" y1="51.0399" x2="114.008" y2="44.8467" gradientUnits="userSpaceOnUse">
<stop stop-color="#0A0C0F"/>
<stop offset="1" stop-color="#2F3640"/>
</linearGradient>
</defs>
</svg>
