<svg width="184" height="240" viewBox="0 0 184 240" fill="none" xmlns="http://www.w3.org/2000/svg">
<path d="M101.769 83.313V0H73.775V18.7089H64.4437V27.771H55.4041V36.8331H37.0333V46.4799H18.6624V55.2497H0V73.9586H18.6624V64.6041H37.0333V55.2497H55.4041V46.4799H73.775V36.8331H83.1062V83.313H73.775V92.6675H64.4437V110.792H55.4041V129.208H0V147.625H46.0729V156.979H37.0333V175.688H27.9937V184.75H18.6624V194.105H9.33121V203.167H0V240H9.33121V230.938H18.6624V212.521H27.9937V203.167H37.0333V194.105H46.0729V175.688H55.4041V156.979H64.4437V138.27H101.769V129.208H128.596V119.854H137.927V110.792H147.258V92.6675H156.006V64.6041H165.921V36.8331H174.96V18.7089H184V0H156.006V46.4799H147.258V27.771H137.927V0H119.556V27.771H128.596V46.4799H137.927V92.6675H128.596V101.437H119.556V110.792H101.769V119.854H73.775V110.792H83.1062V101.437H92.1458V83.313H101.769Z" fill="black"/>
</svg>
